EncodeSans-Bold.ufo
<glyph name="exclam" format="2">
  <advance width="660.6078"/>
  <unicode hex="0021"/>
  <outline>
    <contour>
      <point x="204.02" y="532.575" type="line"/>
      <point x="461.603" y="532.575" type="line"/>
      <point x="556.833" y="996.282" type="line"/>
      <point x="556.833" y="1480" type="line"/>
      <point x="103.775" y="1480" type="line"/>
      <point x="103.775" y="996.282" type="line"/>
    </contour>
    <contour>
      <point x="330.304" y="-20.027" type="curve" smooth="yes"/>
      <point x="493.666" y="-20.027"/>
      <point x="598.88" y="75.161"/>
      <point x="598.88" y="216.437" type="curve" smooth="yes"/>
      <point x="598.88" y="357.712"/>
      <point x="497.677" y="452.895"/>
      <point x="330.304" y="452.895" type="curve" smooth="yes"/>
      <point x="162.931" y="452.895"/>
      <point x="61.728" y="361.723"/>
      <point x="61.728" y="216.437" type="curve" smooth="yes"/>
      <point x="61.728" y="71.151"/>
      <point x="166.942" y="-20.027"/>
    </contour>
  </outline>
</glyph>
<glyph name="numbersign" format="2">
  <advance width="1320.61115"/>
  <unicode hex="0023"/>
  <outline>
    <contour>
      <point x="647.08" y="0" type="line"/>
      <point x="968.801" y="0" type="line"/>
      <point x="1122.801" y="1480" type="line"/>
      <point x="801.08" y="1480" type="line"/>
    </contour>
    <contour>
      <point x="100" y="349.579" type="line"/>
      <point x="1220.611" y="349.579" type="line"/>
      <point x="1220.611" y="666.282" type="line"/>
      <point x="100" y="666.282" type="line"/>
    </contour>
    <contour>
      <point x="197.81" y="0" type="line"/>
      <point x="519.531" y="0" type="line"/>
      <point x="673.531" y="1480" type="line"/>
      <point x="351.81" y="1480" type="line"/>
    </contour>
    <contour>
      <point x="100" y="813.718" type="line"/>
      <point x="1220.611" y="813.718" type="line"/>
      <point x="1220.611" y="1130.421" type="line"/>
      <point x="100" y="1130.421" type="line"/>
    </contour>
  </outline>
</glyph>
<glyph name="percent" format="2">
  <advance width="2261.62355"/>
  <unicode hex="0025"/>
  <note>
450
</note>
  <outline>
    <contour>
      <point x="623.434" y="0" type="line"/>
      <point x="965.196" y="0" type="line"/>
      <point x="1638.189" y="1480" type="line"/>
      <point x="1296.427" y="1480" type="line"/>
    </contour>
    <contour>
      <point x="512.264" y="565.968" type="curve" smooth="yes"/>
      <point x="775.504" y="565.968"/>
      <point x="954.65" y="728.082"/>
      <point x="954.65" y="1032.985" type="curve" smooth="yes"/>
      <point x="954.65" y="1337.889"/>
      <point x="775.495" y="1500.005"/>
      <point x="512.264" y="1500.005" type="curve" smooth="yes"/>
      <point x="249.033" y="1500.005"/>
      <point x="69.877" y="1337.889"/>
      <point x="69.877" y="1032.985" type="curve" smooth="yes"/>
      <point x="69.877" y="728.082"/>
      <point x="249.024" y="565.968"/>
    </contour>
    <contour>
      <point x="512.264" y="824.504" type="curve" smooth="yes"/>
      <point x="447.473" y="824.504"/>
      <point x="399.601" y="875.369"/>
      <point x="399.601" y="1032.98" type="curve" smooth="yes"/>
      <point x="399.601" y="1190.593"/>
      <point x="447.473" y="1241.47"/>
      <point x="512.264" y="1241.47" type="curve" smooth="yes"/>
      <point x="577.059" y="1241.47"/>
      <point x="624.927" y="1190.593"/>
      <point x="624.927" y="1032.991" type="curve" smooth="yes"/>
      <point x="624.927" y="875.385"/>
      <point x="577.059" y="824.504"/>
    </contour>
    <contour>
      <point x="1749.36" y="-18" type="curve" smooth="yes"/>
      <point x="2012.599" y="-18"/>
      <point x="2191.746" y="144.114"/>
      <point x="2191.746" y="449.017" type="curve" smooth="yes"/>
      <point x="2191.746" y="753.921"/>
      <point x="2012.592" y="916.037"/>
      <point x="1749.36" y="916.037" type="curve" smooth="yes"/>
      <point x="1486.127" y="916.037"/>
      <point x="1306.973" y="753.921"/>
      <point x="1306.973" y="449.017" type="curve" smooth="yes"/>
      <point x="1306.973" y="144.114"/>
      <point x="1486.121" y="-18"/>
    </contour>
    <contour>
      <point x="1749.36" y="240.536" type="curve" smooth="yes"/>
      <point x="1684.565" y="240.536"/>
      <point x="1636.696" y="291.401"/>
      <point x="1636.696" y="449.012" type="curve" smooth="yes"/>
      <point x="1636.696" y="606.625"/>
      <point x="1684.565" y="657.502"/>
      <point x="1749.36" y="657.502" type="curve" smooth="yes"/>
      <point x="1814.155" y="657.502"/>
      <point x="1862.023" y="606.625"/>
      <point x="1862.023" y="449.023" type="curve" smooth="yes"/>
      <point x="1862.023" y="291.417"/>
      <point x="1814.155" y="240.536"/>
    </contour>
  </outline>
</glyph>
<glyph name="ampersand" format="2">
  <advance width="1674.62149"/>
  <unicode hex="0026"/>
  <outline>
    <contour>
      <point x="1481.227" y="-20" type="line"/>
      <point x="1674.621" y="295.717" type="line"/>
      <point x="746.175" y="873.597" type="line" smooth="yes"/>
      <point x="671.633" y="919.208"/>
      <point x="639.693" y="959.049"/>
      <point x="639.693" y="1013.775" type="curve" smooth="yes"/>
      <point x="639.693" y="1097.414"/>
      <point x="701.517" y="1154.241"/>
      <point x="926.373" y="1154.241" type="curve" smooth="yes"/>
      <point x="1005.341" y="1154.241"/>
      <point x="1099.382" y="1143.241"/>
      <point x="1167.362" y="1130.266" type="curve"/>
      <point x="1167.362" y="1478.035" type="line"/>
      <point x="1085.319" y="1491.016"/>
      <point x="997.306" y="1500.005"/>
      <point x="891.277" y="1500.005" type="curve" smooth="yes"/>
      <point x="427.876" y="1500.005"/>
      <point x="208.694" y="1317.917"/>
      <point x="208.694" y="1023.819" type="curve" smooth="yes"/>
      <point x="208.694" y="872.902"/>
      <point x="274.653" y="727.826"/>
      <point x="552.781" y="557.88" type="curve" smooth="yes"/>
    </contour>
    <contour>
      <point x="705.093" y="-18" type="curve" smooth="yes"/>
      <point x="1155.387" y="-18"/>
      <point x="1430.602" y="212.143"/>
      <point x="1430.602" y="666.499" type="curve" smooth="yes"/>
      <point x="1430.602" y="738.44"/>
      <point x="1419.61" y="826.415"/>
      <point x="1400.642" y="906.389" type="curve"/>
      <point x="1063.906" y="906.389" type="line"/>
      <point x="1082.873" y="826.415"/>
      <point x="1094.86" y="736.442"/>
      <point x="1094.86" y="662.486" type="curve" smooth="yes"/>
      <point x="1094.86" y="370.486"/>
      <point x="944.911" y="280.63"/>
      <point x="756.23" y="280.63" type="curve" smooth="yes"/>
      <point x="603.708" y="280.63"/>
      <point x="511.807" y="342.39"/>
      <point x="511.807" y="454.125" type="curve" smooth="yes"/>
      <point x="511.807" y="531.9"/>
      <point x="545.691" y="585.724"/>
      <point x="594.361" y="631.65" type="curve"/>
      <point x="372.852" y="785.907" type="line"/>
      <point x="215.917" y="740.01"/>
      <point x="82.81" y="602.029"/>
      <point x="82.81" y="406.013" type="curve" smooth="yes"/>
      <point x="82.81" y="147.976"/>
      <point x="292.934" y="-18"/>
    </contour>
  </outline>
</glyph>
<glyph name="quotesingle" format="2">
  <advance width="514.37119"/>
  <unicode hex="0027"/>
  <outline>
    <contour>
      <point x="126.88" y="797.562" type="line"/>
      <point x="387.491" y="797.562" type="line"/>
      <point x="464.647" y="1616" type="line"/>
      <point x="49.724" y="1616" type="line"/>
    </contour>
  </outline>
</glyph>
<glyph name="parenleft" format="2">
  <advance width="754.34089"/>
  <unicode hex="0028"/>
  <outline>
    <contour>
      <point x="431.911" y="-440" type="curve"/>
      <point x="873.936" y="-440" type="line"/>
      <point x="626.884" y="-139.02"/>
      <point x="524.872" y="184.896"/>
      <point x="524.872" y="588" type="curve" smooth="yes"/>
      <point x="524.872" y="991.104"/>
      <point x="626.884" y="1315.02"/>
      <point x="873.936" y="1616" type="curve"/>
      <point x="431.911" y="1616" type="line"/>
      <point x="186.852" y="1349.107"/>
      <point x="88.863" y="995.091"/>
      <point x="88.863" y="588" type="curve" smooth="yes"/>
      <point x="88.863" y="180.909"/>
      <point x="186.852" y="-173.107"/>
    </contour>
  </outline>
</glyph>
<glyph name="parenright" format="2">
  <advance width="754.34089"/>
  <unicode hex="0029"/>
  <outline>
    <contour>
      <point x="-119.595" y="-440" type="curve"/>
      <point x="322.429" y="-440" type="line"/>
      <point x="567.489" y="-173.107"/>
      <point x="665.478" y="180.909"/>
      <point x="665.478" y="588" type="curve" smooth="yes"/>
      <point x="665.478" y="995.091"/>
      <point x="567.489" y="1349.107"/>
      <point x="322.429" y="1616" type="curve"/>
      <point x="-119.595" y="1616" type="line"/>
      <point x="127.457" y="1315.02"/>
      <point x="229.469" y="991.104"/>
      <point x="229.469" y="588" type="curve" smooth="yes"/>
      <point x="229.469" y="184.896"/>
      <point x="127.457" y="-139.02"/>
    </contour>
  </outline>
</glyph>
<glyph name="asterisk" format="2">
  <advance width="1064.53714"/>
  <unicode hex="002A"/>
  <outline>
    <contour>
      <point x="690.643" y="1108.74" type="line"/>
      <point x="873.581" y="1124.652" type="line"/>
      <point x="1034.537" y="1176.639" type="line"/>
      <point x="949.36" y="1438.186" type="line"/>
      <point x="788.399" y="1385.198" type="line"/>
      <point x="625.482" y="1285.144" type="line"/>
      <point x="669.555" y="1472.087" type="line"/>
      <point x="669.555" y="1616" type="line"/>
      <point x="394.983" y="1616" type="line"/>
      <point x="394.983" y="1472.087" type="line"/>
      <point x="439.055" y="1285.144" type="line"/>
      <point x="276.138" y="1385.198" type="line"/>
      <point x="115.177" y="1438.186" type="line"/>
      <point x="30" y="1176.639" type="line"/>
      <point x="190.956" y="1124.652" type="line"/>
      <point x="373.894" y="1108.74" type="line"/>
      <point x="231.88" y="986.841" type="line"/>
      <point x="145.943" y="866.914" type="line"/>
      <point x="368.405" y="705.58" type="line"/>
      <point x="454.343" y="824.503" type="line"/>
      <point x="532.269" y="1012.54" type="line"/>
      <point x="610.194" y="824.503" type="line"/>
      <point x="696.132" y="705.58" type="line"/>
      <point x="918.595" y="866.914" type="line"/>
      <point x="832.657" y="986.841" type="line"/>
    </contour>
  </outline>
</glyph>
<glyph name="plus" format="2">
  <advance width="1116.18674"/>
  <unicode hex="002B"/>
  <outline>
    <contour>
      <point x="390.725" y="293.746" type="line"/>
      <point x="725.461" y="293.746" type="line"/>
      <point x="725.461" y="599.646" type="line"/>
      <point x="1020.382" y="599.646" type="line"/>
      <point x="1020.382" y="920.354" type="line"/>
      <point x="725.461" y="920.354" type="line"/>
      <point x="725.461" y="1226.254" type="line"/>
      <point x="390.725" y="1226.254" type="line"/>
      <point x="390.725" y="920.354" type="line"/>
      <point x="95.805" y="920.354" type="line"/>
      <point x="95.805" y="599.646" type="line"/>
      <point x="390.725" y="599.646" type="line"/>
    </contour>
  </outline>
</glyph>
<glyph name="comma" format="2">
  <advance width="620.6078"/>
  <unicode hex="002C"/>
  <outline>
    <contour>
      <point x="141.974" y="-360.16" type="curve"/>
      <point x="382.519" y="-360.16" type="line"/>
      <point x="500.745" y="-218.032"/>
      <point x="576.872" y="-23.819"/>
      <point x="576.872" y="155.334" type="curve" smooth="yes"/>
      <point x="576.872" y="369.752"/>
      <point x="482.684" y="478.982"/>
      <point x="304.293" y="478.982" type="curve" smooth="yes"/>
      <point x="142.936" y="478.982"/>
      <point x="41.728" y="386.798"/>
      <point x="41.728" y="229.475" type="curve" smooth="yes"/>
      <point x="41.728" y="75.161"/>
      <point x="148.944" y="-20.027"/>
      <point x="310.304" y="-20.027" type="curve" smooth="yes"/>
      <point x="362.415" y="-20.027" type="line"/>
      <point x="265.159" y="52.107" type="line"/>
      <point x="265.159" y="-81.979"/>
      <point x="220.094" y="-206.053"/>
    </contour>
  </outline>
</glyph>
<glyph name="hyphen" format="2">
  <advance width="956.51169"/>
  <unicode hex="002D"/>
  <outline>
    <contour>
      <point x="95.805" y="398.638" type="line"/>
      <point x="860.707" y="398.638" type="line"/>
      <point x="860.707" y="741.416" type="line"/>
      <point x="95.805" y="741.416" type="line"/>
    </contour>
  </outline>
</glyph>
<glyph name="period" format="2">
  <advance width="620.6078"/>
  <unicode hex="002E"/>
  <outline>
    <contour>
      <point x="310.304" y="-20.027" type="curve" smooth="yes"/>
      <point x="473.666" y="-20.027"/>
      <point x="578.88" y="79.177"/>
      <point x="578.88" y="229.48" type="curve" smooth="yes"/>
      <point x="578.88" y="379.784"/>
      <point x="477.677" y="478.982"/>
      <point x="310.304" y="478.982" type="curve" smooth="yes"/>
      <point x="142.931" y="478.982"/>
      <point x="41.728" y="383.794"/>
      <point x="41.728" y="229.48" type="curve" smooth="yes"/>
      <point x="41.728" y="75.166"/>
      <point x="146.942" y="-20.027"/>
    </contour>
  </outline>
</glyph>
<glyph name="slash" format="2">
  <advance width="904.0987"/>
  <unicode hex="002F"/>
  <outline>
    <contour>
      <point x="0" y="-240" type="line"/>
      <point x="418.991" y="-240" type="line"/>
      <point x="904.099" y="1616" type="line"/>
      <point x="485.107" y="1616" type="line"/>
    </contour>
  </outline>
</glyph>
<glyph name="zero" format="2">
  <advance width="1397.54891"/>
  <unicode hex="0030"/>
  <note>
600
</note>
  <outline>
    <contour>
      <point x="698.272" y="-20.005" type="curve" smooth="yes"/>
      <point x="1086.546" y="-20.005"/>
      <point x="1318.686" y="224.135"/>
      <point x="1318.686" y="740" type="curve" smooth="yes"/>
      <point x="1318.686" y="1255.865"/>
      <point x="1086.532" y="1500.005"/>
      <point x="698.272" y="1500.005" type="curve" smooth="yes"/>
      <point x="310.013" y="1500.005"/>
      <point x="78.863" y="1255.865"/>
      <point x="78.863" y="740" type="curve" smooth="yes"/>
      <point x="78.863" y="224.135"/>
      <point x="310" y="-20.005"/>
    </contour>
    <contour>
      <point x="699.276" y="331.788" type="curve" smooth="yes"/>
      <point x="569.592" y="331.788"/>
      <point x="503.849" y="428.619"/>
      <point x="503.849" y="739.989" type="curve" smooth="yes"/>
      <point x="503.849" y="1051.381"/>
      <point x="571.6" y="1148.212"/>
      <point x="699.276" y="1148.212" type="curve" smooth="yes"/>
      <point x="825.949" y="1148.212"/>
      <point x="893.7" y="1051.381"/>
      <point x="893.7" y="740.011" type="curve" smooth="yes"/>
      <point x="893.7" y="428.619"/>
      <point x="825.949" y="331.788"/>
    </contour>
  </outline>
</glyph>
<glyph name="one" format="2">
  <advance width="898.66614"/>
  <unicode hex="0031"/>
  <outline>
    <contour>
      <point x="344.86" y="0" type="line"/>
      <point x="779.888" y="0" type="line"/>
      <point x="779.888" y="1486.005" type="line"/>
      <point x="499.209" y="1486.005" type="line"/>
      <point x="29.039" y="1167.918" type="line"/>
      <point x="29.039" y="767.014" type="line"/>
      <point x="499.209" y="1085.109" type="line"/>
      <point x="344.86" y="1243.569" type="line"/>
    </contour>
  </outline>
</glyph>
<glyph name="two" format="2">
  <advance width="1132.54471"/>
  <unicode hex="0032"/>
  <outline>
    <contour>
      <point x="39.919" y="0" type="line"/>
      <point x="1086.611" y="0" type="line"/>
      <point x="1086.611" y="355.791" type="line"/>
      <point x="514.062" y="355.791" type="line"/>
      <point x="520.03" y="248.554" type="line"/>
      <point x="818.773" y="587.04" type="line" smooth="yes"/>
      <point x="970.698" y="760.862"/>
      <point x="1021.68" y="904.878"/>
      <point x="1021.68" y="1048.823" type="curve" smooth="yes"/>
      <point x="1021.68" y="1361.941"/>
      <point x="814.546" y="1500.005"/>
      <point x="403.084" y="1500.005" type="curve" smooth="yes"/>
      <point x="278.081" y="1500.005"/>
      <point x="112.928" y="1474.99"/>
      <point x="20.916" y="1445.008" type="curve"/>
      <point x="20.916" y="1097.239" type="line"/>
      <point x="108.877" y="1130.219"/>
      <point x="235.957" y="1154.241"/>
      <point x="353.97" y="1154.241" type="curve" smooth="yes"/>
      <point x="531.844" y="1154.241"/>
      <point x="593.68" y="1102.359"/>
      <point x="593.68" y="1004.701" type="curve" smooth="yes"/>
      <point x="593.68" y="926.889"/>
      <point x="552.732" y="842.041"/>
      <point x="438.868" y="705.26" type="curve" smooth="yes"/>
      <point x="39.919" y="231.523" type="line"/>
    </contour>
  </outline>
</glyph>
<glyph name="three" format="2">
  <advance width="1137.50045"/>
  <unicode hex="0033"/>
  <outline>
    <contour>
      <point x="441.166" y="-20.005" type="curve" smooth="yes"/>
      <point x="876.465" y="-20.005"/>
      <point x="1084.548" y="146.036"/>
      <point x="1084.548" y="419.062" type="curve" smooth="yes"/>
      <point x="1084.548" y="618.019"/>
      <point x="970.603" y="734.95"/>
      <point x="773.786" y="767.96" type="curve"/>
      <point x="773.787" y="756.003" type="line"/>
      <point x="936.643" y="792.989"/>
      <point x="1036.547" y="917.961"/>
      <point x="1036.547" y="1088.865" type="curve" smooth="yes"/>
      <point x="1036.547" y="1350.96"/>
      <point x="843.445" y="1500.005"/>
      <point x="447.081" y="1500.005" type="curve" smooth="yes"/>
      <point x="316.036" y="1500.005"/>
      <point x="154.894" y="1476.99"/>
      <point x="56.896" y="1444.996" type="curve"/>
      <point x="56.896" y="1127.317" type="line"/>
      <point x="154.87" y="1161.307"/>
      <point x="285.947" y="1182.323"/>
      <point x="396.958" y="1182.323" type="curve" smooth="yes"/>
      <point x="559.767" y="1182.323"/>
      <point x="622.584" y="1135.481"/>
      <point x="622.584" y="1047.765" type="curve" smooth="yes"/>
      <point x="622.584" y="967.159"/>
      <point x="567.893" y="916.33"/>
      <point x="391.214" y="916.33" type="curve" smooth="yes"/>
      <point x="174.759" y="916.33" type="line"/>
      <point x="174.759" y="593.638" type="line"/>
      <point x="418.007" y="593.638" type="line" smooth="yes"/>
      <point x="613.805" y="593.638"/>
      <point x="677.613" y="543.83"/>
      <point x="677.613" y="447.134" type="curve" smooth="yes"/>
      <point x="677.613" y="349.486"/>
      <point x="607.811" y="297.677"/>
      <point x="422.098" y="297.677" type="curve" smooth="yes"/>
      <point x="298.03" y="297.677"/>
      <point x="149.949" y="317.682"/>
      <point x="36.959" y="345.646" type="curve"/>
      <point x="36.959" y="27.967" type="line"/>
      <point x="158.004" y="-2.008"/>
      <point x="294.052" y="-20.005"/>
    </contour>
  </outline>
</glyph>
<glyph name="four" format="2">
  <advance width="1334.57892"/>
  <unicode hex="0034"/>
  <outline>
    <contour>
      <point x="29.936" y="270.68" type="line"/>
      <point x="1307.628" y="270.68" type="line"/>
      <point x="1307.628" y="601.426" type="line"/>
      <point x="407.842" y="601.426" type="line"/>
      <point x="451.904" y="506.224" type="line"/>
      <point x="919.483" y="1480" type="line"/>
      <point x="506.538" y="1480" type="line"/>
      <point x="29.936" y="506.218" type="line"/>
    </contour>
    <contour>
      <point x="741.841" y="0" type="line"/>
      <point x="1128.739" y="0" type="line"/>
      <point x="1128.739" y="980" type="line"/>
      <point x="781.911" y="980" type="line"/>
      <point x="741.841" y="601.426" type="line"/>
    </contour>
  </outline>
</glyph>
<glyph name="five" format="2">
  <advance width="1151.49987"/>
  <unicode hex="0035"/>
  <outline>
    <contour>
      <point x="468.161" y="-20.005" type="curve" smooth="yes"/>
      <point x="892.447" y="-20.005"/>
      <point x="1109.544" y="146.053"/>
      <point x="1109.544" y="457.131" type="curve" smooth="yes"/>
      <point x="1109.544" y="748.207"/>
      <point x="927.504" y="901.274"/>
      <point x="458.325" y="927.271" type="curve" smooth="yes"/>
      <point x="269.249" y="937.27" type="line"/>
      <point x="518.863" y="793.998" type="line"/>
      <point x="554.843" y="1339.739" type="line"/>
      <point x="368.429" y="1150.285" type="line"/>
      <point x="1050.543" y="1150.285" type="line"/>
      <point x="1050.543" y="1480" type="line"/>
      <point x="156.911" y="1480" type="line"/>
      <point x="104.899" y="624.6" type="line"/>
      <point x="293.975" y="614.601" type="line" smooth="yes"/>
      <point x="635.814" y="594.614"/>
      <point x="701.605" y="544.767"/>
      <point x="701.605" y="447.113" type="curve" smooth="yes"/>
      <point x="701.605" y="353.516"/>
      <point x="631.814" y="301.693"/>
      <point x="449.091" y="301.693" type="curve" smooth="yes"/>
      <point x="325.036" y="301.693"/>
      <point x="176.955" y="322.698"/>
      <point x="63.956" y="351.665" type="curve"/>
      <point x="63.956" y="33.985" type="line"/>
      <point x="185.008" y="0.997"/>
      <point x="321.052" y="-20.005"/>
    </contour>
  </outline>
</glyph>
<glyph name="six" format="2">
  <advance width="1317.61423"/>
  <unicode hex="0036"/>
  <outline>
    <contour>
      <point x="708.25" y="-20.005" type="curve" smooth="yes"/>
      <point x="1058.583" y="-20.005"/>
      <point x="1268.655" y="168.139"/>
      <point x="1268.655" y="461.149" type="curve" smooth="yes"/>
      <point x="1268.655" y="780.251"/>
      <point x="1056.57" y="916.239"/>
      <point x="784.568" y="916.239" type="curve" smooth="yes"/>
      <point x="651.614" y="916.239"/>
      <point x="515.664" y="873.27"/>
      <point x="443.722" y="799.321" type="curve"/>
      <point x="443.722" y="511.757" type="line"/>
      <point x="513.652" y="580.631"/>
      <point x="603.429" y="611.59"/>
      <point x="695.331" y="611.59" type="curve" smooth="yes"/>
      <point x="806.969" y="611.59"/>
      <point x="878.762" y="561.761"/>
      <point x="878.762" y="449.126" type="curve" smooth="yes"/>
      <point x="878.762" y="339.503"/>
      <point x="810.986" y="286.646"/>
      <point x="710.251" y="286.646" type="curve" smooth="yes"/>
      <point x="585.614" y="286.646"/>
      <point x="508.843" y="355.399"/>
      <point x="508.843" y="621.806" type="curve" smooth="yes"/>
      <point x="508.843" y="808.295" type="line" smooth="yes"/>
      <point x="508.843" y="1049.543"/>
      <point x="626.675" y="1174.302"/>
      <point x="886.467" y="1174.302" type="curve" smooth="yes"/>
      <point x="993.537" y="1174.302"/>
      <point x="1093.56" y="1159.289"/>
      <point x="1187.606" y="1128.288" type="curve"/>
      <point x="1187.606" y="1453.988" type="line"/>
      <point x="1094.542" y="1488.003"/>
      <point x="985.505" y="1500.005"/>
      <point x="863.393" y="1500.005" type="curve" smooth="yes"/>
      <point x="370.054" y="1500.005"/>
      <point x="87.865" y="1227.915"/>
      <point x="87.865" y="691.985" type="curve" smooth="yes"/>
      <point x="87.865" y="198.088"/>
      <point x="339.04" y="-20.005"/>
    </contour>
  </outline>
</glyph>
<glyph name="seven" format="2">
  <advance width="1078.54333"/>
  <unicode hex="0037"/>
  <outline>
    <contour>
      <point x="142.948" y="0" type="line"/>
      <point x="587.98" y="0" type="line"/>
      <point x="1021.551" y="1248.477" type="line"/>
      <point x="1021.551" y="1480" type="line"/>
      <point x="10.994" y="1480" type="line"/>
      <point x="10.994" y="1124.209" type="line"/>
      <point x="756.965" y="1124.209" type="line"/>
      <point x="609.605" y="1248.472" type="line"/>
    </contour>
  </outline>
</glyph>
<glyph name="eight" format="2">
  <advance width="1397.54891"/>
  <unicode hex="0038"/>
  <outline>
    <contour>
      <point x="700.25" y="-20.005" type="curve" smooth="yes"/>
      <point x="1123.611" y="-20.005"/>
      <point x="1325.655" y="174.135"/>
      <point x="1325.655" y="422.148" type="curve" smooth="yes"/>
      <point x="1325.655" y="639.164"/>
      <point x="1214.708" y="779.223"/>
      <point x="827.54" y="889.318" type="curve" smooth="yes"/>
      <point x="554.603" y="966.349"/>
      <point x="511.776" y="1007.188"/>
      <point x="511.776" y="1087.892" type="curve" smooth="yes"/>
      <point x="511.776" y="1153.549"/>
      <point x="571.581" y="1208.39"/>
      <point x="721.356" y="1208.39" type="curve" smooth="yes"/>
      <point x="854.074" y="1208.39"/>
      <point x="917.849" y="1161.547"/>
      <point x="917.849" y="1079.874" type="curve" smooth="yes"/>
      <point x="917.849" y="999.142"/>
      <point x="871.967" y="931.247"/>
      <point x="751.195" y="866.293" type="curve"/>
      <point x="999.7" y="762.11" type="line"/>
      <point x="1219.803" y="847.126"/>
      <point x="1288.701" y="982.131"/>
      <point x="1288.701" y="1124.005" type="curve" smooth="yes"/>
      <point x="1288.701" y="1358.008"/>
      <point x="1082.606" y="1500.005"/>
      <point x="726.377" y="1500.005" type="curve" smooth="yes"/>
      <point x="307.929" y="1500.005"/>
      <point x="104.841" y="1322.896"/>
      <point x="104.841" y="1071.85" type="curve" smooth="yes"/>
      <point x="104.841" y="859.869"/>
      <point x="225.816" y="693.758"/>
      <point x="610.962" y="594.699" type="curve" smooth="yes"/>
      <point x="866.881" y="529.7"/>
      <point x="924.736" y="483.817"/>
      <point x="924.736" y="398.088" type="curve" smooth="yes"/>
      <point x="924.736" y="320.435"/>
      <point x="861.975" y="271.61"/>
      <point x="701.25" y="271.61" type="curve" smooth="yes"/>
      <point x="541.581" y="271.61"/>
      <point x="470.811" y="326.451"/>
      <point x="470.811" y="419.119" type="curve" smooth="yes"/>
      <point x="470.811" y="494.837"/>
      <point x="522.64" y="582.69"/>
      <point x="660.464" y="629.666" type="curve"/>
      <point x="388.901" y="730.835" type="line"/>
      <point x="177.861" y="663.848"/>
      <point x="67.881" y="531.876"/>
      <point x="67.881" y="367.969" type="curve" smooth="yes"/>
      <point x="67.881" y="148.076"/>
      <point x="253.869" y="-20.005"/>
    </contour>
  </outline>
</glyph>
<glyph name="less" format="2">
  <advance width="1116.18674"/>
  <unicode hex="003C"/>
  <outline>
    <contour>
      <point x="1020.382" y="225.513" type="line"/>
      <point x="1020.382" y="546.199" type="line"/>
      <point x="323.253" y="783.043" type="line"/>
      <point x="323.253" y="741.976" type="line"/>
      <point x="1020.382" y="973.801" type="line"/>
      <point x="1020.382" y="1294.487" type="line"/>
      <point x="95.805" y="964.487" type="line"/>
      <point x="95.805" y="555.513" type="line"/>
    </contour>
  </outline>
</glyph>
<glyph name="equal" format="2">
  <advance width="1116.18674"/>
  <unicode hex="003D"/>
  <outline>
    <contour>
      <point x="95.805" y="839.814" type="line"/>
      <point x="1020.382" y="839.814" type="line"/>
      <point x="1020.382" y="1160.521" type="line"/>
      <point x="95.805" y="1160.521" type="line"/>
    </contour>
    <contour>
      <point x="95.805" y="359.479" type="line"/>
      <point x="1020.382" y="359.479" type="line"/>
      <point x="1020.382" y="680.186" type="line"/>
      <point x="95.805" y="680.186" type="line"/>
    </contour>
  </outline>
</glyph>
<glyph name="greater" format="2">
  <advance width="1116.18674"/>
  <unicode hex="003E"/>
  <outline>
    <contour>
      <point x="95.805" y="225.513" type="line"/>
      <point x="1020.382" y="555.513" type="line"/>
      <point x="1020.382" y="964.487" type="line"/>
      <point x="95.805" y="1294.487" type="line"/>
      <point x="95.805" y="973.801" type="line"/>
      <point x="792.934" y="741.976" type="line"/>
      <point x="792.934" y="783.043" type="line"/>
      <point x="95.805" y="546.199" type="line"/>
    </contour>
  </outline>
</glyph>
<glyph name="question" format="2">
  <advance width="1050.58147"/>
  <unicode hex="003F"/>
  <outline>
    <contour>
      <point x="339.962" y="532.618" type="line"/>
      <point x="597.545" y="532.618" type="line"/>
      <point x="626.594" y="674.963" type="line"/>
      <point x="855.448" y="733.819"/>
      <point x="1005.618" y="867.834"/>
      <point x="1005.618" y="1083.845" type="curve" smooth="yes"/>
      <point x="1005.618" y="1350.96"/>
      <point x="812.517" y="1500.005"/>
      <point x="416.153" y="1500.005" type="curve" smooth="yes"/>
      <point x="285.107" y="1500.005"/>
      <point x="123.966" y="1476.99"/>
      <point x="25.967" y="1444.996" type="curve"/>
      <point x="25.967" y="1117.278" type="line"/>
      <point x="123.941" y="1151.268"/>
      <point x="253.01" y="1172.284"/>
      <point x="364.023" y="1172.284" type="curve" smooth="yes"/>
      <point x="528.838" y="1172.284"/>
      <point x="591.655" y="1128.454"/>
      <point x="591.655" y="1045.757" type="curve" smooth="yes"/>
      <point x="591.655" y="968.082"/>
      <point x="525.729" y="908.209"/>
      <point x="266.791" y="873.395" type="curve"/>
    </contour>
    <contour>
      <point x="469.255" y="-20.027" type="curve" smooth="yes"/>
      <point x="632.612" y="-20.027"/>
      <point x="737.832" y="75.156"/>
      <point x="737.832" y="216.437" type="curve" smooth="yes"/>
      <point x="737.832" y="357.712"/>
      <point x="636.628" y="452.895"/>
      <point x="469.255" y="452.895" type="curve" smooth="yes"/>
      <point x="301.883" y="452.895"/>
      <point x="200.679" y="361.723"/>
      <point x="200.679" y="216.437" type="curve" smooth="yes"/>
      <point x="200.679" y="71.145"/>
      <point x="305.893" y="-20.027"/>
    </contour>
  </outline>
</glyph>
<glyph name="at" format="2">
  <advance width="2208.98981"/>
  <unicode hex="0040"/>
  <outline>
    <contour>
      <point x="1150.488" y="-460" type="curve" smooth="yes"/>
      <point x="1318.602" y="-460"/>
      <point x="1481.696" y="-442.008"/>
      <point x="1642.845" y="-406.005" type="curve"/>
      <point x="1642.845" y="-139.465" type="line"/>
      <point x="1479.748" y="-175.456"/>
      <point x="1318.611" y="-193.455"/>
      <point x="1150.488" y="-193.455" type="curve" smooth="yes"/>
      <point x="606.408" y="-193.455"/>
      <point x="381.515" y="-1.69"/>
      <point x="381.515" y="519.989" type="curve" smooth="yes"/>
      <point x="381.515" y="1041.711"/>
      <point x="606.416" y="1231.455"/>
      <point x="1113.502" y="1231.455" type="curve" smooth="yes"/>
      <point x="1621.565" y="1231.455"/>
      <point x="1851.528" y="1049.71"/>
      <point x="1851.528" y="580.026" type="curve" smooth="yes"/>
      <point x="1851.528" y="300.301"/>
      <point x="1800.697" y="246.527"/>
      <point x="1720.831" y="246.527" type="curve" smooth="yes"/>
      <point x="1670.954" y="246.527"/>
      <point x="1638.997" y="274.47"/>
      <point x="1638.997" y="344.289" type="curve" smooth="yes"/>
      <point x="1638.997" y="604.591" type="line" smooth="yes"/>
      <point x="1638.997" y="969.881"/>
      <point x="1474.912" y="1098.005"/>
      <point x="1086.445" y="1098.005" type="curve" smooth="yes"/>
      <point x="964.362" y="1098.005"/>
      <point x="825.293" y="1077.996"/>
      <point x="711.204" y="1041.985" type="curve"/>
      <point x="709.202" y="728.322" type="line"/>
      <point x="801.165" y="761.306"/>
      <point x="916.199" y="780.323"/>
      <point x="1006.224" y="780.323" type="curve" smooth="yes"/>
      <point x="1173.181" y="780.323"/>
      <point x="1224.025" y="736.355"/>
      <point x="1224.025" y="623.646" type="curve" smooth="yes"/>
      <point x="1224.025" y="296.215" type="line"/>
      <point x="1196.205" y="278.479"/>
      <point x="1143.372" y="270.593"/>
      <point x="1116.639" y="270.593" type="curve" smooth="yes"/>
      <point x="1061.946" y="270.593"/>
      <point x="1014.02" y="294.436"/>
      <point x="1014.02" y="354.217" type="curve" smooth="yes"/>
      <point x="1014.02" y="418.026"/>
      <point x="1053.902" y="446.898"/>
      <point x="1136.606" y="451.847" type="curve" smooth="yes"/>
      <point x="1329.229" y="462.76" type="line"/>
      <point x="1281.094" y="679.169" type="line"/>
      <point x="1092.493" y="668.257" type="line" smooth="yes"/>
      <point x="742.177" y="647.281"/>
      <point x="597.056" y="525.213"/>
      <point x="597.056" y="309.114" type="curve" smooth="yes"/>
      <point x="597.056" y="113.072"/>
      <point x="732.092" y="-22.016"/>
      <point x="969.246" y="-22.016" type="curve" smooth="yes"/>
      <point x="1087.202" y="-22.016"/>
      <point x="1199.165" y="13.926"/>
      <point x="1238.059" y="132.011" type="curve"/>
      <point x="1259.094" y="132.011" type="line"/>
      <point x="1333.241" y="25.959"/>
      <point x="1454.401" y="-22.016"/>
      <point x="1621.551" y="-22.016" type="curve" smooth="yes"/>
      <point x="1930.945" y="-22.016"/>
      <point x="2140.127" y="139.976"/>
      <point x="2140.127" y="588.02" type="curve" smooth="yes"/>
      <point x="2140.127" y="1194.02"/>
      <point x="1772.871" y="1498"/>
      <point x="1113.502" y="1498" type="curve" smooth="yes"/>
      <point x="455.107" y="1498"/>
      <point x="68.863" y="1194.036"/>
      <point x="68.863" y="520" type="curve" smooth="yes"/>
      <point x="68.863" y="-154.022"/>
      <point x="455.101" y="-460.004"/>
    </contour>
  </outline>
</glyph>
<glyph name="A" format="2">
  <advance width="1530.74325"/>
  <unicode hex="0041"/>
  <note>
520
</note>
  <anchor x="765" y="0" name="bottom"/>
  <anchor x="1527" y="0" name="ogonek"/>
  <anchor x="764" y="1520" name="top"/>
  <outline>
    <contour>
      <point x="3.913" y="0" type="line"/>
      <point x="424.887" y="0" type="line"/>
      <point x="781.387" y="1294.6" type="line"/>
      <point x="743.348" y="1294.6" type="line"/>
      <point x="1101.851" y="0" type="line"/>
      <point x="1526.83" y="0" type="line"/>
      <point x="1085.138" y="1480" type="line"/>
      <point x="445.605" y="1480" type="line"/>
    </contour>
    <contour>
      <point x="373.349" y="338.49" type="line"/>
      <point x="1154.385" y="338.49" type="line"/>
      <point x="1064.175" y="679.233" type="line"/>
      <point x="464.562" y="679.233" type="line"/>
    </contour>
  </outline>
</glyph>
<glyph name="B" format="2">
  <advance width="1382.45977"/>
  <unicode hex="0042"/>
  <anchor x="705" y="0" name="bottom"/>
  <anchor x="705" y="1480" name="top"/>
  <outline>
    <contour>
      <point x="561.076" y="-20.027" type="curve" smooth="yes"/>
      <point x="1136.495" y="-20.027"/>
      <point x="1342.569" y="143.05"/>
      <point x="1342.569" y="424.078" type="curve" smooth="yes"/>
      <point x="1342.569" y="634.1"/>
      <point x="1217.52" y="739.992"/>
      <point x="1057.794" y="767.993" type="curve"/>
      <point x="1057.805" y="756.003" type="line"/>
      <point x="1200.541" y="790.004"/>
      <point x="1302.581" y="914.959"/>
      <point x="1302.581" y="1075.907" type="curve" smooth="yes"/>
      <point x="1302.581" y="1358.961"/>
      <point x="1099.47" y="1500.016"/>
      <point x="629.189" y="1500.016" type="curve" smooth="yes"/>
      <point x="463.15" y="1500.016"/>
      <point x="255.848" y="1474.975"/>
      <point x="108.778" y="1440.946" type="curve"/>
      <point x="108.778" y="13" type="line"/>
      <point x="238.766" y="-6.004"/>
      <point x="435.062" y="-20.027"/>
    </contour>
    <contour>
      <point x="683.408" y="290.636" type="curve" smooth="yes"/>
      <point x="636.585" y="290.636"/>
      <point x="592.696" y="291.624"/>
      <point x="532.775" y="296.602" type="curve"/>
      <point x="532.775" y="1174.377" type="line"/>
      <point x="582.671" y="1183.359"/>
      <point x="635.573" y="1189.354"/>
      <point x="689.34" y="1189.354" type="curve" smooth="yes"/>
      <point x="843.86" y="1189.354"/>
      <point x="896.638" y="1146.481"/>
      <point x="896.638" y="1051.848" type="curve" smooth="yes"/>
      <point x="896.638" y="959.185"/>
      <point x="845.855" y="914.325"/>
      <point x="692.24" y="914.325" type="curve" smooth="yes"/>
      <point x="490.693" y="914.325" type="line"/>
      <point x="490.693" y="594.642" type="line"/>
      <point x="725.281" y="594.642" type="line" smooth="yes"/>
      <point x="885.902" y="594.642"/>
      <point x="943.658" y="548.793"/>
      <point x="943.658" y="443.118" type="curve" smooth="yes"/>
      <point x="943.658" y="339.466"/>
      <point x="883.854" y="290.636"/>
    </contour>
  </outline>
</glyph>
<glyph name="C" format="2">
  <advance width="1295.54444"/>
  <unicode hex="0043"/>
  <anchor x="784" y="0" name="bottom"/>
  <anchor x="784" y="1520" name="top"/>
  <outline>
    <contour>
      <point x="909.535" y="-20.005" type="curve" smooth="yes"/>
      <point x="1025.498" y="-20.005"/>
      <point x="1150.531" y="-3.016"/>
      <point x="1242.498" y="23.942" type="curve"/>
      <point x="1242.498" y="376.729" type="line"/>
      <point x="1148.604" y="352.797"/>
      <point x="1048.595" y="335.796"/>
      <point x="953.632" y="335.796" type="curve" smooth="yes"/>
      <point x="653.689" y="335.796"/>
      <point x="523.936" y="453.693"/>
      <point x="523.936" y="739.995" type="curve" smooth="yes"/>
      <point x="523.936" y="1021.354"/>
      <point x="657.723" y="1144.204"/>
      <point x="963.638" y="1144.204" type="curve" smooth="yes"/>
      <point x="1063.606" y="1144.204"/>
      <point x="1155.558" y="1133.221"/>
      <point x="1242.498" y="1116.269" type="curve"/>
      <point x="1242.498" y="1469.056" type="line"/>
      <point x="1143.515" y="1490.024"/>
      <point x="1036.5" y="1500.005"/>
      <point x="925.525" y="1500.005" type="curve" smooth="yes"/>
      <point x="372.017" y="1500.005"/>
      <point x="68.863" y="1227.828"/>
      <point x="68.863" y="735.995" type="curve" smooth="yes"/>
      <point x="68.863" y="220.153"/>
      <point x="362.965" y="-20.005"/>
    </contour>
  </outline>
</glyph>
<glyph name="D" format="2">
  <advance width="1566.65323"/>
  <unicode hex="0044"/>
  <anchor x="716" y="0" name="bottom"/>
  <anchor x="769" y="740" name="center"/>
  <anchor x="109" y="762" name="stroke"/>
  <anchor x="696" y="1520" name="top"/>
  <outline>
    <contour>
      <point x="552.1" y="-17.015" type="curve" smooth="yes"/>
      <point x="1188.593" y="-17.015"/>
      <point x="1497.79" y="204.926"/>
      <point x="1497.79" y="740" type="curve" smooth="yes"/>
      <point x="1497.79" y="1261.036"/>
      <point x="1204.626" y="1497.004"/>
      <point x="633.302" y="1497.004" type="curve" smooth="yes"/>
      <point x="455.106" y="1497.004"/>
      <point x="257.868" y="1474.975"/>
      <point x="108.778" y="1440.944" type="curve"/>
      <point x="108.778" y="7.995" type="line"/>
      <point x="248.801" y="-9.008"/>
      <point x="421.058" y="-17.015"/>
    </contour>
    <contour>
      <point x="671.425" y="331.764" type="curve" smooth="yes"/>
      <point x="631.614" y="331.764"/>
      <point x="589.716" y="331.747"/>
      <point x="543.806" y="334.723" type="curve"/>
      <point x="543.806" y="1138.262" type="line"/>
      <point x="577.628" y="1145.24"/>
      <point x="631.533" y="1150.231"/>
      <point x="668.394" y="1150.231" type="curve" smooth="yes"/>
      <point x="918.962" y="1150.231"/>
      <point x="1052.749" y="1043.509"/>
      <point x="1052.749" y="742.008" type="curve" smooth="yes"/>
      <point x="1052.749" y="437.499"/>
      <point x="928" y="331.764"/>
    </contour>
  </outline>
</glyph>
<glyph name="E" format="2">
  <advance width="1313.54751"/>
  <unicode hex="0045"/>
  <anchor x="692" y="0" name="bottom"/>
  <anchor x="1242" y="0" name="ogonek"/>
  <anchor x="692" y="1520" name="top"/>
  <anchor x="38" y="1480" name="topleft"/>
  <outline>
    <contour>
      <point x="108.778" y="0" type="line"/>
      <point x="1241.574" y="0" type="line"/>
      <point x="1241.574" y="342.745" type="line"/>
      <point x="537.79" y="342.745" type="line"/>
      <point x="537.79" y="1137.255" type="line"/>
      <point x="1231.574" y="1137.255" type="line"/>
      <point x="1231.574" y="1480" type="line"/>
      <point x="108.778" y="1480" type="line"/>
    </contour>
    <contour>
      <point x="362.3" y="583.611" type="line"/>
      <point x="1126.552" y="583.611" type="line"/>
      <point x="1126.552" y="926.357" type="line"/>
      <point x="362.3" y="926.357" type="line"/>
    </contour>
  </outline>
</glyph>
<glyph name="F" format="2">
  <advance width="1272.57529"/>
  <unicode hex="0046"/>
  <outline>
    <contour>
      <point x="108.778" y="0" type="line"/>
      <point x="543.806" y="0" type="line"/>
      <point x="543.806" y="1130.232" type="line"/>
      <point x="1231.601" y="1130.232" type="line"/>
      <point x="1231.601" y="1480" type="line"/>
      <point x="108.778" y="1480" type="line"/>
    </contour>
    <contour>
      <point x="378.323" y="531.47" type="line"/>
      <point x="1126.571" y="531.47" type="line"/>
      <point x="1126.571" y="881.238" type="line"/>
      <point x="378.323" y="881.238" type="line"/>
    </contour>
  </outline>
</glyph>
<glyph name="G" format="2">
  <advance width="1479.4791"/>
  <unicode hex="0047"/>
  <anchor x="845" y="0" name="bottom"/>
  <anchor x="845" y="1520" name="top"/>
  <outline>
    <contour>
      <point x="973.424" y="-20.027" type="curve" smooth="yes"/>
      <point x="1102.499" y="-20.027"/>
      <point x="1238.632" y="-6.003"/>
      <point x="1368.636" y="14.997" type="curve"/>
      <point x="1368.636" y="720" type="line"/>
      <point x="965.696" y="720" type="line"/>
      <point x="965.696" y="189.333" type="line"/>
      <point x="1154.226" y="347.743" type="line"/>
      <point x="1091.251" y="338.76"/>
      <point x="1008.238" y="332.765"/>
      <point x="937.338" y="332.765" type="curve" smooth="yes"/>
      <point x="656.689" y="332.765"/>
      <point x="521.928" y="458.569"/>
      <point x="521.928" y="728.962" type="curve" smooth="yes"/>
      <point x="521.928" y="1020.349"/>
      <point x="660.62" y="1144.204"/>
      <point x="1026.706" y="1144.204" type="curve" smooth="yes"/>
      <point x="1129.718" y="1144.204"/>
      <point x="1226.711" y="1132.205"/>
      <point x="1320.586" y="1113.265" type="curve"/>
      <point x="1320.586" y="1466.051" type="line"/>
      <point x="1215.624" y="1489.022"/>
      <point x="1102.588" y="1500.005"/>
      <point x="985.607" y="1500.005" type="curve" smooth="yes"/>
      <point x="376.931" y="1500.005"/>
      <point x="68.863" y="1227.821"/>
      <point x="68.863" y="735.99" type="curve" smooth="yes"/>
      <point x="68.863" y="230.034"/>
      <point x="365.996" y="-20.027"/>
    </contour>
  </outline>
</glyph>
<glyph name="H" format="2">
  <advance width="1580.53015"/>
  <unicode hex="0048"/>
  <anchor x="791" y="0" name="bottom"/>
  <anchor x="791" y="1211" name="center"/>
  <anchor x="791" y="1520" name="top"/>
  <anchor x="35.99" y="1480" name="topleft"/>
  <outline>
    <contour>
      <point x="108.778" y="0" type="line"/>
      <point x="543.806" y="0" type="line"/>
      <point x="543.806" y="564.552" type="line"/>
      <point x="1036.724" y="564.552" type="line"/>
      <point x="1036.724" y="0" type="line"/>
      <point x="1471.752" y="0" type="line"/>
      <point x="1471.752" y="1480" type="line"/>
      <point x="1036.724" y="1480" type="line"/>
      <point x="1036.724" y="945.416" type="line"/>
      <point x="543.806" y="945.416" type="line"/>
      <point x="543.806" y="1480" type="line"/>
      <point x="108.778" y="1480" type="line"/>
    </contour>
  </outline>
</glyph>
<glyph name="I" format="2">
  <advance width="652.58369"/>
  <unicode hex="0049"/>
  <anchor x="325" y="0" name="bottom"/>
  <anchor x="544" y="0" name="ogonek"/>
  <anchor x="326" y="1520" name="top"/>
  <outline>
    <contour>
      <point x="108.778" y="0" type="line"/>
      <point x="543.806" y="0" type="line"/>
      <point x="543.806" y="1480" type="line"/>
      <point x="108.778" y="1480" type="line"/>
    </contour>
  </outline>
</glyph>
<glyph name="J" format="2">
  <advance width="652.58369"/>
  <unicode hex="004A"/>
  <anchor x="544" y="0" name="bottom"/>
  <anchor x="327" y="1520" name="top"/>
  <outline>
    <contour>
      <point x="243.561" y="-354.042" type="line"/>
      <point x="467.778" y="-135.981"/>
      <point x="543.806" y="70.153"/>
      <point x="543.806" y="320.18" type="curve" smooth="yes"/>
      <point x="543.806" y="1480" type="line"/>
      <point x="110.786" y="1480" type="line"/>
      <point x="110.786" y="304.045" type="line" smooth="yes"/>
      <point x="110.786" y="98.177"/>
      <point x="77.863" y="-27.75"/>
      <point x="-31.062" y="-171.634" type="curve"/>
    </contour>
  </outline>
</glyph>
<glyph name="K" format="2">
  <advance width="1392.57049"/>
  <unicode hex="004B"/>
  <anchor x="731" y="0" name="bottom"/>
  <anchor x="722" y="1480" name="top"/>
  <outline>
    <contour>
      <point x="985.655" y="0" type="line"/>
      <point x="1453.73" y="0" type="line"/>
      <point x="944.025" y="814.104" type="line"/>
      <point x="935.999" y="703.875" type="line"/>
      <point x="1410.719" y="1480" type="line"/>
      <point x="957.682" y="1480" type="line"/>
      <point x="513.02" y="751.987" type="line"/>
    </contour>
    <contour>
      <point x="108.778" y="0" type="line"/>
      <point x="543.806" y="0" type="line"/>
      <point x="543.806" y="1480" type="line"/>
      <point x="108.778" y="1480" type="line"/>
    </contour>
    <contour>
      <point x="485.686" y="564.552" type="line"/>
      <point x="677.37" y="564.552" type="line"/>
      <point x="677.37" y="945.417" type="line"/>
      <point x="485.686" y="945.417" type="line"/>
    </contour>
  </outline>
</glyph>
<glyph name="L" format="2">
  <advance width="1199.4909"/>
  <unicode hex="004C"/>
  <anchor x="650" y="0" name="bottom"/>
  <anchor x="796" y="1616" name="caronalt"/>
  <anchor x="918" y="912" name="periodcentered"/>
  <anchor x="330" y="854" name="slash"/>
  <anchor x="330" y="1520" name="top"/>
  <outline>
    <contour>
      <point x="108.778" y="0" type="line"/>
      <point x="1191.511" y="0" type="line"/>
      <point x="1191.511" y="357.789" type="line"/>
      <point x="543.806" y="357.789" type="line"/>
      <point x="543.806" y="1480" type="line"/>
      <point x="108.778" y="1480" type="line"/>
    </contour>
  </outline>
</glyph>
<glyph name="M" format="2">
  <advance width="1956.75864"/>
  <unicode hex="004D"/>
  <anchor x="1007" y="0" name="bottom"/>
  <anchor x="1007" y="1480" name="top"/>
  <outline>
    <contour>
      <point x="112.778" y="0" type="line"/>
      <point x="517.729" y="0" type="line"/>
      <point x="517.729" y="1099.137" type="line"/>
      <point x="422.555" y="1099.137" type="line"/>
      <point x="803.989" y="220.053" type="line"/>
      <point x="1152.769" y="220.053" type="line"/>
      <point x="1515.152" y="1099.137" type="line"/>
      <point x="1439.03" y="1099.137" type="line"/>
      <point x="1439.03" y="0" type="line"/>
      <point x="1843.981" y="0" type="line"/>
      <point x="1843.981" y="1480" type="line"/>
      <point x="1311.706" y="1480" type="line"/>
      <point x="964.372" y="617.02" type="line"/>
      <point x="1006.414" y="617.02" type="line"/>
      <point x="645.053" y="1480" type="line"/>
      <point x="112.778" y="1480" type="line"/>
    </contour>
  </outline>
</glyph>
<glyph name="N" format="2">
  <advance width="1592.48109"/>
  <unicode hex="004E"/>
  <anchor x="796" y="0" name="bottom"/>
  <anchor x="796" y="1520" name="top"/>
  <outline>
    <contour>
      <point x="108.778" y="0" type="line"/>
      <point x="516.738" y="0" type="line"/>
      <point x="516.738" y="930.703" type="line"/>
      <point x="450.633" y="930.703" type="line"/>
      <point x="1049.694" y="0" type="line"/>
      <point x="1483.703" y="0" type="line"/>
      <point x="1483.703" y="1480" type="line"/>
      <point x="1075.743" y="1480" type="line"/>
      <point x="1075.743" y="549.297" type="line"/>
      <point x="1141.848" y="549.297" type="line"/>
      <point x="542.787" y="1480" type="line"/>
      <point x="108.778" y="1480" type="line"/>
    </contour>
  </outline>
</glyph>
<glyph name="O" format="2">
  <advance width="1644.7906"/>
  <unicode hex="004F"/>
  <anchor x="822" y="0" name="bottom"/>
  <anchor x="822" y="740" name="center"/>
  <anchor x="997" y="0" name="ogonek"/>
  <anchor x="822" y="1520" name="top"/>
  <anchor x="51" y="1480" name="topleft"/>
  <anchor x="1030" y="1480" name="topright"/>
  <outline>
    <contour>
      <point x="822.395" y="-20.005" type="curve" smooth="yes"/>
      <point x="1279.764" y="-20.005"/>
      <point x="1575.927" y="239.145"/>
      <point x="1575.927" y="740" type="curve" smooth="yes"/>
      <point x="1575.927" y="1240.855"/>
      <point x="1280.756" y="1500.005"/>
      <point x="822.395" y="1500.005" type="curve" smooth="yes"/>
      <point x="364.022" y="1500.005"/>
      <point x="68.863" y="1242.863"/>
      <point x="68.863" y="740" type="curve" smooth="yes"/>
      <point x="68.863" y="237.137"/>
      <point x="365.038" y="-20.005"/>
    </contour>
    <contour>
      <point x="822.395" y="326.764" type="curve" smooth="yes"/>
      <point x="622.646" y="326.764"/>
      <point x="513.904" y="447.613"/>
      <point x="513.904" y="748.011" type="curve" smooth="yes"/>
      <point x="513.904" y="1032.387"/>
      <point x="625.657" y="1153.236"/>
      <point x="822.395" y="1153.236" type="curve" smooth="yes"/>
      <point x="1019.133" y="1153.236"/>
      <point x="1130.886" y="1029.375"/>
      <point x="1130.886" y="731.989" type="curve" smooth="yes"/>
      <point x="1130.886" y="450.625"/>
      <point x="1022.145" y="326.764"/>
    </contour>
  </outline>
</glyph>
<glyph name="P" format="2">
  <advance width="1373.53491"/>
  <unicode hex="0050"/>
  <outline>
    <contour>
      <point x="108.778" y="0" type="line"/>
      <point x="543.806" y="0" type="line"/>
      <point x="543.806" y="394.135" type="line"/>
      <point x="579.165" y="391.651"/>
      <point x="612.581" y="390.658"/>
      <point x="652.458" y="390.658" type="curve" smooth="yes"/>
      <point x="1079.477" y="390.658"/>
      <point x="1311.622" y="578.689"/>
      <point x="1311.622" y="944.83" type="curve" smooth="yes"/>
      <point x="1311.622" y="1329.962"/>
      <point x="1076.513" y="1500.016"/>
      <point x="603.186" y="1500.016" type="curve" smooth="yes"/>
      <point x="421.023" y="1500.016"/>
      <point x="258.86" y="1479.995"/>
      <point x="108.778" y="1449.98" type="curve"/>
    </contour>
    <contour>
      <point x="656.464" y="711.342" type="curve" smooth="yes"/>
      <point x="612.59" y="711.342"/>
      <point x="581.706" y="713.334"/>
      <point x="543.806" y="718.32" type="curve"/>
      <point x="543.806" y="1171.377" type="line"/>
      <point x="575.661" y="1177.35"/>
      <point x="603.493" y="1179.332"/>
      <point x="645.302" y="1179.332" type="curve" smooth="yes"/>
      <point x="814.885" y="1179.332"/>
      <point x="891.649" y="1109.489"/>
      <point x="891.649" y="942.834" type="curve" smooth="yes"/>
      <point x="891.649" y="771.119"/>
      <point x="814.856" y="711.342"/>
    </contour>
  </outline>
</glyph>
<glyph name="Q" format="2">
  <advance width="1644.7906"/>
  <unicode hex="0051"/>
  <outline>
    <contour>
      <point x="1487.808" y="-374.542" type="curve"/>
      <point x="1559.973" y="-39.808" type="line"/>
      <point x="1320.852" y="-8.761"/>
      <point x="1097.896" y="41.279"/>
      <point x="841.66" y="135.331" type="curve"/>
      <point x="696.258" y="31.1" type="line"/>
      <point x="758.845" y="22.586"/>
      <point x="818.426" y="18.581"/>
      <point x="875" y="18.581" type="curve" smooth="yes"/>
      <point x="1343.338" y="18.581"/>
      <point x="1575.927" y="301.187"/>
      <point x="1575.927" y="740" type="curve" smooth="yes"/>
      <point x="1575.927" y="1240.831"/>
      <point x="1280.768" y="1500.005"/>
      <point x="822.395" y="1500.005" type="curve" smooth="yes"/>
      <point x="364.022" y="1500.005"/>
      <point x="68.863" y="1242.863"/>
      <point x="68.863" y="729.961" type="curve" smooth="yes"/>
      <point x="68.863" y="204.206"/>
      <point x="382.013" y="-192.271"/>
    </contour>
    <contour>
      <point x="822.395" y="326.764" type="curve" smooth="yes"/>
      <point x="620.638" y="326.764"/>
      <point x="513.904" y="445.605"/>
      <point x="513.904" y="748.011" type="curve" smooth="yes"/>
      <point x="513.904" y="1032.387"/>
      <point x="625.657" y="1153.236"/>
      <point x="822.395" y="1153.236" type="curve" smooth="yes"/>
      <point x="1019.133" y="1153.236"/>
      <point x="1130.886" y="1029.375"/>
      <point x="1130.886" y="731.989" type="curve" smooth="yes"/>
      <point x="1130.886" y="450.625"/>
      <point x="1022.145" y="326.764"/>
    </contour>
  </outline>
</glyph>
<glyph name="R" format="2">
  <advance width="1425.43481"/>
  <unicode hex="0052"/>
  <anchor x="750" y="0" name="bottom"/>
  <anchor x="709" y="1520" name="top"/>
  <outline>
    <contour>
      <point x="108.778" y="0" type="line"/>
      <point x="535.782" y="0" type="line"/>
      <point x="535.782" y="500.063" type="line"/>
      <point x="577.671" y="498.076"/>
      <point x="615.599" y="496.585"/>
      <point x="659.435" y="496.585" type="curve" smooth="yes"/>
      <point x="1044.4" y="496.585"/>
      <point x="1300.574" y="668.663"/>
      <point x="1300.574" y="998.792" type="curve" smooth="yes"/>
      <point x="1300.574" y="1340.932"/>
      <point x="1066.397" y="1500.016"/>
      <point x="617.197" y="1500.016" type="curve" smooth="yes"/>
      <point x="447.169" y="1500.016"/>
      <point x="255.9" y="1474.987"/>
      <point x="108.778" y="1440.944" type="curve"/>
    </contour>
    <contour>
      <point x="958.581" y="0" type="line"/>
      <point x="1428.662" y="0" type="line"/>
      <point x="973.923" y="675.927" type="line"/>
      <point x="513.86" y="675.927" type="line"/>
    </contour>
    <contour>
      <point x="669.474" y="814.269" type="curve" smooth="yes"/>
      <point x="622.644" y="814.269"/>
      <point x="578.646" y="817.269"/>
      <point x="535.782" y="822.261" type="curve"/>
      <point x="535.782" y="1174.381" type="line"/>
      <point x="573.641" y="1181.357"/>
      <point x="619.564" y="1186.344"/>
      <point x="667.331" y="1186.344" type="curve" smooth="yes"/>
      <point x="814.808" y="1186.344"/>
      <point x="894.632" y="1127.444"/>
      <point x="894.632" y="998.8" type="curve" smooth="yes"/>
      <point x="894.632" y="863.081"/>
      <point x="814.837" y="814.269"/>
    </contour>
  </outline>
</glyph>
<glyph name="S" format="2">
  <advance width="1214.56854"/>
  <unicode hex="0053"/>
  <anchor x="620" y="0" name="bottom"/>
  <anchor x="620" y="1520" name="top"/>
  <outline>
    <contour>
      <point x="531.262" y="-20.005" type="curve" smooth="yes"/>
      <point x="932.495" y="-20.005"/>
      <point x="1172.677" y="166.113"/>
      <point x="1172.677" y="461.217" type="curve" smooth="yes"/>
      <point x="1172.677" y="697.285"/>
      <point x="1035.648" y="836.354"/>
      <point x="739.535" y="908.372" type="curve" smooth="yes"/>
      <point x="607.346" y="942.415" type="line" smooth="yes"/>
      <point x="496.71" y="972.334"/>
      <point x="472.891" y="997.165"/>
      <point x="472.891" y="1044.81" type="curve" smooth="yes"/>
      <point x="472.891" y="1104.42"/>
      <point x="527.665" y="1154.241"/>
      <point x="745.521" y="1154.241" type="curve" smooth="yes"/>
      <point x="867.574" y="1154.241"/>
      <point x="998.661" y="1136.23"/>
      <point x="1088.61" y="1109.249" type="curve"/>
      <point x="1088.61" y="1457.018" type="line"/>
      <point x="993.615" y="1481.999"/>
      <point x="864.569" y="1500.005"/>
      <point x="717.453" y="1500.005" type="curve" smooth="yes"/>
      <point x="264.067" y="1500.005"/>
      <point x="41.892" y="1322.942"/>
      <point x="41.892" y="1021.768" type="curve" smooth="yes"/>
      <point x="41.892" y="785.691"/>
      <point x="180.921" y="645.637"/>
      <point x="447.016" y="580.623" type="curve" smooth="yes"/>
      <point x="579.205" y="546.58" type="line" smooth="yes"/>
      <point x="712.884" y="511.655"/>
      <point x="741.678" y="483.801"/>
      <point x="741.678" y="431.151" type="curve" smooth="yes"/>
      <point x="741.678" y="368.567"/>
      <point x="693.947" y="325.759"/>
      <point x="528.254" y="325.759" type="curve" smooth="yes"/>
      <point x="389.161" y="325.759"/>
      <point x="210.958" y="352.786"/>
      <point x="85.961" y="393.784" type="curve"/>
      <point x="85.961" y="46.015" type="line"/>
      <point x="210.999" y="5.015"/>
      <point x="370.079" y="-20.005"/>
    </contour>
  </outline>
</glyph>
<glyph name="T" format="2">
  <advance width="1359.70957"/>
  <unicode hex="0054"/>
  <anchor x="680" y="0" name="bottom"/>
  <anchor x="680" y="700" name="center"/>
  <anchor x="680" y="1520" name="top"/>
  <outline>
    <contour>
      <point x="461.84" y="0" type="line"/>
      <point x="897.869" y="0" type="line"/>
      <point x="897.869" y="1122.211" type="line"/>
      <point x="1346.708" y="1122.211" type="line"/>
      <point x="1346.708" y="1480" type="line"/>
      <point x="13.001" y="1480" type="line"/>
      <point x="13.001" y="1122.211" type="line"/>
      <point x="461.84" y="1122.211" type="line"/>
    </contour>
  </outline>
</glyph>
<glyph name="U" format="2">
  <advance width="1547.51025"/>
  <unicode hex="0055"/>
  <anchor x="778" y="0" name="bottom"/>
  <anchor x="1034" y="0" name="ogonek"/>
  <anchor x="778" y="1520" name="top"/>
  <anchor x="1052" y="1480" name="topright"/>
  <outline>
    <contour>
      <point x="778.264" y="-20.005" type="curve" smooth="yes"/>
      <point x="1239.613" y="-20.005"/>
      <point x="1444.727" y="202.189"/>
      <point x="1444.727" y="649.33" type="curve" smooth="yes"/>
      <point x="1444.727" y="1480" type="line"/>
      <point x="1017.715" y="1480" type="line"/>
      <point x="1017.715" y="608.251" type="line" smooth="yes"/>
      <point x="1017.715" y="410.621"/>
      <point x="933.863" y="332.787"/>
      <point x="778.264" y="332.787" type="curve" smooth="yes"/>
      <point x="622.664" y="332.787"/>
      <point x="537.811" y="410.621"/>
      <point x="537.811" y="608.251" type="curve" smooth="yes"/>
      <point x="537.811" y="1480" type="line"/>
      <point x="102.783" y="1480" type="line"/>
      <point x="102.783" y="649.33" type="line" smooth="yes"/>
      <point x="102.783" y="202.189"/>
      <point x="309.892" y="-20.005"/>
    </contour>
  </outline>
</glyph>
<glyph name="V" format="2">
  <advance width="1510.80662"/>
  <unicode hex="0056"/>
  <outline>
    <contour>
      <point x="432.643" y="0" type="line"/>
      <point x="1078.163" y="0" type="line"/>
      <point x="1516.862" y="1480" type="line"/>
      <point x="1094.871" y="1480" type="line"/>
      <point x="719.312" y="173.383" type="line"/>
      <point x="813.543" y="173.383" type="line"/>
      <point x="447.011" y="1480" type="line"/>
      <point x="-6.055" y="1480" type="line"/>
    </contour>
  </outline>
</glyph>
<glyph name="W" format="2">
  <advance width="2389.11754"/>
  <unicode hex="0057"/>
  <anchor x="1195" y="0" name="bottom"/>
  <anchor x="1195" y="1520" name="top"/>
  <outline>
    <contour>
      <point x="386.708" y="0" type="line"/>
      <point x="941.991" y="0" type="line"/>
      <point x="1261.72" y="1217.45" type="line"/>
      <point x="1146.444" y="1217.45" type="line"/>
      <point x="1447.127" y="0" type="line"/>
      <point x="2002.41" y="0" type="line"/>
      <point x="2375.272" y="1480" type="line"/>
      <point x="1965.313" y="1480" type="line"/>
      <point x="1655.607" y="187.453" type="line"/>
      <point x="1754.819" y="187.453" type="line"/>
      <point x="1444.125" y="1480" type="line"/>
      <point x="971.058" y="1480" type="line"/>
      <point x="641.31" y="187.453" type="line"/>
      <point x="751.556" y="187.453" type="line"/>
      <point x="451.872" y="1480" type="line"/>
      <point x="13.85" y="1480" type="line"/>
    </contour>
  </outline>
</glyph>
<glyph name="X" format="2">
  <advance width="1441.58955"/>
  <unicode hex="0058"/>
  <outline>
    <contour>
      <point x="1021.759" y="0" type="line"/>
      <point x="1497.857" y="0" type="line"/>
      <point x="972.885" y="780.088" type="line"/>
      <point x="721.298" y="1091.758" type="line"/>
      <point x="464.932" y="1480" type="line"/>
      <point x="-14.171" y="1480" type="line"/>
      <point x="464.695" y="775.075" type="line"/>
      <point x="716.282" y="466.41" type="line"/>
    </contour>
    <contour>
      <point x="-60.267" y="0" type="line"/>
      <point x="410.809" y="0" type="line"/>
      <point x="716.282" y="466.41" type="line"/>
      <point x="972.885" y="780.088" type="line"/>
      <point x="1442.726" y="1480" type="line"/>
      <point x="976.656" y="1480" type="line"/>
      <point x="721.298" y="1091.758" type="line"/>
      <point x="464.695" y="775.075" type="line"/>
    </contour>
  </outline>
</glyph>
<glyph name="Y" format="2">
  <advance width="1359.70957"/>
  <unicode hex="0059"/>
  <anchor x="679" y="0" name="bottom"/>
  <anchor x="680" y="1520" name="top"/>
  <anchor x="-17" y="1480" name="topleft"/>
  <outline>
    <contour>
      <point x="464.849" y="0" type="line"/>
      <point x="899.877" y="0" type="line"/>
      <point x="899.877" y="773.181" type="line"/>
      <point x="813.691" y="462.5" type="line"/>
      <point x="1412.809" y="1480" type="line"/>
      <point x="989.845" y="1480" type="line"/>
      <point x="634.268" y="871.408" type="line"/>
      <point x="750.499" y="871.408" type="line"/>
      <point x="390.924" y="1480" type="line"/>
      <point x="-66.121" y="1480" type="line"/>
      <point x="551.036" y="462.5" type="line"/>
      <point x="464.849" y="779.197" type="line"/>
    </contour>
  </outline>
</glyph>
<glyph name="Z" format="2">
  <advance width="1297.55706"/>
  <unicode hex="005A"/>
  <anchor x="646" y="0" name="bottom"/>
  <anchor x="650" y="1520" name="top"/>
  <outline>
    <contour>
      <point x="58.011" y="0" type="line"/>
      <point x="1239.546" y="0" type="line"/>
      <point x="1239.546" y="357.794" type="line"/>
      <point x="566.23" y="357.794" type="line"/>
      <point x="566.195" y="280.641" type="line"/>
      <point x="1229.554" y="1242.454" type="line"/>
      <point x="1229.554" y="1480" type="line"/>
      <point x="68.003" y="1480" type="line"/>
      <point x="68.003" y="1122.206" type="line"/>
      <point x="721.335" y="1122.206" type="line"/>
      <point x="721.37" y="1199.359" type="line"/>
      <point x="58.011" y="237.546" type="line"/>
    </contour>
  </outline>
</glyph>
<glyph name="bracketleft" format="2">
  <advance width="754.34089"/>
  <unicode hex="005B"/>
  <outline>
    <contour>
      <point x="128.778" y="-440" type="line"/>
      <point x="770.259" y="-440" type="line"/>
      <point x="770.259" y="-109.254" type="line"/>
      <point x="554.778" y="-109.254" type="line"/>
      <point x="554.778" y="1285.254" type="line"/>
      <point x="780.299" y="1285.254" type="line"/>
      <point x="780.299" y="1616" type="line"/>
      <point x="128.778" y="1616" type="line"/>
    </contour>
  </outline>
</glyph>
<glyph name="backslash" format="2">
  <advance width="904.08299"/>
  <unicode hex="005C"/>
  <outline>
    <contour>
      <point x="485.1" y="-240" type="line"/>
      <point x="904.083" y="-240" type="line"/>
      <point x="418.983" y="1616" type="line"/>
      <point x="0" y="1616" type="line"/>
    </contour>
  </outline>
</glyph>
<glyph name="bracketright" format="2">
  <advance width="754.34089"/>
  <unicode hex="005D"/>
  <outline>
    <contour>
      <point x="-15.918" y="-440" type="line"/>
      <point x="625.563" y="-440" type="line"/>
      <point x="625.563" y="1616" type="line"/>
      <point x="-25.958" y="1616" type="line"/>
      <point x="-25.958" y="1285.254" type="line"/>
      <point x="199.563" y="1285.254" type="line"/>
      <point x="199.563" y="-109.254" type="line"/>
      <point x="-15.918" y="-109.254" type="line"/>
    </contour>
  </outline>
</glyph>
<glyph name="asciicircum" format="2">
  <advance width="1320.61115"/>
  <unicode hex="005E"/>
  <outline>
    <contour>
      <point x="43.801" y="740" type="line"/>
      <point x="452.742" y="740" type="line"/>
      <point x="751.561" y="1276.588" type="line"/>
      <point x="569.05" y="1276.588" type="line"/>
      <point x="867.87" y="740" type="line"/>
      <point x="1276.81" y="740" type="line"/>
      <point x="855.749" y="1480" type="line"/>
      <point x="464.867" y="1480" type="line"/>
    </contour>
  </outline>
</glyph>
<glyph name="underscore" format="2">
  <advance width="1268.55986"/>
  <unicode hex="005F"/>
  <outline>
    <contour>
      <point x="84.973" y="-331.75" type="line"/>
      <point x="1183.586" y="-331.75" type="line"/>
      <point x="1183.586" y="-1.004" type="line"/>
      <point x="84.973" y="-1.004" type="line"/>
    </contour>
  </outline>
</glyph>
<glyph name="a" format="2">
  <advance width="1176.57642"/>
  <unicode hex="0061"/>
  <anchor x="585" y="0" name="bottom"/>
  <anchor x="1086" y="0" name="ogonek"/>
  <anchor x="585" y="1200" name="top"/>
  <outline>
    <contour>
      <point x="416.004" y="-22.016" type="curve" smooth="yes"/>
      <point x="528.945" y="-22.016"/>
      <point x="627.874" y="11.918"/>
      <point x="689.852" y="100.907" type="curve"/>
      <point x="707.881" y="100.907" type="line"/>
      <point x="736.943" y="0" type="line"/>
      <point x="1085.756" y="0" type="line"/>
      <point x="1085.756" y="609.602" type="line" smooth="yes"/>
      <point x="1085.756" y="989.934"/>
      <point x="921.671" y="1118.059"/>
      <point x="524.185" y="1118.059" type="curve" smooth="yes"/>
      <point x="408.138" y="1118.059"/>
      <point x="262.041" y="1103.064"/>
      <point x="143.939" y="1073.067" type="curve"/>
      <point x="143.939" y="759.403" type="line"/>
      <point x="239.915" y="786.374"/>
      <point x="356.957" y="800.376"/>
      <point x="442.963" y="800.376" type="curve" smooth="yes"/>
      <point x="619.939" y="800.376"/>
      <point x="670.784" y="756.408"/>
      <point x="670.784" y="638.696" type="curve" smooth="yes"/>
      <point x="670.784" y="292.204" type="line"/>
      <point x="636.939" y="272.461"/>
      <point x="597.158" y="266.583"/>
      <point x="563.398" y="266.583" type="curve" smooth="yes"/>
      <point x="497.661" y="266.583"/>
      <point x="460.778" y="297.453"/>
      <point x="460.778" y="350.206" type="curve" smooth="yes"/>
      <point x="460.778" y="406.988"/>
      <point x="497.652" y="441.882"/>
      <point x="586.341" y="446.829" type="curve" smooth="yes"/>
      <point x="775.976" y="456.745" type="line"/>
      <point x="727.852" y="680.175" type="line"/>
      <point x="539.212" y="670.258" type="line" smooth="yes"/>
      <point x="188.936" y="651.292"/>
      <point x="43.814" y="525.213"/>
      <point x="43.814" y="309.114" type="curve" smooth="yes"/>
      <point x="43.814" y="116.085"/>
      <point x="178.854" y="-22.016"/>
    </contour>
  </outline>
</glyph>
<glyph name="b" format="2">
  <advance width="1297.64733"/>
  <unicode hex="0062"/>
  <anchor x="654" y="0" name="bottom"/>
  <anchor x="310" y="1616" name="top"/>
  <outline>
    <contour>
      <point x="577.347" y="-21.009" type="curve" smooth="yes"/>
      <point x="1031.68" y="-22.011"/>
      <point x="1244.803" y="192.068"/>
      <point x="1244.803" y="573.043" type="curve" smooth="yes"/>
      <point x="1244.803" y="943.965"/>
      <point x="1044.745" y="1118.059"/>
      <point x="813.729" y="1118.059" type="curve" smooth="yes"/>
      <point x="695.777" y="1118.059"/>
      <point x="603.821" y="1076.102"/>
      <point x="541.833" y="997.113" type="curve"/>
      <point x="522.797" y="997.113" type="line"/>
      <point x="522.797" y="1616" type="line"/>
      <point x="96.797" y="1616" type="line"/>
      <point x="96.797" y="48.059" type="line"/>
      <point x="240.951" y="0.004"/>
      <point x="418.176" y="-21.009"/>
    </contour>
    <contour>
      <point x="614.436" y="295.687" type="curve" smooth="yes"/>
      <point x="580.58" y="295.687"/>
      <point x="548.709" y="299.662"/>
      <point x="522.797" y="305.629" type="curve"/>
      <point x="522.797" y="748.645" type="line"/>
      <point x="557.687" y="765.399"/>
      <point x="601.493" y="773.293"/>
      <point x="642.285" y="773.293" type="curve" smooth="yes"/>
      <point x="753.051" y="773.293"/>
      <point x="817.819" y="721.448"/>
      <point x="817.819" y="539.978" type="curve" smooth="yes"/>
      <point x="817.819" y="360.467"/>
      <point x="751.043" y="295.687"/>
    </contour>
  </outline>
</glyph>
<glyph name="c" format="2">
  <advance width="1019.57839"/>
  <unicode hex="0063"/>
  <anchor x="577" y="0" name="bottom"/>
  <anchor x="553" y="1200" name="top"/>
  <outline>
    <contour>
      <point x="679.43" y="-22.011" type="curve" smooth="yes"/>
      <point x="785.51" y="-22.011"/>
      <point x="888.558" y="-7.011"/>
      <point x="966.528" y="16.963" type="curve"/>
      <point x="966.528" y="347.683" type="line"/>
      <point x="876.524" y="326.723"/>
      <point x="815.576" y="316.736"/>
      <point x="747.568" y="316.736" type="curve" smooth="yes"/>
      <point x="576.748" y="316.736"/>
      <point x="490.861" y="384.565"/>
      <point x="490.861" y="550.011" type="curve" smooth="yes"/>
      <point x="490.861" y="706.465"/>
      <point x="571.707" y="779.311"/>
      <point x="769.52" y="779.311" type="curve" smooth="yes"/>
      <point x="836.523" y="779.311"/>
      <point x="897.507" y="773.325"/>
      <point x="966.528" y="763.353" type="curve"/>
      <point x="966.528" y="1094.073" type="line"/>
      <point x="888.488" y="1110.063"/>
      <point x="804.462" y="1118.059"/>
      <point x="707.376" y="1118.059" type="curve" smooth="yes"/>
      <point x="293.038" y="1118.059"/>
      <point x="52.845" y="928.967"/>
      <point x="52.845" y="547.017" type="curve" smooth="yes"/>
      <point x="52.845" y="172.081"/>
      <point x="274.032" y="-22.011"/>
    </contour>
  </outline>
</glyph>
<glyph name="d" format="2">
  <advance width="1297.64733"/>
  <unicode hex="0064"/>
  <anchor x="661" y="0" name="bottom"/>
  <anchor x="1291" y="1616" name="caronalt"/>
  <anchor x="645" y="545" name="center"/>
  <anchor x="1201" y="1353" name="stroke"/>
  <anchor x="633" y="1200" name="top"/>
  <anchor x="1255" y="1100" name="topright"/>
  <outline>
    <contour>
      <point x="515.993" y="-20.003" type="curve" smooth="yes"/>
      <point x="644.991" y="-20.003"/>
      <point x="739.955" y="31.983"/>
      <point x="800.946" y="112.959" type="curve"/>
      <point x="818.975" y="112.959" type="line"/>
      <point x="844.024" y="0" type="line"/>
      <point x="1200.851" y="0" type="line"/>
      <point x="1200.851" y="1616" type="line"/>
      <point x="774.851" y="1616" type="line"/>
      <point x="774.851" y="1115.107" type="line"/>
      <point x="746.923" y="1117.084"/>
      <point x="715.024" y="1119.065"/>
      <point x="682.12" y="1119.065" type="curve" smooth="yes"/>
      <point x="268.977" y="1119.065"/>
      <point x="52.845" y="901.974"/>
      <point x="52.845" y="527.023" type="curve" smooth="yes"/>
      <point x="52.845" y="144.027"/>
      <point x="268.957" y="-20.003"/>
    </contour>
    <contour>
      <point x="648.332" y="323.761" type="curve" smooth="yes"/>
      <point x="545.62" y="323.761"/>
      <point x="479.828" y="375.591"/>
      <point x="479.828" y="559.084" type="curve" smooth="yes"/>
      <point x="479.828" y="736.585"/>
      <point x="546.604" y="801.365"/>
      <point x="683.174" y="801.365" type="curve" smooth="yes"/>
      <point x="714.063" y="801.365"/>
      <point x="748.938" y="797.38"/>
      <point x="774.851" y="793.411" type="curve"/>
      <point x="774.851" y="357.408" type="line"/>
      <point x="740.967" y="334.662"/>
      <point x="693.146" y="323.761"/>
    </contour>
  </outline>
</glyph>
<glyph name="e" format="2">
  <advance width="1162.5094"/>
  <unicode hex="0065"/>
  <anchor x="598" y="0" name="bottom"/>
  <anchor x="1046" y="0" name="ogonek"/>
  <anchor x="598" y="1200" name="top"/>
  <outline>
    <contour>
      <point x="712.401" y="-22.011" type="curve" smooth="yes"/>
      <point x="821.444" y="-22.011"/>
      <point x="929.51" y="-13.033"/>
      <point x="1054.588" y="10.939" type="curve"/>
      <point x="1054.588" y="322.595" type="line"/>
      <point x="962.619" y="305.646"/>
      <point x="861.572" y="293.664"/>
      <point x="774.57" y="293.664" type="curve" smooth="yes"/>
      <point x="523.533" y="293.664"/>
      <point x="475.817" y="338.421"/>
      <point x="475.817" y="473.839" type="curve" smooth="yes"/>
      <point x="475.817" y="649.27" type="line" smooth="yes"/>
      <point x="475.817" y="807.743"/>
      <point x="513.581" y="857.527"/>
      <point x="602.267" y="857.527" type="curve" smooth="yes"/>
      <point x="689.953" y="857.527"/>
      <point x="726.741" y="806.743"/>
      <point x="726.741" y="648.266" type="curve"/>
      <point x="787.826" y="665.241" type="line"/>
      <point x="297.37" y="665.241" type="line"/>
      <point x="297.37" y="430.786" type="line"/>
      <point x="1119.64" y="430.786" type="line"/>
      <point x="1119.64" y="536.983" type="line" smooth="yes"/>
      <point x="1119.64" y="900.931"/>
      <point x="947.558" y="1118.059"/>
      <point x="607.284" y="1118.059" type="curve" smooth="yes"/>
      <point x="245.948" y="1118.059"/>
      <point x="52.845" y="900.93"/>
      <point x="52.845" y="551.023" type="curve" smooth="yes"/>
      <point x="52.845" y="153.017"/>
      <point x="248.923" y="-22.011"/>
    </contour>
  </outline>
</glyph>
<glyph name="f" format="2">
  <advance width="860.53293"/>
  <unicode hex="0066"/>
  <outline>
    <contour>
      <point x="188.895" y="0" type="line"/>
      <point x="611.891" y="0" type="line"/>
      <point x="611.891" y="1140.621" type="line" smooth="yes"/>
      <point x="611.891" y="1248.323"/>
      <point x="669.8" y="1303.264"/>
      <point x="816.679" y="1303.264" type="curve" smooth="yes"/>
      <point x="848.64" y="1303.264"/>
      <point x="877.58" y="1301.273"/>
      <point x="913.545" y="1297.288" type="curve"/>
      <point x="913.545" y="1624.003" type="line"/>
      <point x="858.511" y="1632.003"/>
      <point x="808.529" y="1636"/>
      <point x="745.468" y="1636" type="curve" smooth="yes"/>
      <point x="386.137" y="1636"/>
      <point x="188.895" y="1438.775"/>
      <point x="188.895" y="1120.59" type="curve" smooth="yes"/>
    </contour>
    <contour>
      <point x="29.055" y="769.307" type="line"/>
      <point x="864.516" y="769.307" type="line"/>
      <point x="864.516" y="1100.053" type="line"/>
      <point x="29.055" y="1100.053" type="line"/>
    </contour>
  </outline>
</glyph>
<glyph name="g" format="2">
  <advance width="1297.64733"/>
  <unicode hex="0067"/>
  <anchor x="648" y="-440" name="bottom"/>
  <anchor x="676" y="1200" name="top"/>
  <outline>
    <contour>
      <point x="531.197" y="-460" type="curve" smooth="yes"/>
      <point x="985.675" y="-460"/>
      <point x="1200.851" y="-275.848"/>
      <point x="1200.851" y="150.392" type="curve" smooth="yes"/>
      <point x="1200.851" y="1048.99" type="line"/>
      <point x="1065.729" y="1094.035"/>
      <point x="879.471" y="1118.059"/>
      <point x="721.302" y="1118.059" type="curve" smooth="yes"/>
      <point x="265.968" y="1118.059"/>
      <point x="52.845" y="896.955"/>
      <point x="52.845" y="528.024" type="curve" smooth="yes"/>
      <point x="52.845" y="173.161"/>
      <point x="259.912" y="-1.947"/>
      <point x="483.918" y="-1.947" type="curve" smooth="yes"/>
      <point x="601.87" y="-1.947"/>
      <point x="693.827" y="40.009"/>
      <point x="755.815" y="118.998" type="curve"/>
      <point x="774.851" y="118.998" type="line"/>
      <point x="774.851" y="69.177" type="line" smooth="yes"/>
      <point x="774.851" y="-75.396"/>
      <point x="694.975" y="-138.297"/>
      <point x="495.097" y="-138.297" type="curve" smooth="yes"/>
      <point x="391.073" y="-138.297"/>
      <point x="262.961" y="-123.298"/>
      <point x="133.882" y="-91.308" type="curve"/>
      <point x="133.882" y="-418.023" type="line"/>
      <point x="267.024" y="-449.02"/>
      <point x="404.07" y="-460"/>
    </contour>
    <contour>
      <point x="655.362" y="339.814" type="curve" smooth="yes"/>
      <point x="542.596" y="339.814"/>
      <point x="479.828" y="390.653"/>
      <point x="479.828" y="563.097" type="curve" smooth="yes"/>
      <point x="479.828" y="736.582"/>
      <point x="552.623" y="801.362"/>
      <point x="683.214" y="801.362" type="curve" smooth="yes"/>
      <point x="717.07" y="801.362"/>
      <point x="748.938" y="797.384"/>
      <point x="774.851" y="792.413" type="curve"/>
      <point x="774.851" y="364.462" type="line"/>
      <point x="739.961" y="347.708"/>
      <point x="696.162" y="339.814"/>
    </contour>
  </outline>
</glyph>
<glyph name="h" format="2">
  <advance width="1280.54556"/>
  <unicode hex="0068"/>
  <anchor x="644" y="0" name="bottom"/>
  <anchor x="644" y="550" name="center"/>
  <anchor x="97" y="1350" name="stroke"/>
  <anchor x="644" y="1616" name="top"/>
  <outline>
    <contour>
      <point x="96.797" y="0" type="line"/>
      <point x="522.797" y="0" type="line"/>
      <point x="522.797" y="702.559" type="line"/>
      <point x="553.615" y="733.316"/>
      <point x="606.374" y="754.246"/>
      <point x="658.188" y="754.246" type="curve" smooth="yes"/>
      <point x="724.925" y="754.246"/>
      <point x="763.725" y="724.362"/>
      <point x="763.725" y="626.685" type="curve" smooth="yes"/>
      <point x="763.725" y="0" type="line"/>
      <point x="1189.725" y="0" type="line"/>
      <point x="1189.725" y="657.76" type="line" smooth="yes"/>
      <point x="1189.725" y="988.954"/>
      <point x="1024.639" y="1118.059"/>
      <point x="822.613" y="1118.059" type="curve" smooth="yes"/>
      <point x="700.676" y="1118.059"/>
      <point x="607.759" y="1074.078"/>
      <point x="541.833" y="997.132" type="curve"/>
      <point x="522.797" y="997.132" type="line"/>
      <point x="522.797" y="1616" type="line"/>
      <point x="96.797" y="1616" type="line"/>
    </contour>
  </outline>
</glyph>
<glyph name="k" format="2">
  <advance width="1273.9148"/>
  <unicode hex="006B"/>
  <anchor x="667" y="0" name="bottom"/>
  <anchor x="310" y="1616" name="top"/>
  <outline>
    <contour>
      <point x="855.941" y="0" type="line"/>
      <point x="1314.992" y="0" type="line"/>
      <point x="930.227" y="630.182" type="line"/>
      <point x="930.227" y="519.945" type="line"/>
      <point x="1277.977" y="1100.053" type="line"/>
      <point x="828.952" y="1100.053" type="line"/>
      <point x="502.237" y="566.037" type="line"/>
    </contour>
    <contour>
      <point x="490.754" y="397.652" type="line"/>
      <point x="644.514" y="397.652" type="line"/>
      <point x="644.514" y="734.422" type="line"/>
      <point x="490.754" y="734.422" type="line"/>
    </contour>
    <contour>
      <point x="96.797" y="0" type="line"/>
      <point x="522.797" y="0" type="line"/>
      <point x="522.797" y="1616" type="line"/>
      <point x="96.797" y="1616" type="line"/>
    </contour>
  </outline>
</glyph>
<glyph name="l" format="2">
  <advance width="619.5935"/>
  <unicode hex="006C"/>
  <anchor x="309" y="0" name="bottom"/>
  <anchor x="613" y="1616" name="caronalt"/>
  <anchor x="803" y="794" name="periodcentered"/>
  <anchor x="310" y="714" name="slash"/>
  <anchor x="310" y="1616" name="top"/>
  <outline>
    <contour>
      <point x="96.797" y="0" type="line"/>
      <point x="522.797" y="0" type="line"/>
      <point x="522.797" y="1616" type="line"/>
      <point x="96.797" y="1616" type="line"/>
    </contour>
  </outline>
</glyph>
<glyph name="m" format="2">
  <advance width="1877.73708"/>
  <unicode hex="006D"/>
  <anchor x="947" y="0" name="bottom"/>
  <anchor x="947" y="1200" name="top"/>
  <outline>
    <contour>
      <point x="96.797" y="0" type="line"/>
      <point x="522.797" y="0" type="line"/>
      <point x="522.797" y="702.571" type="line"/>
      <point x="548.631" y="733.316"/>
      <point x="594.416" y="754.241"/>
      <point x="644.274" y="754.241" type="curve" smooth="yes"/>
      <point x="704.053" y="754.241"/>
      <point x="737.876" y="725.363"/>
      <point x="737.876" y="631.695" type="curve" smooth="yes"/>
      <point x="737.876" y="0" type="line"/>
      <point x="1154.851" y="0" type="line"/>
      <point x="1154.851" y="670.786" type="line" smooth="yes"/>
      <point x="1154.851" y="990.957"/>
      <point x="998.752" y="1118.059"/>
      <point x="794.648" y="1118.059" type="curve" smooth="yes"/>
      <point x="665.623" y="1118.059"/>
      <point x="565.655" y="1075.078"/>
      <point x="492.691" y="996.138" type="curve"/>
      <point x="474.662" y="996.138" type="line"/>
      <point x="446.603" y="1100.053" type="line"/>
      <point x="96.797" y="1100.053" type="line"/>
    </contour>
    <contour>
      <point x="1361.92" y="0" type="line"/>
      <point x="1786.916" y="0" type="line"/>
      <point x="1786.916" y="655.757" type="line" smooth="yes"/>
      <point x="1786.916" y="988.954"/>
      <point x="1623.812" y="1118.059"/>
      <point x="1399.669" y="1118.059" type="curve" smooth="yes"/>
      <point x="1272.646" y="1118.059"/>
      <point x="1148.691" y="1069.068"/>
      <point x="1055.719" y="962.174" type="curve"/>
      <point x="1135.888" y="702.659" type="line"/>
      <point x="1163.721" y="733.316"/>
      <point x="1206.433" y="754.241"/>
      <point x="1262.314" y="754.241" type="curve" smooth="yes"/>
      <point x="1321.085" y="754.241"/>
      <point x="1361.92" y="725.363"/>
      <point x="1361.92" y="631.695" type="curve" smooth="yes"/>
    </contour>
  </outline>
</glyph>
<glyph name="n" format="2">
  <advance width="1280.54556"/>
  <unicode hex="006E"/>
  <anchor x="10.992" y="1200" name="apostrophe"/>
  <anchor x="644" y="0" name="bottom"/>
  <anchor x="644" y="1200" name="top"/>
  <outline>
    <contour>
      <point x="96.797" y="0" type="line"/>
      <point x="522.797" y="0" type="line"/>
      <point x="522.797" y="702.555" type="line"/>
      <point x="553.607" y="733.3"/>
      <point x="604.348" y="754.241"/>
      <point x="658.188" y="754.241" type="curve" smooth="yes"/>
      <point x="724.913" y="754.241"/>
      <point x="763.725" y="725.371"/>
      <point x="763.725" y="629.697" type="curve" smooth="yes"/>
      <point x="763.725" y="0" type="line"/>
      <point x="1189.725" y="0" type="line"/>
      <point x="1189.725" y="657.772" type="line" smooth="yes"/>
      <point x="1189.725" y="987.956"/>
      <point x="1024.639" y="1118.059"/>
      <point x="800.558" y="1118.059" type="curve" smooth="yes"/>
      <point x="674.582" y="1118.059"/>
      <point x="567.633" y="1075.084"/>
      <point x="492.691" y="996.136" type="curve"/>
      <point x="474.662" y="996.136" type="line"/>
      <point x="446.603" y="1100.053" type="line"/>
      <point x="96.797" y="1100.053" type="line"/>
    </contour>
  </outline>
</glyph>
<glyph name="o" format="2">
  <advance width="1266.6196"/>
  <unicode hex="006F"/>
  <anchor x="633" y="0" name="bottom"/>
  <anchor x="633" y="550" name="center"/>
  <anchor x="824" y="0" name="ogonek"/>
  <anchor x="633" y="1200" name="top"/>
  <anchor x="634" y="1100" name="topright"/>
  <outline>
    <contour>
      <point x="633.31" y="-22.011" type="curve" smooth="yes"/>
      <point x="992.614" y="-22.011"/>
      <point x="1213.775" y="176.097"/>
      <point x="1213.775" y="548.024" type="curve" smooth="yes"/>
      <point x="1213.775" y="915.93"/>
      <point x="1003.652" y="1118.059"/>
      <point x="633.31" y="1118.059" type="curve" smooth="yes"/>
      <point x="262.963" y="1118.059"/>
      <point x="52.845" y="920.952"/>
      <point x="52.845" y="546.021" type="curve" smooth="yes"/>
      <point x="52.845" y="176.112"/>
      <point x="274.011" y="-22.011"/>
    </contour>
    <contour>
      <point x="633.31" y="294.696" type="curve" smooth="yes"/>
      <point x="531.6" y="294.696"/>
      <point x="479.828" y="349.516"/>
      <point x="479.828" y="548.017" type="curve" smooth="yes"/>
      <point x="479.828" y="746.532"/>
      <point x="533.603" y="801.352"/>
      <point x="633.31" y="801.352" type="curve" smooth="yes"/>
      <point x="733.017" y="801.352"/>
      <point x="786.792" y="746.532"/>
      <point x="786.792" y="546.028" type="curve" smooth="yes"/>
      <point x="786.792" y="349.516"/>
      <point x="735.019" y="294.696"/>
    </contour>
  </outline>
</glyph>
<glyph name="p" format="2">
  <advance width="1297.64733"/>
  <unicode hex="0070"/>
  <outline>
    <contour>
      <point x="96.797" y="-440" type="line"/>
      <point x="522.797" y="-440" type="line"/>
      <point x="522.797" y="-17.048" type="line"/>
      <point x="550.724" y="-19.028"/>
      <point x="582.624" y="-21.009"/>
      <point x="615.527" y="-21.009" type="curve" smooth="yes"/>
      <point x="1028.666" y="-21.009"/>
      <point x="1244.803" y="196.082"/>
      <point x="1244.803" y="571.033" type="curve" smooth="yes"/>
      <point x="1244.803" y="954.001"/>
      <point x="1028.706" y="1118.059"/>
      <point x="781.655" y="1118.059" type="curve" smooth="yes"/>
      <point x="652.656" y="1118.059"/>
      <point x="557.692" y="1066.073"/>
      <point x="496.701" y="985.097" type="curve"/>
      <point x="478.668" y="985.097" type="line"/>
      <point x="453.623" y="1100.053" type="line"/>
      <point x="96.797" y="1100.053" type="line"/>
    </contour>
    <contour>
      <point x="614.474" y="296.691" type="curve" smooth="yes"/>
      <point x="583.584" y="296.691"/>
      <point x="548.709" y="300.676"/>
      <point x="522.797" y="304.645" type="curve"/>
      <point x="522.797" y="740.648" type="line"/>
      <point x="556.68" y="763.393"/>
      <point x="604.501" y="774.294"/>
      <point x="649.315" y="774.294" type="curve" smooth="yes"/>
      <point x="752.047" y="774.294"/>
      <point x="817.819" y="722.449"/>
      <point x="817.819" y="538.972" type="curve" smooth="yes"/>
      <point x="817.819" y="361.471"/>
      <point x="751.043" y="296.691"/>
    </contour>
  </outline>
</glyph>
<glyph name="q" format="2">
  <advance width="1297.64733"/>
  <unicode hex="0071"/>
  <outline>
    <contour>
      <point x="774.851" y="-440" type="line"/>
      <point x="1200.851" y="-440" type="line"/>
      <point x="1200.851" y="1048.99" type="line"/>
      <point x="1065.729" y="1094.035"/>
      <point x="879.471" y="1118.059"/>
      <point x="720.301" y="1118.059" type="curve" smooth="yes"/>
      <point x="265.968" y="1118.059"/>
      <point x="52.845" y="904.981"/>
      <point x="52.845" y="524.006" type="curve" smooth="yes"/>
      <point x="52.845" y="153.085"/>
      <point x="252.902" y="-21.009"/>
      <point x="483.918" y="-21.009" type="curve" smooth="yes"/>
      <point x="601.87" y="-21.009"/>
      <point x="693.827" y="20.947"/>
      <point x="755.815" y="99.936" type="curve"/>
      <point x="774.851" y="99.936" type="line"/>
    </contour>
    <contour>
      <point x="655.362" y="323.756" type="curve" smooth="yes"/>
      <point x="544.597" y="323.756"/>
      <point x="479.828" y="375.601"/>
      <point x="479.828" y="557.071" type="curve" smooth="yes"/>
      <point x="479.828" y="736.582"/>
      <point x="552.623" y="801.362"/>
      <point x="682.21" y="801.362" type="curve" smooth="yes"/>
      <point x="717.07" y="801.362"/>
      <point x="748.938" y="797.384"/>
      <point x="774.851" y="792.413" type="curve"/>
      <point x="774.851" y="348.404" type="line"/>
      <point x="739.961" y="331.651"/>
      <point x="696.162" y="323.756"/>
    </contour>
  </outline>
</glyph>
<glyph name="r" format="2">
  <advance width="868.49786"/>
  <unicode hex="0072"/>
  <anchor x="310" y="0" name="bottom"/>
  <anchor x="478" y="1200" name="top"/>
  <outline>
    <contour>
      <point x="96.797" y="0" type="line"/>
      <point x="522.797" y="0" type="line"/>
      <point x="522.797" y="665.507" type="line"/>
      <point x="565.678" y="710.3"/>
      <point x="654.52" y="737.224"/>
      <point x="739.442" y="737.224" type="curve" smooth="yes"/>
      <point x="774.44" y="737.224"/>
      <point x="820.488" y="735.223"/>
      <point x="857.506" y="727.214" type="curve"/>
      <point x="857.506" y="1110.081" type="line"/>
      <point x="833.53" y="1114.075"/>
      <point x="798.505" y="1118.08"/>
      <point x="766.514" y="1118.08" type="curve" smooth="yes"/>
      <point x="644.519" y="1118.08"/>
      <point x="547.624" y="1073.113"/>
      <point x="494.701" y="961.095" type="curve"/>
      <point x="476.672" y="961.095" type="line"/>
      <point x="443.596" y="1100.053" type="line"/>
      <point x="96.797" y="1100.053" type="line"/>
    </contour>
  </outline>
</glyph>
<glyph name="s" format="2">
  <advance width="1030.52148"/>
  <unicode hex="0073"/>
  <anchor x="519" y="0" name="bottom"/>
  <anchor x="519" y="1200" name="top"/>
  <outline>
    <contour>
      <point x="461.205" y="-22.011" type="curve" smooth="yes"/>
      <point x="796.432" y="-22.011"/>
      <point x="994.636" y="120.059"/>
      <point x="994.636" y="353.196" type="curve" smooth="yes"/>
      <point x="994.636" y="563.381"/>
      <point x="880.514" y="648.364"/>
      <point x="689.518" y="681.333" type="curve" smooth="yes"/>
      <point x="491.333" y="715.341" type="line" smooth="yes"/>
      <point x="450.642" y="722.272"/>
      <point x="436.737" y="732.097"/>
      <point x="436.737" y="752.868" type="curve" smooth="yes"/>
      <point x="436.737" y="782.601"/>
      <point x="465.576" y="814.426"/>
      <point x="629.414" y="814.426" type="curve" smooth="yes"/>
      <point x="737.495" y="814.426"/>
      <point x="849.654" y="799.404"/>
      <point x="932.628" y="776.41" type="curve"/>
      <point x="932.628" y="1081.041" type="line"/>
      <point x="849.618" y="1103.044"/>
      <point x="731.478" y="1118.059"/>
      <point x="616.391" y="1118.059" type="curve" smooth="yes"/>
      <point x="228.015" y="1118.059"/>
      <point x="43.828" y="972.005"/>
      <point x="43.828" y="743.837" type="curve" smooth="yes"/>
      <point x="43.828" y="556.733"/>
      <point x="139.878" y="449.692"/>
      <point x="350.975" y="414.712" type="curve" smooth="yes"/>
      <point x="549.16" y="380.703" type="line" smooth="yes"/>
      <point x="589.848" y="373.772"/>
      <point x="601.727" y="362.907"/>
      <point x="601.727" y="339.169" type="curve" smooth="yes"/>
      <point x="601.727" y="304.458"/>
      <point x="568.887" y="281.622"/>
      <point x="453.172" y="281.622" type="curve" smooth="yes"/>
      <point x="320.05" y="281.622"/>
      <point x="183.876" y="301.65"/>
      <point x="77.873" y="333.647" type="curve"/>
      <point x="77.873" y="29.016" type="line"/>
      <point x="188.938" y="-4.995"/>
      <point x="324.094" y="-22.011"/>
    </contour>
  </outline>
</glyph>
<glyph name="t" format="2">
  <advance width="906.5848"/>
  <unicode hex="0074"/>
  <anchor x="520" y="0" name="bottom"/>
  <anchor x="710" y="1616" name="caronalt"/>
  <anchor x="181" y="557" name="stroke"/>
  <anchor x="394" y="1520" name="top"/>
  <anchor x="809" y="1616" name="topright"/>
  <outline>
    <contour>
      <point x="633.246" y="-21.009" type="curve" smooth="yes"/>
      <point x="710.316" y="-21.009"/>
      <point x="799.451" y="-8.987"/>
      <point x="859.459" y="5.013" type="curve"/>
      <point x="859.459" y="335.734" type="line"/>
      <point x="817.508" y="329.253"/>
      <point x="786.54" y="325.759"/>
      <point x="755.581" y="325.759" type="curve" smooth="yes"/>
      <point x="644.744" y="325.759"/>
      <point x="606.895" y="363.65"/>
      <point x="606.895" y="491.436" type="curve" smooth="yes"/>
      <point x="606.895" y="1480" type="line"/>
      <point x="260.093" y="1480" type="line"/>
      <point x="180.895" y="1100.053" type="line"/>
      <point x="180.895" y="425.265" type="line" smooth="yes"/>
      <point x="180.895" y="117.094"/>
      <point x="339.996" y="-21.009"/>
    </contour>
    <contour>
      <point x="21.055" y="769.307" type="line"/>
      <point x="859.52" y="769.307" type="line"/>
      <point x="859.52" y="1100.053" type="line"/>
      <point x="21.055" y="1100.053" type="line"/>
    </contour>
  </outline>
</glyph>
<glyph name="u" format="2">
  <advance width="1271.54696"/>
  <unicode hex="0075"/>
  <anchor x="633" y="0" name="bottom"/>
  <anchor x="1175" y="0" name="ogonek"/>
  <anchor x="633" y="1200" name="top"/>
  <anchor x="796" y="1100" name="topright"/>
  <outline>
    <contour>
      <point x="487.037" y="-19.001" type="curve" smooth="yes"/>
      <point x="601.981" y="-19.001"/>
      <point x="701.91" y="23.983"/>
      <point x="780.864" y="103.932" type="curve"/>
      <point x="796.885" y="103.932" type="line"/>
      <point x="824.944" y="0" type="line"/>
      <point x="1174.75" y="0" type="line"/>
      <point x="1174.75" y="1100.053" type="line"/>
      <point x="748.75" y="1100.053" type="line"/>
      <point x="748.75" y="396.5" type="line"/>
      <point x="717.93" y="365.742"/>
      <point x="665.172" y="344.816"/>
      <point x="617.357" y="344.816" type="curve" smooth="yes"/>
      <point x="555.62" y="344.816"/>
      <point x="516.821" y="374.695"/>
      <point x="516.821" y="470.369" type="curve" smooth="yes"/>
      <point x="516.821" y="1100.053" type="line"/>
      <point x="90.821" y="1100.053" type="line"/>
      <point x="90.821" y="439.294" type="line" smooth="yes"/>
      <point x="90.821" y="110.103"/>
      <point x="257.914" y="-19.001"/>
    </contour>
  </outline>
</glyph>
<glyph name="v" format="2">
  <advance width="1238.70902"/>
  <unicode hex="0076"/>
  <anchor x="619" y="0" name="bottom"/>
  <anchor x="619" y="1200" name="top"/>
  <outline>
    <contour>
      <point x="353.753" y="0" type="line"/>
      <point x="883.952" y="0" type="line"/>
      <point x="1250.827" y="1100.053" type="line"/>
      <point x="833.864" y="1100.053" type="line"/>
      <point x="619.378" y="344.851" type="line"/>
      <point x="645.401" y="344.851" type="line"/>
      <point x="430.915" y="1100.053" type="line"/>
      <point x="-12.117" y="1100.053" type="line"/>
    </contour>
  </outline>
</glyph>
<glyph name="w" format="2">
  <advance width="1890.80942"/>
  <unicode hex="0077"/>
  <anchor x="946" y="0" name="bottom"/>
  <anchor x="946" y="1200" name="top"/>
  <outline>
    <contour>
      <point x="310.76" y="0" type="line"/>
      <point x="773.806" y="0" type="line"/>
      <point x="959.415" y="735.191" type="line"/>
      <point x="940.418" y="735.191" type="line"/>
      <point x="1119.005" y="0" type="line"/>
      <point x="1582.051" y="0" type="line"/>
      <point x="1858.898" y="1100.053" type="line"/>
      <point x="1476.018" y="1100.053" type="line"/>
      <point x="1320.463" y="426.032" type="line"/>
      <point x="1344.486" y="426.032" type="line"/>
      <point x="1186.952" y="1100.053" type="line"/>
      <point x="723.906" y="1100.053" type="line"/>
      <point x="561.355" y="426.034" type="line"/>
      <point x="576.354" y="426.034" type="line"/>
      <point x="431.835" y="1100.053" type="line"/>
      <point x="31.911" y="1100.053" type="line"/>
    </contour>
  </outline>
</glyph>
<glyph name="x" format="2">
  <advance width="1204.69663"/>
  <unicode hex="0078"/>
  <anchor x="602" y="0" name="bottom"/>
  <anchor x="603" y="1200" name="top"/>
  <outline>
    <contour>
      <point x="764.771" y="0" type="line"/>
      <point x="1228.827" y="0" type="line"/>
      <point x="849.91" y="559.036" type="line"/>
      <point x="607.358" y="850.677" type="line"/>
      <point x="447.912" y="1100.053" type="line"/>
      <point x="-16.144" y="1100.053" type="line"/>
      <point x="351.773" y="554.027" type="line"/>
      <point x="599.34" y="264.387" type="line"/>
    </contour>
    <contour>
      <point x="-23.141" y="0" type="line"/>
      <point x="427.88" y="0" type="line"/>
      <point x="599.34" y="264.387" type="line"/>
      <point x="849.91" y="559.036" type="line"/>
      <point x="1214.818" y="1100.053" type="line"/>
      <point x="763.789" y="1100.053" type="line"/>
      <point x="607.358" y="850.677" type="line"/>
      <point x="351.773" y="554.027" type="line"/>
    </contour>
  </outline>
</glyph>
<glyph name="y" format="2">
  <advance width="1238.70902"/>
  <unicode hex="0079"/>
  <anchor x="1081" y="0" name="bottom"/>
  <anchor x="619" y="1200" name="top"/>
  <outline>
    <contour>
      <point x="321.048" y="-440" type="line"/>
      <point x="736.007" y="-440" type="line"/>
      <point x="1250.827" y="1100.053" type="line"/>
      <point x="833.864" y="1100.053" type="line"/>
      <point x="619.378" y="344.851" type="line"/>
      <point x="469.996" y="0" type="line"/>
    </contour>
    <contour>
      <point x="353.753" y="0" type="line"/>
      <point x="746.679" y="0" type="line"/>
      <point x="430.915" y="1100.053" type="line"/>
      <point x="-12.117" y="1100.053" type="line"/>
    </contour>
  </outline>
</glyph>
<glyph name="z" format="2">
  <advance width="1075.65523"/>
  <unicode hex="007A"/>
  <anchor x="548" y="0" name="bottom"/>
  <anchor x="548" y="1200" name="top"/>
  <outline>
    <contour>
      <point x="67.039" y="0" type="line"/>
      <point x="1028.664" y="0" type="line"/>
      <point x="1028.664" y="330.746" type="line"/>
      <point x="531.165" y="330.746" type="line"/>
      <point x="531.165" y="258.62" type="line"/>
      <point x="1018.672" y="829.403" type="line"/>
      <point x="1018.672" y="1100.053" type="line"/>
      <point x="77.031" y="1100.053" type="line"/>
      <point x="77.031" y="769.307" type="line"/>
      <point x="554.546" y="769.307" type="line"/>
      <point x="554.546" y="841.433" type="line"/>
      <point x="67.039" y="270.65" type="line"/>
    </contour>
  </outline>
</glyph>
<glyph name="braceleft" format="2">
  <advance width="794.34089"/>
  <unicode hex="007B"/>
  <outline>
    <contour>
      <point x="623.072" y="-460" type="curve" smooth="yes"/>
      <point x="700.169" y="-460"/>
      <point x="763.22" y="-453.995"/>
      <point x="820.299" y="-445.989" type="curve"/>
      <point x="820.299" y="-123.243" type="line"/>
      <point x="701.303" y="-123.243" type="line" smooth="yes"/>
      <point x="631.625" y="-123.243"/>
      <point x="594.778" y="-97.382"/>
      <point x="594.778" y="-29.708" type="curve" smooth="yes"/>
      <point x="594.778" y="351.913" type="line" smooth="yes"/>
      <point x="594.778" y="548.048"/>
      <point x="486.598" y="656.144"/>
      <point x="200.094" y="656.075" type="curve"/>
      <point x="200.094" y="607.979" type="line"/>
      <point x="486.598" y="607.909"/>
      <point x="594.778" y="716.005"/>
      <point x="594.778" y="912.14" type="curve" smooth="yes"/>
      <point x="594.778" y="1205.708" type="line" smooth="yes"/>
      <point x="594.778" y="1273.382"/>
      <point x="631.625" y="1299.243"/>
      <point x="701.303" y="1299.243" type="curve" smooth="yes"/>
      <point x="820.299" y="1299.243" type="line"/>
      <point x="820.299" y="1621.989" type="line"/>
      <point x="763.22" y="1629.995"/>
      <point x="700.169" y="1636"/>
      <point x="623.072" y="1636" type="curve" smooth="yes"/>
      <point x="321.876" y="1636"/>
      <point x="168.778" y="1489.897"/>
      <point x="168.778" y="1221.793" type="curve" smooth="yes"/>
      <point x="168.778" y="906.193" type="line" smooth="yes"/>
      <point x="168.778" y="841.378"/>
      <point x="124.821" y="797.4"/>
      <point x="59.979" y="797.4" type="curve" smooth="yes"/>
      <point x="-8.156" y="797.4" type="line"/>
      <point x="-8.156" y="466.653" type="line"/>
      <point x="59.979" y="466.653" type="line" smooth="yes"/>
      <point x="124.821" y="466.653"/>
      <point x="168.778" y="422.675"/>
      <point x="168.778" y="357.86" type="curve" smooth="yes"/>
      <point x="168.778" y="-45.793" type="line" smooth="yes"/>
      <point x="168.778" y="-313.897"/>
      <point x="321.876" y="-460"/>
    </contour>
  </outline>
</glyph>
<glyph name="bar" format="2">
  <advance width="598.43736"/>
  <unicode hex="007C"/>
  <outline>
    <contour>
      <point x="108.778" y="-440" type="line"/>
      <point x="489.659" y="-440" type="line"/>
      <point x="489.659" y="1616" type="line"/>
      <point x="108.778" y="1616" type="line"/>
    </contour>
  </outline>
</glyph>
<glyph name="braceright" format="2">
  <advance width="794.34089"/>
  <unicode hex="007D"/>
  <outline>
    <contour>
      <point x="171.269" y="-460" type="curve" smooth="yes"/>
      <point x="472.465" y="-460"/>
      <point x="625.563" y="-313.897"/>
      <point x="625.563" y="-45.793" type="curve" smooth="yes"/>
      <point x="625.563" y="357.86" type="line" smooth="yes"/>
      <point x="625.563" y="422.675"/>
      <point x="669.52" y="466.653"/>
      <point x="734.362" y="466.653" type="curve" smooth="yes"/>
      <point x="802.497" y="466.653" type="line"/>
      <point x="802.497" y="797.4" type="line"/>
      <point x="734.362" y="797.4" type="line" smooth="yes"/>
      <point x="669.52" y="797.4"/>
      <point x="625.563" y="841.378"/>
      <point x="625.563" y="906.193" type="curve" smooth="yes"/>
      <point x="625.563" y="1221.793" type="line" smooth="yes"/>
      <point x="625.563" y="1489.897"/>
      <point x="472.465" y="1636"/>
      <point x="171.269" y="1636" type="curve" smooth="yes"/>
      <point x="94.172" y="1636"/>
      <point x="31.121" y="1629.995"/>
      <point x="-25.958" y="1621.989" type="curve"/>
      <point x="-25.958" y="1299.243" type="line"/>
      <point x="93.038" y="1299.243" type="line" smooth="yes"/>
      <point x="162.716" y="1299.243"/>
      <point x="199.563" y="1273.382"/>
      <point x="199.563" y="1205.708" type="curve" smooth="yes"/>
      <point x="199.563" y="912.14" type="line" smooth="yes"/>
      <point x="199.563" y="716.005"/>
      <point x="310.747" y="607.909"/>
      <point x="594.246" y="607.979" type="curve"/>
      <point x="594.246" y="656.075" type="line"/>
      <point x="310.747" y="656.144"/>
      <point x="199.563" y="548.048"/>
      <point x="199.563" y="351.913" type="curve" smooth="yes"/>
      <point x="199.563" y="-29.708" type="line" smooth="yes"/>
      <point x="199.563" y="-97.382"/>
      <point x="162.716" y="-123.243"/>
      <point x="93.038" y="-123.243" type="curve" smooth="yes"/>
      <point x="-25.958" y="-123.243" type="line"/>
      <point x="-25.958" y="-445.989" type="line"/>
      <point x="31.121" y="-453.995"/>
      <point x="94.172" y="-460"/>
    </contour>
  </outline>
</glyph>
<glyph name="asciitilde" format="2">
  <advance width="1116.18674"/>
  <unicode hex="007E"/>
  <outline>
    <contour>
      <point x="764.197" y="543.668" type="curve" smooth="yes"/>
      <point x="875.291" y="543.668"/>
      <point x="951.312" y="573.662"/>
      <point x="1020.382" y="645.7" type="curve"/>
      <point x="1020.382" y="968.364" type="line"/>
      <point x="938.303" y="890.348"/>
      <point x="870.288" y="858.359"/>
      <point x="773.226" y="858.359" type="curve" smooth="yes"/>
      <point x="710.187" y="858.359"/>
      <point x="647.647" y="885.362"/>
      <point x="582.109" y="913.364" type="curve" smooth="yes"/>
      <point x="510.067" y="944.367"/>
      <point x="435.029" y="976.364"/>
      <point x="351.99" y="976.364" type="curve" smooth="yes"/>
      <point x="240.896" y="976.364"/>
      <point x="164.875" y="946.369"/>
      <point x="95.805" y="874.332" type="curve"/>
      <point x="95.805" y="551.668" type="line"/>
      <point x="177.884" y="629.684"/>
      <point x="245.899" y="661.673"/>
      <point x="342.961" y="661.673" type="curve" smooth="yes"/>
      <point x="405.497" y="661.673"/>
      <point x="468.038" y="634.67"/>
      <point x="534.078" y="606.668" type="curve" smooth="yes"/>
      <point x="606.12" y="575.665"/>
      <point x="681.66" y="543.668"/>
    </contour>
  </outline>
</glyph>
<glyph name="exclamdown" format="2">
  <advance width="660.6078"/>
  <unicode hex="00A1"/>
  <outline>
    <contour>
      <point x="204.02" y="541.391" type="line"/>
      <point x="103.775" y="90.728" type="line"/>
      <point x="103.775" y="-380" type="line"/>
      <point x="556.833" y="-380" type="line"/>
      <point x="556.833" y="90.728" type="line"/>
      <point x="461.603" y="541.391" type="line"/>
    </contour>
    <contour>
      <point x="330.304" y="1120.08" type="curve" smooth="yes"/>
      <point x="166.942" y="1120.08"/>
      <point x="61.728" y="1024.887"/>
      <point x="61.728" y="870.573" type="curve" smooth="yes"/>
      <point x="61.728" y="716.259"/>
      <point x="162.931" y="621.072"/>
      <point x="330.304" y="621.072" type="curve" smooth="yes"/>
      <point x="497.677" y="621.072"/>
      <point x="598.88" y="720.27"/>
      <point x="598.88" y="870.573" type="curve" smooth="yes"/>
      <point x="598.88" y="1020.876"/>
      <point x="493.666" y="1120.08"/>
    </contour>
  </outline>
</glyph>
<glyph name="cent" format="2">
  <advance width="1024.56829"/>
  <unicode hex="00A2"/>
  <outline>
    <contour>
      <point x="679.43" y="-22.011" type="curve" smooth="yes"/>
      <point x="785.51" y="-22.011"/>
      <point x="888.558" y="-7.011"/>
      <point x="966.528" y="16.963" type="curve"/>
      <point x="966.528" y="347.683" type="line"/>
      <point x="876.524" y="326.723"/>
      <point x="815.576" y="316.736"/>
      <point x="747.568" y="316.736" type="curve" smooth="yes"/>
      <point x="576.748" y="316.736"/>
      <point x="490.861" y="384.565"/>
      <point x="490.861" y="550.011" type="curve" smooth="yes"/>
      <point x="490.861" y="706.465"/>
      <point x="571.721" y="779.311"/>
      <point x="769.528" y="779.311" type="curve" smooth="yes"/>
      <point x="836.527" y="779.311"/>
      <point x="897.514" y="773.325"/>
      <point x="966.528" y="763.353" type="curve"/>
      <point x="966.528" y="1094.073" type="line"/>
      <point x="888.504" y="1110.063"/>
      <point x="804.454" y="1118.059"/>
      <point x="707.374" y="1118.059" type="curve" smooth="yes"/>
      <point x="293.042" y="1118.059"/>
      <point x="52.845" y="928.967"/>
      <point x="52.845" y="547.017" type="curve" smooth="yes"/>
      <point x="52.845" y="172.081"/>
      <point x="274.036" y="-22.011"/>
    </contour>
    <contour>
      <point x="454.878" y="-240" type="line"/>
      <point x="815.717" y="-240" type="line"/>
      <point x="815.717" y="60.16" type="line"/>
      <point x="454.878" y="60.16" type="line"/>
    </contour>
    <contour>
      <point x="454.878" y="1039.893" type="line"/>
      <point x="815.717" y="1039.893" type="line"/>
      <point x="815.717" y="1340.053" type="line"/>
      <point x="454.878" y="1340.053" type="line"/>
    </contour>
  </outline>
</glyph>
<glyph name="sterling" format="2">
  <advance width="1395.47967"/>
  <unicode hex="00A3"/>
  <outline>
    <contour>
      <point x="249.847" y="124.245" type="line"/>
      <point x="670.828" y="124.245" type="line"/>
      <point x="670.828" y="993.818" type="line" smooth="yes"/>
      <point x="670.828" y="1107.39"/>
      <point x="733.586" y="1154.241"/>
      <point x="971.5" y="1154.241" type="curve" smooth="yes"/>
      <point x="1075.503" y="1154.241"/>
      <point x="1206.59" y="1138.236"/>
      <point x="1296.539" y="1114.261" type="curve"/>
      <point x="1296.539" y="1462.03" type="line"/>
      <point x="1201.544" y="1484.004"/>
      <point x="1074.501" y="1500.005"/>
      <point x="940.417" y="1500.005" type="curve" smooth="yes"/>
      <point x="471.996" y="1500.005"/>
      <point x="249.847" y="1312.868"/>
      <point x="249.847" y="975.76" type="curve" smooth="yes"/>
    </contour>
    <contour>
      <point x="69.999" y="0" type="line"/>
      <point x="1343.569" y="0" type="line"/>
      <point x="1343.569" y="342.75" type="line"/>
      <point x="69.999" y="342.75" type="line"/>
    </contour>
    <contour>
      <point x="69.999" y="594.666" type="line"/>
      <point x="1096.447" y="594.666" type="line"/>
      <point x="1096.447" y="905.334" type="line"/>
      <point x="69.999" y="905.334" type="line"/>
    </contour>
  </outline>
</glyph>
<glyph name="yen" format="2">
  <advance width="1357.56829"/>
  <unicode hex="00A5"/>
  <outline>
    <contour>
      <point x="463.779" y="0" type="line"/>
      <point x="898.807" y="0" type="line"/>
      <point x="898.807" y="773.181" type="line"/>
      <point x="812.62" y="462.5" type="line"/>
      <point x="1411.728" y="1480" type="line"/>
      <point x="988.764" y="1480" type="line"/>
      <point x="633.197" y="871.408" type="line"/>
      <point x="749.428" y="871.408" type="line"/>
      <point x="389.842" y="1480" type="line"/>
      <point x="-67.203" y="1480" type="line"/>
      <point x="549.965" y="462.5" type="line"/>
      <point x="463.779" y="779.197" type="line"/>
    </contour>
    <contour>
      <point x="153.805" y="236.76" type="line"/>
      <point x="1208.78" y="236.76" type="line"/>
      <point x="1208.78" y="479.244" type="line"/>
      <point x="153.805" y="479.244" type="line"/>
    </contour>
    <contour>
      <point x="153.805" y="568.756" type="line"/>
      <point x="1208.78" y="568.756" type="line"/>
      <point x="1208.78" y="811.24" type="line"/>
      <point x="153.805" y="811.24" type="line"/>
    </contour>
  </outline>
</glyph>
<glyph name="brokenbar" format="2">
  <advance width="598.43736"/>
  <unicode hex="00A6"/>
  <outline>
    <contour>
      <point x="108.778" y="836" type="line"/>
      <point x="489.659" y="836" type="line"/>
      <point x="489.659" y="1616" type="line"/>
      <point x="108.778" y="1616" type="line"/>
    </contour>
    <contour>
      <point x="108.778" y="-440" type="line"/>
      <point x="489.659" y="-440" type="line"/>
      <point x="489.659" y="340" type="line"/>
      <point x="108.778" y="340" type="line"/>
    </contour>
  </outline>
</glyph>
<glyph name="section" format="2">
  <advance width="1172.6252"/>
  <unicode hex="00A7"/>
  <outline>
    <contour>
      <point x="491.198" y="-22.011" type="curve" smooth="yes"/>
      <point x="853.513" y="-22.011"/>
      <point x="1041.678" y="120.059"/>
      <point x="1041.678" y="345.177" type="curve" smooth="yes"/>
      <point x="1041.678" y="510.229"/>
      <point x="930.567" y="593.221"/>
      <point x="754.63" y="628.198" type="curve" smooth="yes"/>
      <point x="502.279" y="676.252" type="line" smooth="yes"/>
      <point x="437.524" y="689.198"/>
      <point x="418.609" y="716.064"/>
      <point x="418.609" y="754.881" type="curve" smooth="yes"/>
      <point x="418.609" y="789.755"/>
      <point x="433.553" y="819.665"/>
      <point x="472.461" y="867.68" type="curve"/>
      <point x="256.013" y="1007.949" type="line"/>
      <point x="144.91" y="945.927"/>
      <point x="73.828" y="857.905"/>
      <point x="73.828" y="731.815" type="curve" smooth="yes"/>
      <point x="73.828" y="541.7"/>
      <point x="191.962" y="447.701"/>
      <point x="354.893" y="415.728" type="curve" smooth="yes"/>
      <point x="606.241" y="367.677" type="line" smooth="yes"/>
      <point x="643.917" y="360.747"/>
      <point x="659.812" y="347.873"/>
      <point x="659.812" y="322.128" type="curve" smooth="yes"/>
      <point x="659.812" y="290.429"/>
      <point x="629.984" y="264.58"/>
      <point x="485.167" y="264.58" type="curve" smooth="yes"/>
      <point x="367.091" y="264.58"/>
      <point x="243.968" y="278.59"/>
      <point x="134.954" y="306.579" type="curve"/>
      <point x="134.954" y="19.993" type="line"/>
      <point x="246.019" y="-8.004"/>
      <point x="381.175" y="-22.011"/>
    </contour>
    <contour>
      <point x="897.537" y="460.012" type="line"/>
      <point x="1018.689" y="524.042"/>
      <point x="1098.798" y="616.083"/>
      <point x="1098.798" y="750.184" type="curve" smooth="yes"/>
      <point x="1098.798" y="942.299"/>
      <point x="987.687" y="1031.302"/>
      <point x="820.765" y="1062.269" type="curve" smooth="yes"/>
      <point x="559.378" y="1108.314" type="line" smooth="yes"/>
      <point x="521.699" y="1115.245"/>
      <point x="502.774" y="1126.073"/>
      <point x="502.774" y="1149.856" type="curve" smooth="yes"/>
      <point x="502.774" y="1177.581"/>
      <point x="537.637" y="1211.414"/>
      <point x="740.61" y="1211.414" type="curve" smooth="yes"/>
      <point x="827.626" y="1211.414"/>
      <point x="914.687" y="1203.414"/>
      <point x="999.669" y="1185.435" type="curve"/>
      <point x="999.669" y="1472.021" type="line"/>
      <point x="916.659" y="1488.005"/>
      <point x="808.559" y="1498.005"/>
      <point x="707.516" y="1498.005" type="curve" smooth="yes"/>
      <point x="292.053" y="1498.005"/>
      <point x="120.908" y="1351.952"/>
      <point x="120.908" y="1126.795" type="curve" smooth="yes"/>
      <point x="120.908" y="973.77"/>
      <point x="237.037" y="882.775"/>
      <point x="421.028" y="847.793" type="curve" smooth="yes"/>
      <point x="672.376" y="799.74" type="line" smooth="yes"/>
      <point x="737.128" y="786.793"/>
      <point x="754.016" y="757.882"/>
      <point x="754.016" y="722.11" type="curve" smooth="yes"/>
      <point x="754.016" y="685.225"/>
      <point x="735.049" y="659.322"/>
      <point x="672.071" y="607.29" type="curve"/>
    </contour>
  </outline>
</glyph>
<glyph name="copyright" format="2">
  <advance width="1637.75834"/>
  <unicode hex="00A9"/>
  <outline>
    <contour>
      <point x="818.879" y="-22" type="curve" smooth="yes"/>
      <point x="1270.895" y="-22"/>
      <point x="1568.895" y="282"/>
      <point x="1568.895" y="740" type="curve" smooth="yes"/>
      <point x="1568.895" y="1198"/>
      <point x="1270.895" y="1502"/>
      <point x="818.879" y="1502" type="curve" smooth="yes"/>
      <point x="366.863" y="1502"/>
      <point x="68.863" y="1198"/>
      <point x="68.863" y="740" type="curve" smooth="yes"/>
      <point x="68.863" y="282"/>
      <point x="366.863" y="-22"/>
    </contour>
    <contour>
      <point x="888.975" y="324" type="curve" smooth="yes"/>
      <point x="970.986" y="324"/>
      <point x="1042.986" y="336"/>
      <point x="1092.938" y="353.968" type="curve"/>
      <point x="1092.938" y="604.458" type="line"/>
      <point x="1014.948" y="586.495"/>
      <point x="973.028" y="580.506"/>
      <point x="917.034" y="580.506" type="curve" smooth="yes"/>
      <point x="805.257" y="580.506"/>
      <point x="743.417" y="634.357"/>
      <point x="743.417" y="731.984" type="curve" smooth="yes"/>
      <point x="743.417" y="831.632"/>
      <point x="799.241" y="887.494"/>
      <point x="929.007" y="887.494" type="curve" smooth="yes"/>
      <point x="984.97" y="887.494"/>
      <point x="1032.943" y="881.505"/>
      <point x="1092.938" y="871.526" type="curve"/>
      <point x="1092.938" y="1122.016" type="line"/>
      <point x="1036.959" y="1136"/>
      <point x="974.954" y="1144"/>
      <point x="900.938" y="1144" type="curve" smooth="yes"/>
      <point x="620.895" y="1144"/>
      <point x="442.81" y="991.989"/>
      <point x="442.81" y="731.995" type="curve" smooth="yes"/>
      <point x="442.81" y="474.032"/>
      <point x="616.863" y="324"/>
    </contour>
    <contour>
      <point x="818.879" y="190.383" type="curve" smooth="yes"/>
      <point x="481.06" y="190.383"/>
      <point x="291.273" y="400.208"/>
      <point x="291.273" y="740" type="curve" smooth="yes"/>
      <point x="291.273" y="1079.792"/>
      <point x="481.06" y="1289.617"/>
      <point x="818.879" y="1289.617" type="curve" smooth="yes"/>
      <point x="1156.698" y="1289.617"/>
      <point x="1346.485" y="1079.792"/>
      <point x="1346.485" y="740" type="curve" smooth="yes"/>
      <point x="1346.485" y="400.208"/>
      <point x="1156.698" y="190.383"/>
    </contour>
  </outline>
</glyph>
<glyph name="ordfeminine" format="2">
  <advance width="982.45053"/>
  <unicode hex="00AA"/>
  <outline>
    <contour>
      <point x="328.958" y="591.989" type="curve" smooth="yes"/>
      <point x="419.899" y="591.989"/>
      <point x="503.84" y="618.938"/>
      <point x="551.802" y="690.93" type="curve"/>
      <point x="568.833" y="690.93" type="line"/>
      <point x="596.894" y="610" type="line"/>
      <point x="922.655" y="610" type="line"/>
      <point x="922.655" y="1078.637" type="line" smooth="yes"/>
      <point x="922.655" y="1391.913"/>
      <point x="778.564" y="1502.027"/>
      <point x="431.135" y="1502.027" type="curve" smooth="yes"/>
      <point x="329.088" y="1502.027"/>
      <point x="207.002" y="1490.032"/>
      <point x="102.907" y="1465.035" type="curve"/>
      <point x="102.907" y="1185.456" type="line"/>
      <point x="179.876" y="1205.427"/>
      <point x="272.904" y="1217.428"/>
      <point x="351.933" y="1217.428" type="curve" smooth="yes"/>
      <point x="504.922" y="1217.428"/>
      <point x="530.735" y="1185.468"/>
      <point x="530.735" y="1130.798" type="curve" smooth="yes"/>
      <point x="530.735" y="850.17" type="line"/>
      <point x="513.893" y="846.396"/>
      <point x="493.11" y="845.502"/>
      <point x="479.347" y="845.502" type="curve" smooth="yes"/>
      <point x="430.587" y="845.502"/>
      <point x="403.7" y="866.391"/>
      <point x="403.7" y="907.195" type="curve" smooth="yes"/>
      <point x="403.7" y="945.01"/>
      <point x="427.574" y="965.911"/>
      <point x="486.263" y="967.863" type="curve" smooth="yes"/>
      <point x="631.928" y="971.789" type="line"/>
      <point x="582.803" y="1152.112" type="line"/>
      <point x="425.088" y="1146.181" type="line" smooth="yes"/>
      <point x="135.89" y="1135.218"/>
      <point x="18.808" y="1041.184"/>
      <point x="18.808" y="859.085" type="curve" smooth="yes"/>
      <point x="18.808" y="706.063"/>
      <point x="123.805" y="591.989"/>
    </contour>
  </outline>
</glyph>
<glyph name="logicalnot" format="2">
  <advance width="1331.99215"/>
  <unicode hex="00AC"/>
  <outline>
    <contour>
      <point x="906.435" y="200.034" type="line"/>
      <point x="1241.172" y="200.034" type="line"/>
      <point x="1241.172" y="920.354" type="line"/>
      <point x="95.805" y="920.354" type="line"/>
      <point x="95.805" y="599.646" type="line"/>
      <point x="906.435" y="599.646" type="line"/>
    </contour>
  </outline>
</glyph>
<glyph name="registered" format="2">
  <advance width="1393.5935"/>
  <unicode hex="00AE"/>
  <outline>
    <contour>
      <point x="696.797" y="268" type="curve" smooth="yes"/>
      <point x="1058.797" y="268"/>
      <point x="1306.797" y="518"/>
      <point x="1306.797" y="882" type="curve" smooth="yes"/>
      <point x="1306.797" y="1246"/>
      <point x="1058.797" y="1498"/>
      <point x="696.797" y="1498" type="curve" smooth="yes"/>
      <point x="334.797" y="1498"/>
      <point x="86.797" y="1246"/>
      <point x="86.797" y="882" type="curve" smooth="yes"/>
      <point x="86.797" y="518"/>
      <point x="334.797" y="268"/>
    </contour>
    <contour>
      <point x="802.605" y="600" type="line"/>
      <point x="984.887" y="600" type="line"/>
      <point x="832.951" y="819.893" type="line"/>
      <point x="668.674" y="793.893" type="line"/>
    </contour>
    <contour>
      <point x="696.797" y="424.24" type="curve" smooth="yes"/>
      <point x="428.957" y="424.24"/>
      <point x="255.063" y="604.144"/>
      <point x="255.063" y="882" type="curve" smooth="yes"/>
      <point x="255.063" y="1161.862"/>
      <point x="428.957" y="1341.76"/>
      <point x="696.797" y="1341.76" type="curve" smooth="yes"/>
      <point x="964.637" y="1341.76"/>
      <point x="1138.53" y="1161.862"/>
      <point x="1138.53" y="882" type="curve" smooth="yes"/>
      <point x="1138.53" y="604.144"/>
      <point x="964.637" y="424.24"/>
    </contour>
    <contour>
      <point x="474.759" y="600" type="line"/>
      <point x="641.026" y="600" type="line"/>
      <point x="647.042" y="785.893" type="line"/>
      <point x="688.813" y="785.893" type="line" smooth="yes"/>
      <point x="868.861" y="785.893"/>
      <point x="952.866" y="849.888"/>
      <point x="952.866" y="987.947" type="curve" smooth="yes"/>
      <point x="952.866" y="1126.005"/>
      <point x="866.861" y="1192"/>
      <point x="688.813" y="1192" type="curve" smooth="yes"/>
      <point x="474.759" y="1192" type="line"/>
    </contour>
    <contour>
      <point x="647.042" y="918.08" type="line"/>
      <point x="647.042" y="1059.814" type="line"/>
      <point x="714.85" y="1059.814" type="line" smooth="yes"/>
      <point x="762.68" y="1059.814"/>
      <point x="790.61" y="1035.856"/>
      <point x="790.61" y="987.947" type="curve" smooth="yes"/>
      <point x="790.61" y="940.037"/>
      <point x="764.68" y="918.08"/>
      <point x="714.85" y="918.08" type="curve" smooth="yes"/>
    </contour>
  </outline>
</glyph>
<glyph name="degree" format="2">
  <advance width="965.93439"/>
  <unicode hex="00B0"/>
  <outline>
    <contour>
      <point x="482.967" y="721.707" type="curve" smooth="yes"/>
      <point x="711.058" y="721.707"/>
      <point x="879.138" y="885.771"/>
      <point x="879.138" y="1111.862" type="curve" smooth="yes"/>
      <point x="879.138" y="1337.952"/>
      <point x="711.058" y="1500.011"/>
      <point x="482.967" y="1500.011" type="curve" smooth="yes"/>
      <point x="254.877" y="1500.011"/>
      <point x="86.797" y="1337.952"/>
      <point x="86.797" y="1111.862" type="curve" smooth="yes"/>
      <point x="86.797" y="885.771"/>
      <point x="254.877" y="721.707"/>
    </contour>
    <contour>
      <point x="482.967" y="959.182" type="curve" smooth="yes"/>
      <point x="402.174" y="959.182"/>
      <point x="340.307" y="1017.054"/>
      <point x="340.307" y="1111.862" type="curve" smooth="yes"/>
      <point x="340.307" y="1207.673"/>
      <point x="404.18" y="1262.536"/>
      <point x="482.967" y="1262.536" type="curve" smooth="yes"/>
      <point x="561.755" y="1262.536"/>
      <point x="625.627" y="1207.673"/>
      <point x="625.627" y="1111.862" type="curve" smooth="yes"/>
      <point x="625.627" y="1017.054"/>
      <point x="563.76" y="959.182"/>
    </contour>
  </outline>
</glyph>
<glyph name="plusminus" format="2">
  <advance width="1116.18674"/>
  <unicode hex="00B1"/>
  <outline>
    <contour>
      <point x="390.725" y="398.234" type="line"/>
      <point x="725.461" y="398.234" type="line"/>
      <point x="725.461" y="674.016" type="line"/>
      <point x="1020.382" y="674.016" type="line"/>
      <point x="1020.382" y="994.723" type="line"/>
      <point x="725.461" y="994.723" type="line"/>
      <point x="725.461" y="1270.506" type="line"/>
      <point x="390.725" y="1270.506" type="line"/>
      <point x="390.725" y="994.723" type="line"/>
      <point x="95.805" y="994.723" type="line"/>
      <point x="95.805" y="674.016" type="line"/>
      <point x="390.725" y="674.016" type="line"/>
    </contour>
    <contour>
      <point x="95.805" y="1.001" type="line"/>
      <point x="1020.382" y="1.001" type="line"/>
      <point x="1020.382" y="321.708" type="line"/>
      <point x="95.805" y="321.708" type="line"/>
    </contour>
  </outline>
</glyph>
<glyph name="micro" format="2">
  <advance width="1271.54696"/>
  <unicode hex="00B5"/>
  <outline>
    <contour>
      <point x="582.278" y="-19.001" type="curve" smooth="yes"/>
      <point x="660.13" y="-19.001"/>
      <point x="726.976" y="23.983"/>
      <point x="780.864" y="103.932" type="curve"/>
      <point x="796.885" y="103.932" type="line"/>
      <point x="824.944" y="0" type="line"/>
      <point x="1174.75" y="0" type="line"/>
      <point x="1174.75" y="1100.053" type="line"/>
      <point x="748.75" y="1100.053" type="line"/>
      <point x="748.75" y="396.5" type="line"/>
      <point x="717.93" y="365.742"/>
      <point x="665.172" y="344.816"/>
      <point x="617.357" y="344.816" type="curve" smooth="yes"/>
      <point x="555.62" y="344.816"/>
      <point x="516.821" y="374.695"/>
      <point x="516.821" y="470.369" type="curve" smooth="yes"/>
      <point x="516.821" y="700.6" type="line"/>
      <point x="312.345" y="700.6" type="line"/>
      <point x="312.345" y="439.294" type="line" smooth="yes"/>
      <point x="312.345" y="110.103"/>
      <point x="425.35" y="-19.001"/>
    </contour>
    <contour>
      <point x="90.821" y="-440" type="line"/>
      <point x="516.821" y="-440" type="line"/>
      <point x="516.821" y="1099.049" type="line"/>
      <point x="90.821" y="1099.049" type="line"/>
    </contour>
  </outline>
</glyph>
<glyph name="paragraph" format="2">
  <advance width="1373.53491"/>
  <unicode hex="00B6"/>
  <outline>
    <contour>
      <point x="547.47" y="0" type="line"/>
      <point x="841.101" y="0" type="line"/>
      <point x="841.101" y="1480" type="line"/>
      <point x="754.069" y="1493.015"/>
      <point x="651.05" y="1500.016"/>
      <point x="553.05" y="1500.016" type="curve" smooth="yes"/>
      <point x="210.9" y="1500.016"/>
      <point x="61.913" y="1329.962"/>
      <point x="61.913" y="944.83" type="curve" smooth="yes"/>
      <point x="61.913" y="578.689"/>
      <point x="208.931" y="390.658"/>
      <point x="482.772" y="390.658" type="curve" smooth="yes"/>
      <point x="506.658" y="390.658"/>
      <point x="525.57" y="391.151"/>
      <point x="547.47" y="391.63" type="curve"/>
    </contour>
    <contour>
      <point x="971.126" y="0" type="line"/>
      <point x="1264.757" y="0" type="line"/>
      <point x="1264.757" y="1480" type="line"/>
      <point x="971.126" y="1480" type="line"/>
    </contour>
  </outline>
</glyph>
<glyph name="ordmasculine" format="2">
  <advance width="1054.43483"/>
  <unicode hex="00BA"/>
  <outline>
    <contour>
      <point x="527.216" y="591.989" type="curve" smooth="yes"/>
      <point x="850.539" y="591.989"/>
      <point x="1028.633" y="769.11"/>
      <point x="1028.633" y="1047.006" type="curve" smooth="yes"/>
      <point x="1028.633" y="1324.902"/>
      <point x="850.539" y="1502.027"/>
      <point x="527.216" y="1502.027" type="curve" smooth="yes"/>
      <point x="203.893" y="1502.027"/>
      <point x="25.802" y="1329.909"/>
      <point x="25.802" y="1047.006" type="curve" smooth="yes"/>
      <point x="25.802" y="764.103"/>
      <point x="203.893" y="591.989"/>
    </contour>
    <contour>
      <point x="527.216" y="876.615" type="curve" smooth="yes"/>
      <point x="462.512" y="876.615"/>
      <point x="418.707" y="913.457"/>
      <point x="418.707" y="1047.006" type="curve" smooth="yes"/>
      <point x="418.707" y="1181.557"/>
      <point x="462.512" y="1217.401"/>
      <point x="527.216" y="1217.401" type="curve" smooth="yes"/>
      <point x="593.928" y="1217.401"/>
      <point x="635.728" y="1181.557"/>
      <point x="635.728" y="1047.006" type="curve" smooth="yes"/>
      <point x="635.728" y="913.457"/>
      <point x="593.928" y="876.615"/>
    </contour>
  </outline>
</glyph>
<glyph name="questiondown" format="2">
  <advance width="1050.58147"/>
  <unicode hex="00BF"/>
  <outline>
    <contour>
      <point x="710.62" y="567.435" type="line"/>
      <point x="453.036" y="567.435" type="line"/>
      <point x="423.987" y="425.09" type="line"/>
      <point x="195.133" y="366.234"/>
      <point x="44.963" y="232.219"/>
      <point x="44.963" y="16.187" type="curve" smooth="yes"/>
      <point x="44.963" y="-250.955"/>
      <point x="238.065" y="-400"/>
      <point x="634.429" y="-400" type="curve" smooth="yes"/>
      <point x="765.474" y="-400"/>
      <point x="926.616" y="-376.984"/>
      <point x="1024.614" y="-344.991" type="curve"/>
      <point x="1024.614" y="-17.272" type="line"/>
      <point x="926.641" y="-51.263"/>
      <point x="797.571" y="-72.278"/>
      <point x="686.558" y="-72.278" type="curve" smooth="yes"/>
      <point x="521.743" y="-72.278"/>
      <point x="458.926" y="-28.448"/>
      <point x="458.926" y="54.275" type="curve" smooth="yes"/>
      <point x="458.926" y="131.972"/>
      <point x="524.853" y="191.844"/>
      <point x="783.791" y="226.659" type="curve"/>
    </contour>
    <contour>
      <point x="581.326" y="1120.08" type="curve" smooth="yes"/>
      <point x="417.969" y="1120.08"/>
      <point x="312.75" y="1024.897"/>
      <point x="312.75" y="883.617" type="curve" smooth="yes"/>
      <point x="312.75" y="742.341"/>
      <point x="413.953" y="647.158"/>
      <point x="581.326" y="647.158" type="curve" smooth="yes"/>
      <point x="748.699" y="647.158"/>
      <point x="849.902" y="738.33"/>
      <point x="849.902" y="883.617" type="curve" smooth="yes"/>
      <point x="849.902" y="1028.908"/>
      <point x="744.688" y="1120.08"/>
    </contour>
  </outline>
</glyph>
<glyph name="AE" format="2">
  <advance width="2113.02778"/>
  <unicode hex="00C6"/>
  <anchor x="1095" y="0" name="bottom"/>
  <anchor x="1096" y="1520" name="top"/>
  <outline>
    <contour>
      <point x="3.913" y="0" type="line"/>
      <point x="427.891" y="0" type="line"/>
      <point x="742.268" y="1137.255" type="line"/>
      <point x="1085.68" y="1137.255" type="line"/>
      <point x="1085.673" y="1480" type="line"/>
      <point x="445.577" y="1480" type="line"/>
    </contour>
    <contour>
      <point x="373.328" y="337.489" type="line"/>
      <point x="1076.447" y="337.489" type="line"/>
      <point x="1076.447" y="680.234" type="line"/>
      <point x="464.541" y="680.234" type="line"/>
    </contour>
    <contour>
      <point x="1003.243" y="0" type="line"/>
      <point x="2041.054" y="0" type="line"/>
      <point x="2041.054" y="342.745" type="line"/>
      <point x="1404.194" y="342.745" type="line"/>
      <point x="1330.262" y="1137.255" type="line"/>
      <point x="2031.054" y="1137.255" type="line"/>
      <point x="2031.054" y="1480" type="line"/>
      <point x="885.204" y="1480" type="line"/>
    </contour>
    <contour>
      <point x="1160.633" y="583.611" type="line"/>
      <point x="1926.033" y="583.611" type="line"/>
      <point x="1926.033" y="926.357" type="line"/>
      <point x="1160.633" y="926.357" type="line"/>
    </contour>
  </outline>
</glyph>
<glyph name="multiply" format="2">
  <advance width="1068.28542"/>
  <unicode hex="00D7"/>
  <outline>
    <contour>
      <point x="292.308" y="291.663" type="line"/>
      <point x="534.143" y="533.498" type="line"/>
      <point x="775.977" y="291.663" type="line"/>
      <point x="1002.479" y="518.166" type="line"/>
      <point x="760.645" y="760" type="line"/>
      <point x="1002.479" y="1001.834" type="line"/>
      <point x="775.977" y="1228.337" type="line"/>
      <point x="534.143" y="986.502" type="line"/>
      <point x="292.308" y="1228.337" type="line"/>
      <point x="65.806" y="1001.834" type="line"/>
      <point x="307.64" y="760" type="line"/>
      <point x="65.806" y="518.166" type="line"/>
    </contour>
  </outline>
</glyph>
<glyph name="Thorn" format="2">
  <advance width="1383.53491"/>
  <unicode hex="00DE"/>
  <outline>
    <contour>
      <point x="108.778" y="0" type="line"/>
      <point x="543.806" y="0" type="line"/>
      <point x="543.806" y="208.797" type="line"/>
      <point x="579.667" y="206.815"/>
      <point x="615.59" y="205.822"/>
      <point x="656.468" y="205.822" type="curve" smooth="yes"/>
      <point x="1080.479" y="205.822"/>
      <point x="1311.622" y="391.85"/>
      <point x="1311.622" y="759.994" type="curve" smooth="yes"/>
      <point x="1311.622" y="1145.125"/>
      <point x="1078.521" y="1315.18"/>
      <point x="617.719" y="1315.18" type="curve" smooth="yes"/>
      <point x="595.493" y="1315.18"/>
      <point x="567.66" y="1314.206"/>
      <point x="543.806" y="1312.74" type="curve"/>
      <point x="543.806" y="1479.996" type="line"/>
      <point x="108.778" y="1479.996" type="line"/>
    </contour>
    <contour>
      <point x="656.464" y="526.506" type="curve" smooth="yes"/>
      <point x="612.59" y="526.506"/>
      <point x="581.706" y="528.498"/>
      <point x="543.806" y="532.479" type="curve"/>
      <point x="543.806" y="987.542" type="line"/>
      <point x="575.661" y="992.514"/>
      <point x="603.493" y="994.496"/>
      <point x="645.302" y="994.496" type="curve" smooth="yes"/>
      <point x="814.885" y="994.496"/>
      <point x="891.649" y="924.653"/>
      <point x="891.649" y="757.997" type="curve" smooth="yes"/>
      <point x="891.649" y="586.283"/>
      <point x="814.856" y="526.506"/>
    </contour>
  </outline>
</glyph>
<glyph name="germandbls" format="2">
  <advance width="1687.17864"/>
  <unicode hex="00DF"/>
  <outline>
    <contour>
      <point x="1090.771" y="-22.011" type="curve" smooth="yes"/>
      <point x="1453.089" y="-22.011"/>
      <point x="1651.293" y="120.059"/>
      <point x="1651.293" y="353.196" type="curve" smooth="yes"/>
      <point x="1651.293" y="563.381"/>
      <point x="1537.163" y="648.368"/>
      <point x="1346.175" y="681.333" type="curve" smooth="yes"/>
      <point x="1147.99" y="715.341" type="line" smooth="yes"/>
      <point x="1107.291" y="722.272"/>
      <point x="1093.394" y="732.097"/>
      <point x="1093.394" y="752.868" type="curve" smooth="yes"/>
      <point x="1093.394" y="782.601"/>
      <point x="1122.233" y="814.426"/>
      <point x="1309.144" y="814.426" type="curve" smooth="yes"/>
      <point x="1366.121" y="814.426"/>
      <point x="1421.161" y="812.441"/>
      <point x="1469.205" y="807.447" type="curve"/>
      <point x="1492.225" y="892.527"/>
      <point x="1507.232" y="973.492"/>
      <point x="1507.232" y="1067.573" type="curve" smooth="yes"/>
      <point x="1507.232" y="1461.828"/>
      <point x="1260.042" y="1636"/>
      <point x="900.66" y="1636" type="curve" smooth="yes"/>
      <point x="451.176" y="1636"/>
      <point x="188.895" y="1389.748"/>
      <point x="188.895" y="991.549" type="curve" smooth="yes"/>
      <point x="188.895" y="0" type="line"/>
      <point x="614.895" y="0" type="line"/>
      <point x="614.895" y="998.595" type="line" smooth="yes"/>
      <point x="614.895" y="1232.399"/>
      <point x="713.799" y="1349.401"/>
      <point x="934.763" y="1349.401" type="curve" smooth="yes"/>
      <point x="1100.694" y="1349.401"/>
      <point x="1210.59" y="1277.443"/>
      <point x="1210.59" y="1103.718" type="curve" smooth="yes"/>
      <point x="1210.59" y="1033.64"/>
      <point x="1199.576" y="969.617"/>
      <point x="1181.555" y="905.565" type="curve"/>
      <point x="1420.081" y="1100.043" type="line"/>
      <point x="1379.093" y="1104.036"/>
      <point x="1285.938" y="1106.032"/>
      <point x="1245.947" y="1106.032" type="curve" smooth="yes"/>
      <point x="885.684" y="1106.032"/>
      <point x="700.485" y="972.007"/>
      <point x="700.485" y="743.844" type="curve" smooth="yes"/>
      <point x="700.485" y="556.733"/>
      <point x="796.535" y="449.694"/>
      <point x="1007.632" y="414.712" type="curve" smooth="yes"/>
      <point x="1205.817" y="380.703" type="line" smooth="yes"/>
      <point x="1246.505" y="373.772"/>
      <point x="1258.384" y="362.907"/>
      <point x="1258.384" y="339.169" type="curve" smooth="yes"/>
      <point x="1258.384" y="304.458"/>
      <point x="1225.544" y="281.622"/>
      <point x="1084.744" y="281.622" type="curve" smooth="yes"/>
      <point x="972.691" y="281.622"/>
      <point x="830.493" y="300.652"/>
      <point x="734.53" y="324.626" type="curve"/>
      <point x="734.53" y="19.995" type="line"/>
      <point x="845.595" y="-8.003"/>
      <point x="983.763" y="-22.011"/>
    </contour>
    <contour>
      <point x="29.055" y="763.289" type="line"/>
      <point x="341.168" y="763.289" type="line"/>
      <point x="341.168" y="1100.053" type="line"/>
      <point x="29.055" y="1100.053" type="line"/>
    </contour>
  </outline>
</glyph>
<glyph name="ae" format="2">
  <advance width="1764.44803"/>
  <unicode hex="00E6"/>
  <anchor x="887" y="0" name="bottom"/>
  <anchor x="887" y="1200" name="top"/>
  <outline>
    <contour>
      <point x="1316.331" y="-22.011" type="curve" smooth="yes"/>
      <point x="1423.375" y="-22.011"/>
      <point x="1531.441" y="-13.033"/>
      <point x="1656.527" y="10.939" type="curve"/>
      <point x="1656.527" y="322.595" type="line"/>
      <point x="1564.55" y="305.646"/>
      <point x="1463.503" y="293.664"/>
      <point x="1376.498" y="293.664" type="curve" smooth="yes"/>
      <point x="1133.471" y="293.664"/>
      <point x="1085.756" y="338.421"/>
      <point x="1085.756" y="473.839" type="curve" smooth="yes"/>
      <point x="1085.756" y="649.27" type="line" smooth="yes"/>
      <point x="1085.756" y="807.743"/>
      <point x="1123.524" y="857.525"/>
      <point x="1208.208" y="857.525" type="curve" smooth="yes"/>
      <point x="1291.891" y="857.525"/>
      <point x="1328.679" y="806.739"/>
      <point x="1328.679" y="648.274" type="curve"/>
      <point x="1389.765" y="665.241" type="line"/>
      <point x="1017.592" y="665.241" type="line"/>
      <point x="1017.592" y="430.786" type="line"/>
      <point x="1721.578" y="430.786" type="line"/>
      <point x="1721.578" y="536.975" type="line" smooth="yes"/>
      <point x="1721.578" y="907.938"/>
      <point x="1541.485" y="1118.057"/>
      <point x="1233.279" y="1118.057" type="curve" smooth="yes"/>
      <point x="922.074" y="1118.057"/>
      <point x="741.943" y="896.912"/>
      <point x="741.943" y="581.062" type="curve"/>
      <point x="674.789" y="551.015" type="line"/>
      <point x="674.789" y="153.017"/>
      <point x="862.867" y="-22.011"/>
    </contour>
    <contour>
      <point x="456.105" y="-22.016" type="curve" smooth="yes"/>
      <point x="601.129" y="-22.016"/>
      <point x="738.132" y="23.987"/>
      <point x="844.057" y="148.823" type="curve"/>
      <point x="730.832" y="334.161" type="line"/>
      <point x="672.955" y="282.476"/>
      <point x="627.225" y="267.584"/>
      <point x="567.401" y="267.584" type="curve" smooth="yes"/>
      <point x="497.65" y="267.584"/>
      <point x="460.778" y="296.446"/>
      <point x="460.778" y="347.198" type="curve" smooth="yes"/>
      <point x="460.778" y="402.979"/>
      <point x="495.65" y="439.803"/>
      <point x="586.261" y="439.803" type="curve" smooth="yes"/>
      <point x="745.915" y="439.803" type="line"/>
      <point x="745.915" y="665.241" type="line"/>
      <point x="540.124" y="665.241" type="line" smooth="yes"/>
      <point x="191.937" y="665.241"/>
      <point x="43.814" y="525.219"/>
      <point x="43.814" y="313.121" type="curve" smooth="yes"/>
      <point x="43.814" y="114.084"/>
      <point x="178.84" y="-22.016"/>
    </contour>
    <contour>
      <point x="674.789" y="551.015" type="line"/>
      <point x="1019.604" y="551.081" type="line"/>
      <point x="1019.604" y="621.615" type="line" smooth="yes"/>
      <point x="1019.604" y="971.909"/>
      <point x="871.534" y="1118.059"/>
      <point x="505.133" y="1118.059" type="curve" smooth="yes"/>
      <point x="394.093" y="1118.059"/>
      <point x="272.055" y="1105.067"/>
      <point x="144.94" y="1073.067" type="curve"/>
      <point x="144.94" y="759.403" type="line"/>
      <point x="240.916" y="786.374"/>
      <point x="357.959" y="800.376"/>
      <point x="440.96" y="800.376" type="curve" smooth="yes"/>
      <point x="614.932" y="800.376"/>
      <point x="674.789" y="757.41"/>
      <point x="674.789" y="635.688" type="curve" smooth="yes"/>
    </contour>
  </outline>
</glyph>
<glyph name="eth" format="2">
  <advance width="1266.6196"/>
  <unicode hex="00F0"/>
  <outline>
    <contour>
      <point x="633.304" y="-24.013" type="curve" smooth="yes"/>
      <point x="1001.649" y="-24.013"/>
      <point x="1216.792" y="174.06"/>
      <point x="1216.792" y="621.137" type="curve" smooth="yes"/>
      <point x="1216.792" y="988.011"/>
      <point x="992.79" y="1390.948"/>
      <point x="697.75" y="1616" type="curve"/>
      <point x="200.588" y="1616" type="line"/>
      <point x="456.565" y="1432.064"/>
      <point x="680.825" y="1184.994"/>
      <point x="753.814" y="933.988" type="curve"/>
      <point x="884.07" y="961.223" type="line"/>
      <point x="817.083" y="1062.046"/>
      <point x="704.128" y="1108.027"/>
      <point x="592.187" y="1108.027" type="curve" smooth="yes"/>
      <point x="270.981" y="1108.027"/>
      <point x="52.845" y="922.955"/>
      <point x="52.845" y="546.021" type="curve" smooth="yes"/>
      <point x="52.845" y="177.121"/>
      <point x="271" y="-24.013"/>
    </contour>
    <contour>
      <point x="633.304" y="292.693" type="curve" smooth="yes"/>
      <point x="529.592" y="292.693"/>
      <point x="479.828" y="349.521"/>
      <point x="479.828" y="545.013" type="curve" smooth="yes"/>
      <point x="479.828" y="741.52"/>
      <point x="531.595" y="800.356"/>
      <point x="633.31" y="800.356" type="curve" smooth="yes"/>
      <point x="735.024" y="800.356"/>
      <point x="786.792" y="741.52"/>
      <point x="786.792" y="543.024" type="curve" smooth="yes"/>
      <point x="786.792" y="349.487"/>
      <point x="737.03" y="292.693"/>
    </contour>
    <contour>
      <point x="174.882" y="1154.749" type="line"/>
      <point x="1181.745" y="1340.919" type="line"/>
      <point x="1136.651" y="1564.387" type="line"/>
      <point x="129.789" y="1378.217" type="line"/>
    </contour>
  </outline>
</glyph>
<glyph name="divide" format="2">
  <advance width="1116.18674"/>
  <unicode hex="00F7"/>
  <outline>
    <contour>
      <point x="95.805" y="599.646" type="line"/>
      <point x="1020.382" y="599.646" type="line"/>
      <point x="1020.382" y="920.354" type="line"/>
      <point x="95.805" y="920.354" type="line"/>
    </contour>
    <contour>
      <point x="558.093" y="99.228" type="curve" smooth="yes"/>
      <point x="705.415" y="99.228"/>
      <point x="800.606" y="188.408"/>
      <point x="800.606" y="323.675" type="curve" smooth="yes"/>
      <point x="800.606" y="458.942"/>
      <point x="709.426" y="548.116"/>
      <point x="558.093" y="548.116" type="curve" smooth="yes"/>
      <point x="406.761" y="548.116"/>
      <point x="315.581" y="462.953"/>
      <point x="315.581" y="323.675" type="curve" smooth="yes"/>
      <point x="315.581" y="184.397"/>
      <point x="410.771" y="99.228"/>
    </contour>
    <contour>
      <point x="558.093" y="971.884" type="curve" smooth="yes"/>
      <point x="705.415" y="971.884"/>
      <point x="800.606" y="1061.063"/>
      <point x="800.606" y="1196.331" type="curve" smooth="yes"/>
      <point x="800.606" y="1331.598"/>
      <point x="709.426" y="1420.772"/>
      <point x="558.093" y="1420.772" type="curve" smooth="yes"/>
      <point x="406.761" y="1420.772"/>
      <point x="315.581" y="1335.608"/>
      <point x="315.581" y="1196.331" type="curve" smooth="yes"/>
      <point x="315.581" y="1057.053"/>
      <point x="410.771" y="971.884"/>
    </contour>
  </outline>
</glyph>
<glyph name="oslash" format="2">
  <advance width="1266.6196"/>
  <unicode hex="00F8"/>
  <anchor x="631" y="550" name="_center"/>
  <anchor x="631" y="-110" name="bottom"/>
  <anchor x="631" y="550" name="center"/>
  <anchor x="753" y="54" name="ogonek"/>
  <anchor x="631" y="1200" name="top"/>
  <anchor x="1176" y="1100" name="topright"/>
  <outline>
    <contour>
      <point x="1062.103" y="967.576" type="curve"/>
      <point x="1174.639" y="1122.616" type="line"/>
      <point x="921.663" y="1122.616" type="line"/>
      <point x="888.741" y="1077.724" type="line"/>
      <point x="814.735" y="1104.607"/>
      <point x="729.263" y="1118.059"/>
      <point x="633.31" y="1118.059" type="curve" smooth="yes"/>
      <point x="262.963" y="1118.059"/>
      <point x="52.845" y="920.952"/>
      <point x="52.845" y="546.021" type="curve" smooth="yes"/>
      <point x="52.845" y="368.025"/>
      <point x="105.908" y="229.499"/>
      <point x="202.019" y="134.481" type="curve"/>
      <point x="88.481" y="-22.563" type="line"/>
      <point x="341.456" y="-22.563" type="line"/>
      <point x="373.378" y="21.329" type="line"/>
      <point x="448.888" y="-7.558"/>
      <point x="535.859" y="-22.011"/>
      <point x="633.31" y="-22.011" type="curve" smooth="yes"/>
      <point x="992.614" y="-22.011"/>
      <point x="1213.775" y="176.097"/>
      <point x="1213.775" y="548.024" type="curve" smooth="yes"/>
      <point x="1213.775" y="730.028"/>
      <point x="1160.719" y="871.558"/>
    </contour>
    <contour>
      <point x="633.31" y="807.366" type="curve" smooth="yes"/>
      <point x="659.597" y="807.366"/>
      <point x="681.922" y="802.93"/>
      <point x="701.302" y="789.581" type="curve"/>
      <point x="474.128" y="477.708" type="line"/>
      <point x="469.241" y="498.568"/>
      <point x="466.805" y="521.844"/>
      <point x="466.805" y="548.017" type="curve" smooth="yes"/>
      <point x="466.805" y="750.543"/>
      <point x="525.587" y="807.366"/>
    </contour>
    <contour>
      <point x="633.31" y="288.682" type="curve" smooth="yes"/>
      <point x="605.022" y="288.682"/>
      <point x="580.694" y="294.118"/>
      <point x="561.314" y="310.468" type="curve"/>
      <point x="792.495" y="628.85" type="line"/>
      <point x="797.379" y="604.988"/>
      <point x="799.815" y="577.206"/>
      <point x="799.815" y="546.028" type="curve" smooth="yes"/>
      <point x="799.815" y="345.505"/>
      <point x="743.036" y="288.682"/>
    </contour>
  </outline>
</glyph>
<glyph name="thorn" format="2">
  <advance width="1297.64733"/>
  <unicode hex="00FE"/>
  <outline>
    <contour>
      <point x="96.797" y="-440" type="line"/>
      <point x="522.797" y="-440" type="line"/>
      <point x="522.797" y="-17.048" type="line"/>
      <point x="550.724" y="-19.028"/>
      <point x="582.624" y="-21.009"/>
      <point x="615.527" y="-21.009" type="curve" smooth="yes"/>
      <point x="1028.666" y="-21.009"/>
      <point x="1244.803" y="196.082"/>
      <point x="1244.803" y="571.033" type="curve" smooth="yes"/>
      <point x="1244.803" y="943.965"/>
      <point x="1044.747" y="1118.059"/>
      <point x="813.733" y="1118.059" type="curve" smooth="yes"/>
      <point x="695.777" y="1118.059"/>
      <point x="603.819" y="1076.101"/>
      <point x="541.833" y="997.121" type="curve"/>
      <point x="522.797" y="997.121" type="line"/>
      <point x="522.797" y="1616" type="line"/>
      <point x="96.797" y="1616" type="line"/>
    </contour>
    <contour>
      <point x="614.474" y="296.691" type="curve" smooth="yes"/>
      <point x="583.584" y="296.691"/>
      <point x="548.709" y="300.676"/>
      <point x="522.797" y="304.645" type="curve"/>
      <point x="522.797" y="743.645" type="line"/>
      <point x="555.679" y="764.395"/>
      <point x="601.485" y="773.293"/>
      <point x="643.294" y="773.293" type="curve" smooth="yes"/>
      <point x="752.047" y="773.293"/>
      <point x="817.819" y="721.448"/>
      <point x="817.819" y="538.972" type="curve" smooth="yes"/>
      <point x="817.819" y="361.471"/>
      <point x="751.043" y="296.691"/>
    </contour>
  </outline>
</glyph>
<glyph name="eogonek" format="2">
  <advance width="1162.5094"/>
  <unicode hex="0119"/>
  <outline>
    <contour>
      <point x="874.519" y="-460.16" type="curve" smooth="yes"/>
      <point x="953.601" y="-460.16"/>
      <point x="1004.574" y="-447.168"/>
      <point x="1054.588" y="-430.19" type="curve"/>
      <point x="1054.588" y="-274.92" type="line"/>
      <point x="1008.614" y="-292.886"/>
      <point x="968.647" y="-299.865"/>
      <point x="936.706" y="-299.865" type="curve" smooth="yes"/>
      <point x="857.708" y="-299.865"/>
      <point x="818.738" y="-263.886"/>
      <point x="818.738" y="-207.941" type="curve" smooth="yes"/>
      <point x="818.738" y="-132.962"/>
      <point x="865.723" y="-58.033"/>
      <point x="1054.588" y="10.939" type="curve"/>
      <point x="1054.588" y="322.595" type="line"/>
      <point x="962.619" y="305.646"/>
      <point x="861.572" y="293.664"/>
      <point x="774.57" y="293.664" type="curve" smooth="yes"/>
      <point x="523.533" y="293.664"/>
      <point x="475.817" y="338.421"/>
      <point x="475.817" y="473.839" type="curve" smooth="yes"/>
      <point x="475.817" y="639.243" type="line" smooth="yes"/>
      <point x="475.817" y="797.716"/>
      <point x="513.581" y="847.5"/>
      <point x="602.267" y="847.5" type="curve" smooth="yes"/>
      <point x="689.953" y="847.5"/>
      <point x="726.741" y="796.716"/>
      <point x="726.741" y="638.239" type="curve"/>
      <point x="787.826" y="655.214" type="line"/>
      <point x="297.37" y="655.214" type="line"/>
      <point x="297.37" y="430.786" type="line"/>
      <point x="1119.64" y="430.786" type="line"/>
      <point x="1119.64" y="536.983" type="line" smooth="yes"/>
      <point x="1119.64" y="900.931"/>
      <point x="947.558" y="1118.059"/>
      <point x="607.284" y="1118.059" type="curve" smooth="yes"/>
      <point x="245.948" y="1118.059"/>
      <point x="52.845" y="900.93"/>
      <point x="52.845" y="551.023" type="curve" smooth="yes"/>
      <point x="52.845" y="153.017"/>
      <point x="248.923" y="-22.011"/>
      <point x="712.401" y="-22.011" type="curve" smooth="yes"/>
      <point x="764.47" y="-22.011"/>
      <point x="823.556" y="-20.011"/>
      <point x="882.651" y="-15.009" type="curve"/>
      <point x="869.619" y="60.161" type="line"/>
      <point x="649.263" y="-12.882"/>
      <point x="582.233" y="-114.945"/>
      <point x="582.233" y="-236.012" type="curve" smooth="yes"/>
      <point x="582.233" y="-372.096"/>
      <point x="679.302" y="-460.16"/>
    </contour>
  </outline>
</glyph>
<glyph name="idotless" format="2">
  <advance width="620.5949"/>
  <unicode hex="0131"/>
  <anchor x="310" y="0" name="bottom"/>
  <anchor x="524" y="0" name="ogonek"/>
  <anchor x="310" y="1200" name="top"/>
  <outline>
    <contour>
      <point x="96.797" y="0" type="line"/>
      <point x="523.798" y="0" type="line"/>
      <point x="523.798" y="1100.053" type="line"/>
      <point x="96.797" y="1100.053" type="line"/>
    </contour>
  </outline>
</glyph>
<glyph name="ldot" format="2">
  <advance width="1056.7698"/>
  <unicode hex="0140"/>
  <outline>
    <contour>
      <point x="96.797" y="0" type="line"/>
      <point x="522.797" y="0" type="line"/>
      <point x="522.797" y="1616" type="line"/>
      <point x="96.797" y="1616" type="line"/>
    </contour>
    <contour>
      <point x="837.213" y="583.609" type="curve" smooth="yes"/>
      <point x="1013.604" y="583.609"/>
      <point x="1091.75" y="659.745"/>
      <point x="1091.75" y="794.005" type="curve" smooth="yes"/>
      <point x="1091.75" y="928.266"/>
      <point x="1013.604" y="1004.397"/>
      <point x="837.213" y="1004.397" type="curve" smooth="yes"/>
      <point x="660.823" y="1004.397"/>
      <point x="582.677" y="928.266"/>
      <point x="582.677" y="794.005" type="curve" smooth="yes"/>
      <point x="582.677" y="659.745"/>
      <point x="660.823" y="583.609"/>
    </contour>
  </outline>
</glyph>
<glyph name="Eng" format="2">
  <advance width="1592.48109"/>
  <unicode hex="014A"/>
  <outline>
    <contour>
      <point x="1129.879" y="-125.264" type="line"/>
      <point x="1175.954" y="504.155" type="line"/>
      <point x="542.787" y="1480" type="line"/>
      <point x="108.778" y="1480" type="line"/>
      <point x="108.778" y="0" type="line"/>
      <point x="516.738" y="0" type="line"/>
      <point x="516.738" y="930.703" type="line"/>
      <point x="450.637" y="930.703" type="line"/>
    </contour>
    <contour>
      <point x="1187.469" y="-476.043" type="line"/>
      <point x="1408.676" y="-257.982"/>
      <point x="1483.703" y="-53.922"/>
      <point x="1483.703" y="236.172" type="curve" smooth="yes"/>
      <point x="1483.703" y="1480" type="line"/>
      <point x="1075.743" y="1480" type="line"/>
      <point x="1075.743" y="180.037" type="line" smooth="yes"/>
      <point x="1075.743" y="-25.885"/>
      <point x="1029.783" y="-151.753"/>
      <point x="914.854" y="-295.643" type="curve"/>
    </contour>
  </outline>
</glyph>
<glyph name="eng" format="2">
  <advance width="1280.54556"/>
  <unicode hex="014B"/>
  <outline>
    <contour>
      <point x="894.492" y="-476.043" type="line"/>
      <point x="1115.7" y="-257.982"/>
      <point x="1189.725" y="-53.883"/>
      <point x="1189.725" y="196.172" type="curve" smooth="yes"/>
      <point x="1189.725" y="657.76" type="line" smooth="yes"/>
      <point x="1189.725" y="988.954"/>
      <point x="1024.639" y="1118.059"/>
      <point x="800.555" y="1118.059" type="curve" smooth="yes"/>
      <point x="674.585" y="1118.059"/>
      <point x="569.635" y="1075.074"/>
      <point x="492.691" y="996.136" type="curve"/>
      <point x="474.662" y="996.136" type="line"/>
      <point x="446.603" y="1100.053" type="line"/>
      <point x="96.797" y="1100.053" type="line"/>
      <point x="96.797" y="0" type="line"/>
      <point x="522.797" y="0" type="line"/>
      <point x="522.797" y="707.566" type="line"/>
      <point x="553.615" y="738.323"/>
      <point x="606.374" y="759.248"/>
      <point x="658.188" y="759.248" type="curve" smooth="yes"/>
      <point x="724.925" y="759.248"/>
      <point x="763.725" y="729.369"/>
      <point x="763.725" y="631.692" type="curve" smooth="yes"/>
      <point x="763.725" y="180.037" type="line" smooth="yes"/>
      <point x="763.725" y="-25.885"/>
      <point x="730.798" y="-151.753"/>
      <point x="621.877" y="-295.643" type="curve"/>
    </contour>
  </outline>
</glyph>
<glyph name="OE" format="2">
  <advance width="2185.67817"/>
  <unicode hex="0152"/>
  <anchor x="1228" y="0" name="bottom"/>
  <anchor x="1228" y="1520" name="top"/>
  <outline>
    <contour>
      <point x="977.531" y="-12.008" type="curve" smooth="yes"/>
      <point x="1073.495" y="-12.008"/>
      <point x="1197.469" y="0"/>
      <point x="1303.542" y="0" type="curve" smooth="yes"/>
      <point x="2113.705" y="0" type="line"/>
      <point x="2113.705" y="342.745" type="line"/>
      <point x="1441.92" y="342.745" type="line"/>
      <point x="1441.92" y="1137.255" type="line"/>
      <point x="2103.705" y="1137.255" type="line"/>
      <point x="2103.705" y="1480" type="line"/>
      <point x="1303.586" y="1480" type="line" smooth="yes"/>
      <point x="1196.535" y="1480"/>
      <point x="1080.528" y="1491.997"/>
      <point x="977.541" y="1491.997" type="curve" smooth="yes"/>
      <point x="391.088" y="1491.997"/>
      <point x="68.863" y="1260.039"/>
      <point x="68.863" y="740" type="curve" smooth="yes"/>
      <point x="68.863" y="213.938"/>
      <point x="363.011" y="-12.008"/>
    </contour>
    <contour>
      <point x="885.243" y="336.773" type="curve" smooth="yes"/>
      <point x="639.657" y="336.773"/>
      <point x="512.9" y="442.509"/>
      <point x="512.9" y="737.992" type="curve" smooth="yes"/>
      <point x="512.9" y="1036.497"/>
      <point x="639.67" y="1142.214"/>
      <point x="885.259" y="1142.214" type="curve" smooth="yes"/>
      <point x="925.111" y="1142.214"/>
      <point x="967.022" y="1142.229"/>
      <point x="1012.909" y="1139.246" type="curve"/>
      <point x="1012.909" y="339.752" type="line"/>
      <point x="966.952" y="336.764"/>
      <point x="922.035" y="336.773"/>
    </contour>
    <contour>
      <point x="1266.391" y="583.611" type="line"/>
      <point x="1998.683" y="583.611" type="line"/>
      <point x="1998.683" y="926.357" type="line"/>
      <point x="1266.391" y="926.357" type="line"/>
    </contour>
  </outline>
</glyph>
<glyph name="oe" format="2">
  <advance width="1891.48449"/>
  <unicode hex="0153"/>
  <anchor x="1000" y="0" name="bottom"/>
  <anchor x="1000" y="1100" name="top"/>
  <outline>
    <contour>
      <point x="613.267" y="-22.011" type="curve" smooth="yes"/>
      <point x="962.569" y="-22.011"/>
      <point x="1133.603" y="204.161"/>
      <point x="1133.603" y="548.024" type="curve" smooth="yes"/>
      <point x="1133.603" y="885.862"/>
      <point x="973.607" y="1118.059"/>
      <point x="613.267" y="1118.059" type="curve" smooth="yes"/>
      <point x="262.963" y="1118.059"/>
      <point x="52.845" y="920.952"/>
      <point x="52.845" y="546.021" type="curve" smooth="yes"/>
      <point x="52.845" y="176.112"/>
      <point x="274.011" y="-22.011"/>
    </contour>
    <contour>
      <point x="633.32" y="294.696" type="curve" smooth="yes"/>
      <point x="531.6" y="294.696"/>
      <point x="479.828" y="349.516"/>
      <point x="479.828" y="548.017" type="curve" smooth="yes"/>
      <point x="479.828" y="746.532"/>
      <point x="533.603" y="801.352"/>
      <point x="633.32" y="801.352" type="curve" smooth="yes"/>
      <point x="733.038" y="801.352"/>
      <point x="786.813" y="746.532"/>
      <point x="786.813" y="546.028" type="curve" smooth="yes"/>
      <point x="786.813" y="349.516"/>
      <point x="735.041" y="294.696"/>
    </contour>
    <contour>
      <point x="1443.368" y="-22.011" type="curve" smooth="yes"/>
      <point x="1550.411" y="-22.011"/>
      <point x="1658.477" y="-13.033"/>
      <point x="1783.564" y="10.939" type="curve"/>
      <point x="1783.564" y="322.595" type="line"/>
      <point x="1691.586" y="305.646"/>
      <point x="1590.536" y="293.664"/>
      <point x="1503.535" y="293.664" type="curve" smooth="yes"/>
      <point x="1260.508" y="293.664"/>
      <point x="1212.792" y="338.421"/>
      <point x="1212.792" y="473.839" type="curve" smooth="yes"/>
      <point x="1212.792" y="649.27" type="line" smooth="yes"/>
      <point x="1212.792" y="807.743"/>
      <point x="1250.56" y="857.525"/>
      <point x="1335.245" y="857.525" type="curve" smooth="yes"/>
      <point x="1418.928" y="857.525"/>
      <point x="1455.716" y="806.739"/>
      <point x="1455.716" y="648.274" type="curve"/>
      <point x="1516.801" y="665.241" type="line"/>
      <point x="1144.629" y="665.241" type="line"/>
      <point x="1144.629" y="430.786" type="line"/>
      <point x="1848.615" y="430.786" type="line"/>
      <point x="1848.615" y="536.975" type="line" smooth="yes"/>
      <point x="1848.615" y="907.938"/>
      <point x="1668.522" y="1118.057"/>
      <point x="1360.315" y="1118.057" type="curve" smooth="yes"/>
      <point x="1049.11" y="1118.057"/>
      <point x="868.98" y="886.873"/>
      <point x="868.98" y="581.062" type="curve"/>
      <point x="831.918" y="551.015" type="line"/>
      <point x="831.918" y="163.048"/>
      <point x="989.908" y="-22.011"/>
    </contour>
  </outline>
</glyph>
<glyph name="Uogonek" format="2">
  <advance width="1547.51025"/>
  <unicode hex="0172"/>
  <outline>
    <contour>
      <point x="863.235" y="-460.168" type="curve" smooth="yes"/>
      <point x="942.296" y="-460.168"/>
      <point x="1001.298" y="-448.172"/>
      <point x="1056.292" y="-430.193" type="curve"/>
      <point x="1056.292" y="-274.918" type="line"/>
      <point x="1004.345" y="-292.89"/>
      <point x="960.36" y="-299.872"/>
      <point x="925.422" y="-299.872" type="curve" smooth="yes"/>
      <point x="827.422" y="-299.872"/>
      <point x="787.454" y="-263.887"/>
      <point x="787.454" y="-205.944" type="curve" smooth="yes"/>
      <point x="787.454" y="-130.984"/>
      <point x="836.413" y="-58.022"/>
      <point x="1075.548" y="21.045" type="curve" smooth="yes"/>
      <point x="1327.667" y="103.112"/>
      <point x="1444.727" y="312.235"/>
      <point x="1444.727" y="649.33" type="curve" smooth="yes"/>
      <point x="1444.727" y="1480" type="line"/>
      <point x="1017.715" y="1480" type="line"/>
      <point x="1017.715" y="608.251" type="line" smooth="yes"/>
      <point x="1017.715" y="410.621"/>
      <point x="933.863" y="332.787"/>
      <point x="778.264" y="332.787" type="curve" smooth="yes"/>
      <point x="622.664" y="332.787"/>
      <point x="537.811" y="410.621"/>
      <point x="537.811" y="608.251" type="curve" smooth="yes"/>
      <point x="537.811" y="1480" type="line"/>
      <point x="102.783" y="1480" type="line"/>
      <point x="102.783" y="649.33" type="line" smooth="yes"/>
      <point x="102.783" y="202.189"/>
      <point x="309.892" y="-20.005"/>
      <point x="778.264" y="-20.005" type="curve" smooth="yes"/>
      <point x="825.274" y="-20.005" type="line"/>
      <point x="862.391" y="65.191" type="line"/>
      <point x="629.05" y="-12.858"/>
      <point x="550.949" y="-113.922"/>
      <point x="550.949" y="-236.036" type="curve" smooth="yes"/>
      <point x="550.949" y="-372.097"/>
      <point x="650.026" y="-460.168"/>
    </contour>
  </outline>
</glyph>
<glyph name="uogonek" format="2">
  <advance width="1271.54696"/>
  <unicode hex="0173"/>
  <anchor x="633" y="0" name="bottom"/>
  <anchor x="1175" y="0" name="ogonek"/>
  <anchor x="633" y="1200" name="top"/>
  <anchor x="796" y="1100" name="topright"/>
  <outline>
    <contour>
      <point x="487.037" y="-19.001" type="curve" smooth="yes"/>
      <point x="601.981" y="-19.001"/>
      <point x="701.91" y="23.983"/>
      <point x="780.864" y="103.932" type="curve"/>
      <point x="796.885" y="103.932" type="line"/>
      <point x="841.998" y="-20.066" type="line"/>
      <point x="1174.75" y="0" type="line"/>
      <point x="1174.75" y="1100.053" type="line"/>
      <point x="748.75" y="1100.053" type="line"/>
      <point x="748.75" y="396.5" type="line"/>
      <point x="717.93" y="365.742"/>
      <point x="665.172" y="344.816"/>
      <point x="617.357" y="344.816" type="curve" smooth="yes"/>
      <point x="555.62" y="344.816"/>
      <point x="516.821" y="374.695"/>
      <point x="516.821" y="470.369" type="curve" smooth="yes"/>
      <point x="516.821" y="1100.053" type="line"/>
      <point x="90.821" y="1100.053" type="line"/>
      <point x="90.821" y="439.294" type="line" smooth="yes"/>
      <point x="90.821" y="110.103"/>
      <point x="257.914" y="-19.001"/>
    </contour>
    <component base="ogonekcomb" xOffset="574.75"/>
  </outline>
</glyph>
<glyph name="Schwa" format="2">
  <advance width="1614.70032"/>
  <unicode hex="018F"/>
  <anchor x="752" y="0" name="bottom"/>
  <anchor x="752" y="1480" name="top"/>
  <outline>
    <contour>
      <point x="813.36" y="-20.005" type="curve" smooth="yes"/>
      <point x="1255.701" y="-20.005"/>
      <point x="1545.837" y="246.178"/>
      <point x="1545.837" y="719.951" type="curve" smooth="yes"/>
      <point x="1545.837" y="1249.916"/>
      <point x="1239.721" y="1500.005"/>
      <point x="619.167" y="1500.005" type="curve" smooth="yes"/>
      <point x="474.117" y="1500.005"/>
      <point x="307.005" y="1486.004"/>
      <point x="165.966" y="1458.027" type="curve"/>
      <point x="165.966" y="1112.261" type="line"/>
      <point x="292.97" y="1140.234"/>
      <point x="449.014" y="1156.239"/>
      <point x="582.073" y="1156.239" type="curve" smooth="yes"/>
      <point x="943.971" y="1156.239"/>
      <point x="1118.849" y="1048.44"/>
      <point x="1118.849" y="711.935" type="curve" smooth="yes"/>
      <point x="1118.849" y="404.479"/>
      <point x="1023.139" y="310.712"/>
      <point x="817.373" y="310.712" type="curve" smooth="yes"/>
      <point x="591.599" y="310.712"/>
      <point x="501.897" y="416.511"/>
      <point x="501.897" y="711.933" type="curve"/>
      <point x="349.584" y="556.573" type="line"/>
      <point x="1251.114" y="556.573" type="line"/>
      <point x="1251.114" y="865.235" type="line"/>
      <point x="58.863" y="865.235" type="line"/>
      <point x="58.863" y="730.025" type="line" smooth="yes"/>
      <point x="58.863" y="234.154"/>
      <point x="361.038" y="-20.005"/>
    </contour>
  </outline>
</glyph>
<glyph name="florin" format="2">
  <advance width="860.53293"/>
  <unicode hex="0192"/>
  <outline>
    <contour>
      <point x="55.31" y="-460" type="curve" smooth="yes"/>
      <point x="414.654" y="-460"/>
      <point x="611.891" y="-262.755"/>
      <point x="611.891" y="55.477" type="curve" smooth="yes"/>
      <point x="611.891" y="1140.551" type="line" smooth="yes"/>
      <point x="611.891" y="1248.315"/>
      <point x="669.796" y="1303.264"/>
      <point x="816.687" y="1303.264" type="curve" smooth="yes"/>
      <point x="848.648" y="1303.264"/>
      <point x="877.619" y="1301.271"/>
      <point x="913.545" y="1297.288" type="curve"/>
      <point x="913.545" y="1624.003" type="line"/>
      <point x="858.527" y="1631.999"/>
      <point x="808.541" y="1636"/>
      <point x="745.476" y="1636" type="curve" smooth="yes"/>
      <point x="386.133" y="1636"/>
      <point x="188.895" y="1438.755"/>
      <point x="188.895" y="1120.523" type="curve" smooth="yes"/>
      <point x="188.895" y="35.449" type="line" smooth="yes"/>
      <point x="188.895" y="-72.315"/>
      <point x="130.99" y="-127.264"/>
      <point x="-15.901" y="-127.264" type="curve" smooth="yes"/>
      <point x="-47.862" y="-127.264"/>
      <point x="-76.833" y="-125.271"/>
      <point x="-112.759" y="-121.288" type="curve"/>
      <point x="-112.759" y="-448.003" type="line"/>
      <point x="-57.741" y="-455.999"/>
      <point x="-7.755" y="-460"/>
    </contour>
    <contour>
      <point x="29.055" y="769.312" type="line"/>
      <point x="864.516" y="769.312" type="line"/>
      <point x="864.516" y="1100.053" type="line"/>
      <point x="29.055" y="1100.053" type="line"/>
    </contour>
  </outline>
</glyph>
<glyph name="Ohorn" format="2">
  <advance width="1644.7906"/>
  <unicode hex="01A0"/>
  <anchor x="822" y="0" name="bottom"/>
  <anchor x="822" y="1520" name="top"/>
  <outline>
    <contour>
      <point x="822.395" y="-20.005" type="curve" smooth="yes"/>
      <point x="1282.759" y="-20.005"/>
      <point x="1575.927" y="239.169"/>
      <point x="1575.927" y="740" type="curve" smooth="yes"/>
      <point x="1575.927" y="1041.817"/>
      <point x="1468.919" y="1257.826"/>
      <point x="1280.849" y="1376.875" type="curve"/>
      <point x="1250.806" y="1292.686" type="line"/>
      <point x="1454.874" y="1292.686"/>
      <point x="1593.973" y="1388.733"/>
      <point x="1593.973" y="1617.97" type="curve" smooth="yes"/>
      <point x="1593.973" y="1668.935"/>
      <point x="1590.987" y="1718.962"/>
      <point x="1574.991" y="1776" type="curve"/>
      <point x="1296.412" y="1776" type="line"/>
      <point x="1307.398" y="1716.957"/>
      <point x="1310.378" y="1674.956"/>
      <point x="1310.378" y="1636.005" type="curve" smooth="yes"/>
      <point x="1310.378" y="1517.98"/>
      <point x="1249.412" y="1480.019"/>
      <point x="1128.405" y="1480.019" type="curve" smooth="yes"/>
      <point x="1038.518" y="1480.019"/>
      <point x="933.386" y="1500.005"/>
      <point x="822.395" y="1500.005" type="curve" smooth="yes"/>
      <point x="364.022" y="1500.005"/>
      <point x="68.863" y="1242.863"/>
      <point x="68.863" y="740" type="curve" smooth="yes"/>
      <point x="68.863" y="237.137"/>
      <point x="362.031" y="-20.005"/>
    </contour>
    <contour>
      <point x="822.395" y="326.764" type="curve" smooth="yes"/>
      <point x="622.646" y="326.764"/>
      <point x="513.904" y="447.613"/>
      <point x="513.904" y="748.011" type="curve" smooth="yes"/>
      <point x="513.904" y="1032.387"/>
      <point x="625.657" y="1153.236"/>
      <point x="822.395" y="1153.236" type="curve" smooth="yes"/>
      <point x="1019.133" y="1153.236"/>
      <point x="1130.886" y="1029.375"/>
      <point x="1130.886" y="731.989" type="curve" smooth="yes"/>
      <point x="1130.886" y="450.625"/>
      <point x="1022.145" y="326.764"/>
    </contour>
  </outline>
</glyph>
<glyph name="ohorn" format="2">
  <advance width="1266.6196"/>
  <unicode hex="01A1"/>
  <anchor x="633" y="0" name="bottom"/>
  <anchor x="633" y="550" name="center"/>
  <anchor x="824" y="0" name="ogonek"/>
  <anchor x="623" y="1200" name="top"/>
  <outline>
    <contour>
      <point x="633.31" y="-22.011" type="curve" smooth="yes"/>
      <point x="992.614" y="-22.011"/>
      <point x="1213.775" y="176.097"/>
      <point x="1213.775" y="548.024" type="curve" smooth="yes"/>
      <point x="1213.775" y="770.92"/>
      <point x="1135.747" y="933.915"/>
      <point x="988.729" y="1024.94" type="curve"/>
      <point x="927.691" y="919.724" type="line"/>
      <point x="1131.787" y="919.724"/>
      <point x="1270.89" y="1015.771"/>
      <point x="1270.89" y="1239.973" type="curve" smooth="yes"/>
      <point x="1270.89" y="1288.935"/>
      <point x="1267.904" y="1338.962"/>
      <point x="1252.912" y="1396" type="curve"/>
      <point x="992.378" y="1396" type="line"/>
      <point x="1003.365" y="1336.957"/>
      <point x="1006.345" y="1294.956"/>
      <point x="1006.345" y="1258.008" type="curve" smooth="yes"/>
      <point x="1006.345" y="1145.017"/>
      <point x="945.379" y="1107.056"/>
      <point x="834.41" y="1107.056" type="curve" smooth="yes"/>
      <point x="789.398" y="1107.056"/>
      <point x="727.404" y="1118.059"/>
      <point x="643.349" y="1118.059" type="curve" smooth="yes"/>
      <point x="262.963" y="1118.059"/>
      <point x="52.845" y="920.952"/>
      <point x="52.845" y="546.021" type="curve" smooth="yes"/>
      <point x="52.845" y="176.112"/>
      <point x="274.011" y="-22.011"/>
    </contour>
    <contour>
      <point x="633.31" y="294.696" type="curve" smooth="yes"/>
      <point x="531.6" y="294.696"/>
      <point x="479.828" y="349.516"/>
      <point x="479.828" y="548.017" type="curve" smooth="yes"/>
      <point x="479.828" y="746.532"/>
      <point x="533.603" y="801.352"/>
      <point x="633.31" y="801.352" type="curve" smooth="yes"/>
      <point x="733.017" y="801.352"/>
      <point x="786.792" y="746.532"/>
      <point x="786.792" y="546.028" type="curve" smooth="yes"/>
      <point x="786.792" y="349.516"/>
      <point x="735.019" y="294.696"/>
    </contour>
  </outline>
</glyph>
<glyph name="Uhorn" format="2">
  <advance width="1552.51725"/>
  <unicode hex="01AF"/>
  <anchor x="774" y="0" name="bottom"/>
  <anchor x="774" y="1520" name="top"/>
  <outline>
    <contour>
      <point x="778.264" y="-20.005" type="curve" smooth="yes"/>
      <point x="1239.613" y="-20.005"/>
      <point x="1444.727" y="202.189"/>
      <point x="1444.727" y="649.33" type="curve" smooth="yes"/>
      <point x="1444.727" y="1321.736" type="line"/>
      <point x="1552.616" y="1364.84"/>
      <point x="1618.555" y="1460.899"/>
      <point x="1618.555" y="1617.97" type="curve" smooth="yes"/>
      <point x="1618.555" y="1668.935"/>
      <point x="1615.569" y="1718.962"/>
      <point x="1599.573" y="1776" type="curve"/>
      <point x="1320.994" y="1776" type="line"/>
      <point x="1331.98" y="1716.957"/>
      <point x="1334.96" y="1674.956"/>
      <point x="1334.96" y="1636.005" type="curve" smooth="yes"/>
      <point x="1334.96" y="1517.98"/>
      <point x="1273.994" y="1480"/>
      <point x="1152.987" y="1480" type="curve" smooth="yes"/>
      <point x="1017.715" y="1480" type="line"/>
      <point x="1017.715" y="608.251" type="line" smooth="yes"/>
      <point x="1017.715" y="410.621"/>
      <point x="933.863" y="332.787"/>
      <point x="778.264" y="332.787" type="curve" smooth="yes"/>
      <point x="622.664" y="332.787"/>
      <point x="537.811" y="410.621"/>
      <point x="537.811" y="608.251" type="curve" smooth="yes"/>
      <point x="537.811" y="1480" type="line"/>
      <point x="102.783" y="1480" type="line"/>
      <point x="102.783" y="649.33" type="line" smooth="yes"/>
      <point x="102.783" y="202.189"/>
      <point x="309.892" y="-20.005"/>
    </contour>
  </outline>
</glyph>
<glyph name="uhorn" format="2">
  <advance width="1311.60022"/>
  <unicode hex="01B0"/>
  <anchor x="633" y="0" name="bottom"/>
  <anchor x="1175" y="0" name="ogonek"/>
  <anchor x="633" y="1200" name="top"/>
  <outline>
    <contour>
      <point x="487.037" y="-19.001" type="curve" smooth="yes"/>
      <point x="601.981" y="-19.001"/>
      <point x="701.91" y="23.983"/>
      <point x="780.864" y="103.932" type="curve"/>
      <point x="796.885" y="103.932" type="line"/>
      <point x="824.944" y="0" type="line"/>
      <point x="1174.75" y="0" type="line"/>
      <point x="1174.75" y="1080.086" type="line"/>
      <point x="1004.401" y="912.721" type="line"/>
      <point x="1208.497" y="912.721"/>
      <point x="1347.6" y="1008.764"/>
      <point x="1347.6" y="1232.971" type="curve" smooth="yes"/>
      <point x="1347.6" y="1281.932"/>
      <point x="1344.614" y="1331.959"/>
      <point x="1328.618" y="1388.997" type="curve"/>
      <point x="1069.088" y="1388.997" type="line"/>
      <point x="1080.075" y="1329.954"/>
      <point x="1083.055" y="1287.954"/>
      <point x="1083.055" y="1251.006" type="curve" smooth="yes"/>
      <point x="1083.055" y="1138.015"/>
      <point x="1022.089" y="1100.053"/>
      <point x="911.12" y="1100.053" type="curve" smooth="yes"/>
      <point x="748.75" y="1100.053" type="line"/>
      <point x="748.75" y="396.5" type="line"/>
      <point x="717.93" y="365.742"/>
      <point x="665.172" y="344.816"/>
      <point x="617.357" y="344.816" type="curve" smooth="yes"/>
      <point x="555.62" y="344.816"/>
      <point x="516.821" y="374.695"/>
      <point x="516.821" y="470.369" type="curve" smooth="yes"/>
      <point x="516.821" y="1100.053" type="line"/>
      <point x="90.821" y="1100.053" type="line"/>
      <point x="90.821" y="439.294" type="line" smooth="yes"/>
      <point x="90.821" y="110.103"/>
      <point x="257.914" y="-19.001"/>
    </contour>
  </outline>
</glyph>
<glyph name="Oogonek" format="2">
  <advance width="1644.7906"/>
  <unicode hex="01EA"/>
  <outline>
    <contour>
      <point x="878.207" y="-460.16" type="curve" smooth="yes"/>
      <point x="957.269" y="-460.16"/>
      <point x="1016.271" y="-448.164"/>
      <point x="1071.264" y="-430.185" type="curve"/>
      <point x="1071.264" y="-274.91" type="line"/>
      <point x="1019.317" y="-292.882"/>
      <point x="975.333" y="-299.865"/>
      <point x="940.394" y="-299.865" type="curve" smooth="yes"/>
      <point x="842.394" y="-299.865"/>
      <point x="802.426" y="-263.879"/>
      <point x="802.426" y="-205.929" type="curve" smooth="yes"/>
      <point x="802.426" y="-126.958"/>
      <point x="865.442" y="-48.973"/>
      <point x="1081.476" y="12.98" type="curve" smooth="yes"/>
      <point x="1348.68" y="85.962"/>
      <point x="1575.927" y="302.999"/>
      <point x="1575.927" y="740" type="curve" smooth="yes"/>
      <point x="1575.927" y="1240.831"/>
      <point x="1280.768" y="1500.005"/>
      <point x="822.395" y="1500.005" type="curve" smooth="yes"/>
      <point x="364.022" y="1500.005"/>
      <point x="68.863" y="1242.863"/>
      <point x="68.863" y="740" type="curve" smooth="yes"/>
      <point x="68.863" y="241.153"/>
      <point x="356.011" y="-20.005"/>
      <point x="807.321" y="-20.005" type="curve" smooth="yes"/>
      <point x="841.245" y="-20.005" type="line"/>
      <point x="872.316" y="62.168" type="line"/>
      <point x="645.031" y="-9.839"/>
      <point x="565.927" y="-111.913"/>
      <point x="565.927" y="-236.012" type="curve" smooth="yes"/>
      <point x="565.927" y="-372.089"/>
      <point x="664.991" y="-460.16"/>
    </contour>
    <contour>
      <point x="822.395" y="326.764" type="curve" smooth="yes"/>
      <point x="622.646" y="326.764"/>
      <point x="513.904" y="447.613"/>
      <point x="513.904" y="748.011" type="curve" smooth="yes"/>
      <point x="513.904" y="1032.387"/>
      <point x="625.657" y="1153.236"/>
      <point x="822.395" y="1153.236" type="curve" smooth="yes"/>
      <point x="1019.133" y="1153.236"/>
      <point x="1130.886" y="1029.375"/>
      <point x="1130.886" y="731.989" type="curve" smooth="yes"/>
      <point x="1130.886" y="450.625"/>
      <point x="1022.145" y="326.764"/>
    </contour>
  </outline>
</glyph>
<glyph name="oogonek" format="2">
  <advance width="1266.6196"/>
  <unicode hex="01EB"/>
  <anchor x="633" y="0" name="bottom"/>
  <anchor x="633" y="550" name="center"/>
  <anchor x="633" y="1200" name="top"/>
  <anchor x="634" y="1100" name="topright"/>
  <outline>
    <contour>
      <point x="690.349" y="-460.16" type="curve" smooth="yes"/>
      <point x="769.43" y="-460.16"/>
      <point x="820.411" y="-447.162"/>
      <point x="870.419" y="-430.185" type="curve"/>
      <point x="870.471" y="-274.892" type="line"/>
      <point x="824.475" y="-292.878"/>
      <point x="784.49" y="-299.865"/>
      <point x="752.536" y="-299.865" type="curve" smooth="yes"/>
      <point x="673.532" y="-299.865"/>
      <point x="634.568" y="-260.887"/>
      <point x="634.568" y="-201.934" type="curve" smooth="yes"/>
      <point x="634.568" y="-127.955"/>
      <point x="676.525" y="-60.022"/>
      <point x="883.641" y="17.047" type="curve" smooth="yes"/>
      <point x="1093.732" y="94.611"/>
      <point x="1213.775" y="272.151"/>
      <point x="1213.775" y="548.024" type="curve" smooth="yes"/>
      <point x="1213.775" y="915.93"/>
      <point x="1003.652" y="1118.059"/>
      <point x="633.31" y="1118.059" type="curve" smooth="yes"/>
      <point x="262.963" y="1118.059"/>
      <point x="52.845" y="920.952"/>
      <point x="52.845" y="546.021" type="curve" smooth="yes"/>
      <point x="52.845" y="176.112"/>
      <point x="274.011" y="-22.011"/>
      <point x="633.306" y="-22.011" type="curve"/>
      <point x="642.305" y="46.125" type="line"/>
      <point x="467.109" y="-24.921"/>
      <point x="398.063" y="-112.941"/>
      <point x="398.063" y="-236.028" type="curve" smooth="yes"/>
      <point x="398.063" y="-372.105"/>
      <point x="495.121" y="-460.16"/>
    </contour>
    <contour>
      <point x="633.31" y="294.696" type="curve" smooth="yes"/>
      <point x="531.6" y="294.696"/>
      <point x="479.828" y="349.516"/>
      <point x="479.828" y="548.017" type="curve" smooth="yes"/>
      <point x="479.828" y="746.532"/>
      <point x="533.603" y="801.352"/>
      <point x="633.31" y="801.352" type="curve" smooth="yes"/>
      <point x="733.017" y="801.352"/>
      <point x="786.792" y="746.532"/>
      <point x="786.792" y="546.028" type="curve" smooth="yes"/>
      <point x="786.792" y="349.516"/>
      <point x="735.019" y="294.696"/>
    </contour>
  </outline>
</glyph>
<glyph name="jdotless" format="2">
  <advance width="620.5949"/>
  <unicode hex="0237"/>
  <anchor x="305" y="1200" name="top"/>
  <outline>
    <contour>
      <point x="227.564" y="-476.043" type="line"/>
      <point x="448.772" y="-257.982"/>
      <point x="523.798" y="-53.922"/>
      <point x="523.798" y="196.065" type="curve" smooth="yes"/>
      <point x="523.798" y="1100.053" type="line"/>
      <point x="96.797" y="1100.053" type="line"/>
      <point x="96.797" y="180.037" type="line" smooth="yes"/>
      <point x="96.797" y="-25.885"/>
      <point x="63.87" y="-151.753"/>
      <point x="-45.051" y="-295.643" type="curve"/>
    </contour>
  </outline>
</glyph>
<glyph name="commaturnedmod" format="2">
  <advance width="1200.28011"/>
  <unicode hex="02BB"/>
  <anchor x="600" y="1200" name="_top"/>
  <anchor x="600" y="1700" name="top"/>
  <outline>
    <contour>
      <point x="600.129" y="1211.606" type="curve" smooth="yes"/>
      <point x="761.487" y="1211.606"/>
      <point x="828.607" y="1261.67"/>
      <point x="828.607" y="1345.8" type="curve" smooth="yes"/>
      <point x="828.607" y="1427.917"/>
      <point x="766.512" y="1479.987"/>
      <point x="600.14" y="1479.987" type="curve" smooth="yes"/>
      <point x="572.097" y="1479.987" type="line"/>
      <point x="655.309" y="1401.864" type="line"/>
      <point x="655.309" y="1475.933"/>
      <point x="673.341" y="1530.948"/>
      <point x="726.409" y="1626.008" type="curve"/>
      <point x="463.806" y="1626.008" type="line"/>
      <point x="410.738" y="1566.013"/>
      <point x="371.673" y="1468.937"/>
      <point x="371.673" y="1387.848" type="curve" smooth="yes"/>
      <point x="371.673" y="1276.706"/>
      <point x="438.788" y="1211.606"/>
    </contour>
  </outline>
</glyph>
<glyph name="apostrophemod" format="2">
  <advance width="1200.28011"/>
  <unicode hex="02BC"/>
  <anchor x="600" y="1200" name="_apostrophe"/>
  <outline>
    <contour>
      <point x="702.339" y="1211.606" type="curve"/>
      <point x="964.942" y="1211.606" type="line"/>
      <point x="1018.009" y="1271.601"/>
      <point x="1057.075" y="1368.676"/>
      <point x="1057.075" y="1449.766" type="curve" smooth="yes"/>
      <point x="1057.075" y="1560.908"/>
      <point x="989.959" y="1626.008"/>
      <point x="828.618" y="1626.008" type="curve" smooth="yes"/>
      <point x="667.261" y="1626.008"/>
      <point x="600.14" y="1575.944"/>
      <point x="600.14" y="1491.814" type="curve" smooth="yes"/>
      <point x="600.14" y="1409.696"/>
      <point x="662.236" y="1357.627"/>
      <point x="828.607" y="1357.627" type="curve" smooth="yes"/>
      <point x="856.65" y="1357.627" type="line"/>
      <point x="773.438" y="1435.75" type="line"/>
      <point x="773.438" y="1361.68"/>
      <point x="755.406" y="1306.666"/>
    </contour>
  </outline>
</glyph>
<glyph name="ringhalfright" format="2">
  <advance width="1200.28011"/>
  <unicode hex="02BE"/>
  <anchor x="600" y="1200" name="_top"/>
  <anchor x="600" y="1700" name="top"/>
  <outline>
    <contour>
      <point x="600.14" y="1213.877" type="line"/>
      <point x="732.209" y="1213.877"/>
      <point x="828.257" y="1305.915"/>
      <point x="828.257" y="1433.973" type="curve" smooth="yes"/>
      <point x="828.257" y="1562.032"/>
      <point x="732.209" y="1654.069"/>
      <point x="600.14" y="1654.069" type="curve"/>
      <point x="600.14" y="1515.84" type="line"/>
      <point x="646.06" y="1515.84"/>
      <point x="678.002" y="1483.888"/>
      <point x="678.002" y="1433.973" type="curve" smooth="yes"/>
      <point x="678.002" y="1384.059"/>
      <point x="646.06" y="1352.107"/>
      <point x="600.14" y="1352.107" type="curve"/>
    </contour>
  </outline>
</glyph>
<glyph name="ringhalfleft" format="2">
  <advance width="1200.28011"/>
  <unicode hex="02BF"/>
  <anchor x="600" y="1200" name="_top"/>
  <anchor x="600" y="1700" name="top"/>
  <outline>
    <contour>
      <point x="600.14" y="1213.877" type="curve"/>
      <point x="600.14" y="1352.107" type="line"/>
      <point x="554.22" y="1352.107"/>
      <point x="522.279" y="1384.059"/>
      <point x="522.279" y="1433.973" type="curve" smooth="yes"/>
      <point x="522.279" y="1483.888"/>
      <point x="554.22" y="1515.84"/>
      <point x="600.14" y="1515.84" type="curve"/>
      <point x="600.14" y="1654.069" type="line"/>
      <point x="468.071" y="1654.069"/>
      <point x="372.023" y="1562.032"/>
      <point x="372.023" y="1433.973" type="curve" smooth="yes"/>
      <point x="372.023" y="1305.915"/>
      <point x="468.071" y="1213.877"/>
    </contour>
  </outline>
</glyph>
<glyph name="firsttonechinese" format="2">
  <advance width="1200.28011"/>
  <unicode hex="02C9"/>
  <anchor x="600" y="1200" name="_top"/>
  <anchor x="600" y="1700" name="top"/>
  <outline>
    <contour>
      <point x="213.87" y="1294.735" type="line"/>
      <point x="986.411" y="1294.735" type="line"/>
      <point x="986.411" y="1543.24" type="line"/>
      <point x="213.87" y="1543.24" type="line"/>
    </contour>
  </outline>
</glyph>
<glyph name="secondtonechinese" format="2">
  <advance width="1200.28011"/>
  <unicode hex="02CA"/>
  <anchor x="600" y="1200" name="_top"/>
  <anchor x="600" y="1700" name="top"/>
  <outline>
    <contour>
      <point x="394.653" y="1219.883" type="line"/>
      <point x="805.627" y="1219.883" type="line"/>
      <point x="1098.785" y="1616" type="line"/>
      <point x="627.675" y="1616" type="line"/>
    </contour>
  </outline>
</glyph>
<glyph name="fourthtonechinese" format="2">
  <advance width="1200.28011"/>
  <unicode hex="02CB"/>
  <anchor x="600" y="1200" name="_top"/>
  <anchor x="600" y="1700" name="top"/>
  <outline>
    <contour>
      <point x="394.653" y="1219.883" type="line"/>
      <point x="805.627" y="1219.883" type="line"/>
      <point x="572.605" y="1616" type="line"/>
      <point x="101.495" y="1616" type="line"/>
    </contour>
  </outline>
</glyph>
<glyph name="verticallinelowmod" format="2">
  <advance width="1200"/>
  <unicode hex="02CC"/>
  <anchor x="600" y="0" name="_bottom"/>
  <anchor x="600" y="-480" name="bottom"/>
  <outline>
    <contour>
      <point x="509.84" y="-440" type="line"/>
      <point x="690.16" y="-440" type="line"/>
      <point x="690.16" y="-40" type="line"/>
      <point x="509.84" y="-40" type="line"/>
    </contour>
  </outline>
</glyph>
<glyph name="circumflexcomb" format="2">
  <unicode hex="0302"/>
  <anchor x="600" y="1200" name="_top"/>
  <anchor x="600" y="1676" name="top"/>
  <outline>
    <contour>
      <point x="190.576" y="1219.883" type="line"/>
      <point x="486.213" y="1219.883" type="line"/>
      <point x="628.041" y="1473.664" type="line"/>
      <point x="571.959" y="1473.664" type="line"/>
      <point x="713.787" y="1219.883" type="line"/>
      <point x="1009.424" y="1219.883" type="line"/>
      <point x="770.362" y="1616" type="line"/>
      <point x="429.638" y="1616" type="line"/>
    </contour>
  </outline>
</glyph>
<glyph name="tildecomb" format="2">
  <unicode hex="0303"/>
  <anchor x="600" y="1200" name="_top"/>
  <anchor x="600" y="1641" name="top"/>
  <outline>
    <contour>
      <point x="768.083" y="1244.634" type="curve" smooth="yes"/>
      <point x="860.161" y="1244.634"/>
      <point x="926.203" y="1269.646"/>
      <point x="986.271" y="1328.699" type="curve"/>
      <point x="986.271" y="1585.209" type="line"/>
      <point x="917.199" y="1521.164"/>
      <point x="857.164" y="1494.153"/>
      <point x="776.109" y="1494.153" type="curve" smooth="yes"/>
      <point x="722.068" y="1494.153"/>
      <point x="671.036" y="1517.17"/>
      <point x="618.006" y="1540.688" type="curve" smooth="yes"/>
      <point x="560.979" y="1566.205"/>
      <point x="500.953" y="1593.221"/>
      <point x="431.917" y="1593.221" type="curve" smooth="yes"/>
      <point x="339.839" y="1593.221"/>
      <point x="273.797" y="1568.209"/>
      <point x="213.729" y="1509.156" type="curve"/>
      <point x="213.729" y="1252.646" type="line"/>
      <point x="282.801" y="1316.691"/>
      <point x="342.836" y="1343.702"/>
      <point x="423.891" y="1343.702" type="curve" smooth="yes"/>
      <point x="477.932" y="1343.702"/>
      <point x="528.964" y="1320.684"/>
      <point x="581.994" y="1297.167" type="curve" smooth="yes"/>
      <point x="639.021" y="1271.649"/>
      <point x="699.047" y="1244.634"/>
    </contour>
  </outline>
</glyph>
<glyph name="macroncomb" format="2">
  <unicode hex="0304"/>
  <anchor x="600" y="1200" name="_top"/>
  <anchor x="600" y="1616" name="top"/>
  <outline>
    <contour>
      <point x="213.729" y="1294.735" type="line"/>
      <point x="986.271" y="1294.735" type="line"/>
      <point x="986.271" y="1543.24" type="line"/>
      <point x="213.729" y="1543.24" type="line"/>
    </contour>
  </outline>
</glyph>
<glyph name="brevecomb" format="2">
  <unicode hex="0306"/>
  <anchor x="600" y="1200" name="_top"/>
  <anchor x="600" y="1616" name="top"/>
  <outline>
    <contour>
      <point x="599.995" y="1227.867" type="curve" smooth="yes"/>
      <point x="845.236" y="1227.867"/>
      <point x="993.385" y="1351.896"/>
      <point x="1007.403" y="1596.021" type="curve"/>
      <point x="755.867" y="1596.021" type="line"/>
      <point x="746.863" y="1486.163"/>
      <point x="695.887" y="1435.279"/>
      <point x="599.995" y="1435.279" type="curve" smooth="yes"/>
      <point x="504.102" y="1435.279"/>
      <point x="453.134" y="1486.163"/>
      <point x="444.133" y="1596.021" type="curve"/>
      <point x="192.597" y="1596.021" type="line"/>
      <point x="206.615" y="1351.891"/>
      <point x="354.757" y="1227.867"/>
    </contour>
  </outline>
</glyph>
<glyph name="dotaccentcomb" format="2">
  <unicode hex="0307"/>
  <anchor x="600" y="1200" name="_top"/>
  <anchor x="600" y="1656" name="top"/>
  <outline>
    <contour>
      <point x="600" y="1207.593" type="curve" smooth="yes"/>
      <point x="776.391" y="1207.593"/>
      <point x="854.537" y="1283.729"/>
      <point x="854.537" y="1417.989" type="curve" smooth="yes"/>
      <point x="854.537" y="1552.25"/>
      <point x="776.391" y="1628.381"/>
      <point x="600" y="1628.381" type="curve" smooth="yes"/>
      <point x="423.609" y="1628.381"/>
      <point x="345.463" y="1552.25"/>
      <point x="345.463" y="1417.989" type="curve" smooth="yes"/>
      <point x="345.463" y="1283.729"/>
      <point x="423.609" y="1207.593"/>
    </contour>
  </outline>
</glyph>
<glyph name="dieresiscomb" format="2">
  <unicode hex="0308"/>
  <anchor x="600" y="1200" name="_top"/>
  <anchor x="600" y="1646" name="top"/>
  <outline>
    <contour>
      <point x="864.148" y="1214.608" type="curve" smooth="yes"/>
      <point x="1007.457" y="1214.608"/>
      <point x="1083.585" y="1290.749"/>
      <point x="1083.585" y="1417.989" type="curve" smooth="yes"/>
      <point x="1083.585" y="1545.23"/>
      <point x="1007.457" y="1621.366"/>
      <point x="864.148" y="1621.366" type="curve" smooth="yes"/>
      <point x="720.839" y="1621.366"/>
      <point x="644.711" y="1545.23"/>
      <point x="644.711" y="1417.989" type="curve" smooth="yes"/>
      <point x="644.711" y="1290.749"/>
      <point x="720.839" y="1214.608"/>
    </contour>
    <contour>
      <point x="335.852" y="1214.608" type="curve" smooth="yes"/>
      <point x="479.161" y="1214.608"/>
      <point x="555.289" y="1290.749"/>
      <point x="555.289" y="1417.989" type="curve" smooth="yes"/>
      <point x="555.289" y="1545.23"/>
      <point x="479.161" y="1621.366"/>
      <point x="335.852" y="1621.366" type="curve" smooth="yes"/>
      <point x="192.543" y="1621.366"/>
      <point x="116.415" y="1545.23"/>
      <point x="116.415" y="1417.989" type="curve" smooth="yes"/>
      <point x="116.415" y="1290.749"/>
      <point x="192.543" y="1214.608"/>
    </contour>
  </outline>
</glyph>
<glyph name="hookabovecomb" format="2">
  <unicode hex="0309"/>
  <anchor x="599.99" y="1200" name="_top"/>
  <anchor x="600" y="1656" name="top"/>
  <outline>
    <contour>
      <point x="498.794" y="1219.883" type="curve"/>
      <point x="701.184" y="1219.883" type="line"/>
      <point x="715.21" y="1327.855"/>
      <point x="860.183" y="1321.883"/>
      <point x="860.183" y="1465.923" type="curve" smooth="yes"/>
      <point x="860.183" y="1578"/>
      <point x="775.116" y="1628"/>
      <point x="593.98" y="1628" type="curve" smooth="yes"/>
      <point x="531.962" y="1628"/>
      <point x="444.874" y="1619.004"/>
      <point x="388.828" y="1601.995" type="curve"/>
      <point x="388.828" y="1450.738" type="line"/>
      <point x="451.887" y="1467.742"/>
      <point x="506.874" y="1474.738"/>
      <point x="559.876" y="1474.738" type="curve" smooth="yes"/>
      <point x="619.809" y="1474.738"/>
      <point x="644.755" y="1463.775"/>
      <point x="644.755" y="1437.849" type="curve" smooth="yes"/>
      <point x="644.755" y="1379.934"/>
      <point x="506.803" y="1367.888"/>
    </contour>
  </outline>
</glyph>
<glyph name="ringcomb" format="2">
  <unicode hex="030A"/>
  <anchor x="600" y="1200" name="_top"/>
  <anchor x="600" y="1706" name="top"/>
  <outline>
    <contour>
      <point x="600" y="1213.877" type="curve" smooth="yes"/>
      <point x="732.069" y="1213.877"/>
      <point x="828.117" y="1305.915"/>
      <point x="828.117" y="1433.973" type="curve" smooth="yes"/>
      <point x="828.117" y="1562.032"/>
      <point x="732.069" y="1654.069"/>
      <point x="600" y="1654.069" type="curve" smooth="yes"/>
      <point x="467.931" y="1654.069"/>
      <point x="371.883" y="1562.032"/>
      <point x="371.883" y="1433.973" type="curve" smooth="yes"/>
      <point x="371.883" y="1305.915"/>
      <point x="467.931" y="1213.877"/>
    </contour>
    <contour>
      <point x="600" y="1352.107" type="curve" smooth="yes"/>
      <point x="554.08" y="1352.107"/>
      <point x="522.138" y="1384.059"/>
      <point x="522.138" y="1433.973" type="curve" smooth="yes"/>
      <point x="522.138" y="1483.888"/>
      <point x="554.08" y="1515.84"/>
      <point x="600" y="1515.84" type="curve" smooth="yes"/>
      <point x="645.92" y="1515.84"/>
      <point x="677.862" y="1483.888"/>
      <point x="677.862" y="1433.973" type="curve" smooth="yes"/>
      <point x="677.862" y="1384.059"/>
      <point x="645.92" y="1352.107"/>
    </contour>
  </outline>
</glyph>
<glyph name="hungarumlautcomb" format="2">
  <unicode hex="030B"/>
  <anchor x="600" y="1200" name="_top"/>
  <anchor x="600" y="1666" name="top"/>
  <outline>
    <contour>
      <point x="670.86" y="1219.883" type="line"/>
      <point x="981.541" y="1219.883" type="line"/>
      <point x="1153.583" y="1616" type="line"/>
      <point x="822.862" y="1616" type="line"/>
    </contour>
    <contour>
      <point x="218.459" y="1219.883" type="line"/>
      <point x="529.14" y="1219.883" type="line"/>
      <point x="701.182" y="1616" type="line"/>
      <point x="370.461" y="1616" type="line"/>
    </contour>
  </outline>
</glyph>
<glyph name="caroncomb" format="2">
  <unicode hex="030C"/>
  <anchor x="600" y="1200" name="_top"/>
  <anchor x="600" y="1656" name="top"/>
  <outline>
    <contour>
      <point x="429.638" y="1219.883" type="line"/>
      <point x="770.362" y="1219.883" type="line"/>
      <point x="1009.408" y="1616" type="line"/>
      <point x="713.771" y="1616" type="line"/>
      <point x="571.959" y="1362.222" type="line"/>
      <point x="628.041" y="1362.222" type="line"/>
      <point x="486.229" y="1616" type="line"/>
      <point x="190.592" y="1616" type="line"/>
    </contour>
  </outline>
</glyph>
<glyph name="dblgravecomb" format="2">
  <unicode hex="030F"/>
  <anchor x="600" y="1200" name="_top"/>
  <anchor x="600" y="1656" name="top"/>
  <outline>
    <contour>
      <point x="670.86" y="1219.883" type="line"/>
      <point x="981.532" y="1219.883" type="line"/>
      <point x="829.528" y="1616" type="line"/>
      <point x="498.818" y="1616" type="line"/>
    </contour>
    <contour>
      <point x="218.468" y="1219.883" type="line"/>
      <point x="529.14" y="1219.883" type="line"/>
      <point x="377.136" y="1616" type="line"/>
      <point x="46.426" y="1616" type="line"/>
    </contour>
  </outline>
</glyph>
<glyph name="breveinvertedcomb" format="2">
  <unicode hex="0311"/>
  <anchor x="600" y="1200" name="_top"/>
  <anchor x="600" y="1656" name="top"/>
  <outline>
    <contour>
      <point x="192.597" y="1247.883" type="curve"/>
      <point x="444.133" y="1247.883" type="line"/>
      <point x="453.137" y="1360.745"/>
      <point x="500.099" y="1411.634"/>
      <point x="600.005" y="1411.634" type="curve" smooth="yes"/>
      <point x="694.904" y="1411.634"/>
      <point x="746.866" y="1360.745"/>
      <point x="755.867" y="1247.883" type="curve"/>
      <point x="1007.403" y="1247.883" type="line"/>
      <point x="993.385" y="1492.01"/>
      <point x="843.24" y="1616.037"/>
      <point x="600.005" y="1616.037" type="curve" smooth="yes"/>
      <point x="351.764" y="1616.037"/>
      <point x="206.615" y="1492.005"/>
    </contour>
  </outline>
</glyph>
<glyph name="commaturnedabovecomb" format="2">
  <unicode hex="0312"/>
  <anchor x="600" y="1200" name="_top"/>
  <anchor x="600" y="1656" name="top"/>
  <outline>
    <contour>
      <point x="599.989" y="1211.606" type="curve" smooth="yes"/>
      <point x="761.347" y="1211.606"/>
      <point x="828.467" y="1261.67"/>
      <point x="828.467" y="1345.8" type="curve" smooth="yes"/>
      <point x="828.467" y="1427.917"/>
      <point x="766.371" y="1479.987"/>
      <point x="600" y="1479.987" type="curve" smooth="yes"/>
      <point x="571.957" y="1479.987" type="line"/>
      <point x="655.169" y="1401.864" type="line"/>
      <point x="655.169" y="1475.933"/>
      <point x="673.201" y="1530.948"/>
      <point x="726.269" y="1626.008" type="curve"/>
      <point x="463.666" y="1626.008" type="line"/>
      <point x="410.598" y="1566.013"/>
      <point x="371.533" y="1468.937"/>
      <point x="371.533" y="1387.848" type="curve" smooth="yes"/>
      <point x="371.533" y="1276.706"/>
      <point x="438.648" y="1211.606"/>
    </contour>
  </outline>
</glyph>
<glyph name="horncomb" format="2">
  <unicode hex="031B"/>
  <anchor x="399" y="1480" name="_topright"/>
  <anchor x="399" y="1480" name="topright"/>
  <outline>
    <contour>
      <point x="399.467" y="1292.668" type="line"/>
      <point x="623.061" y="1292.668" type="line" smooth="yes"/>
      <point x="827.157" y="1292.668"/>
      <point x="966.259" y="1388.711"/>
      <point x="966.259" y="1612.917" type="curve" smooth="yes"/>
      <point x="966.259" y="1661.879"/>
      <point x="963.274" y="1711.906"/>
      <point x="947.278" y="1768.944" type="curve"/>
      <point x="687.747" y="1768.944" type="line"/>
      <point x="698.734" y="1709.901"/>
      <point x="701.714" y="1667.9"/>
      <point x="701.714" y="1630.952" type="curve" smooth="yes"/>
      <point x="701.714" y="1517.962"/>
      <point x="640.748" y="1480"/>
      <point x="529.78" y="1480" type="curve" smooth="yes"/>
      <point x="399.467" y="1480" type="line"/>
    </contour>
  </outline>
</glyph>
